<?xml version="1.0" encoding="UTF-8"?>
<!DOCTYPE svg PUBLIC "-//W3C//DTD SVG 1.1//EN" "http://www.w3.org/Graphics/SVG/1.1/DTD/svg11.dtd">
<svg xmlns="http://www.w3.org/2000/svg" version="1.1" width="368px" height="368px" style="shape-rendering:geometricPrecision; text-rendering:geometricPrecision; image-rendering:optimizeQuality; fill-rule:evenodd; clip-rule:evenodd" xmlns:xlink="http://www.w3.org/1999/xlink">
<g><path style="opacity:1" fill="#fefefe" d="M -0.5,-0.5 C 122.167,-0.5 244.833,-0.5 367.5,-0.5C 367.5,122.167 367.5,244.833 367.5,367.5C 244.833,367.5 122.167,367.5 -0.5,367.5C -0.5,244.833 -0.5,122.167 -0.5,-0.5 Z"/></g>
<g><path style="opacity:1" fill="#7a797a" d="M 291.5,117.5 C 291.5,117.833 291.5,118.167 291.5,118.5C 289.143,118.337 286.81,118.503 284.5,119C 283.922,120.417 282.922,121.25 281.5,121.5C 281.5,121.167 281.5,120.833 281.5,120.5C 282.267,119.828 282.934,118.995 283.5,118C 286.146,117.503 288.813,117.336 291.5,117.5 Z"/></g>
<g><path style="opacity:1" fill="#0b0b0b" d="M 291.5,118.5 C 292.338,118.842 292.672,119.508 292.5,120.5C 294.374,121.285 296.374,121.952 298.5,122.5C 299.167,123.833 300.167,124.833 301.5,125.5C 302.167,126.833 303.167,127.833 304.5,128.5C 305.66,132.038 306.993,135.372 308.5,138.5C 308.833,138.5 309.167,138.5 309.5,138.5C 309.83,154.675 309.496,170.675 308.5,186.5C 307.504,186.414 306.671,186.748 306,187.5C 305.503,190.146 305.336,192.813 305.5,195.5C 303.692,196.918 303.025,198.918 303.5,201.5C 303.167,201.5 302.833,201.5 302.5,201.5C 301.167,201.5 300.5,202.167 300.5,203.5C 296.167,204.833 291.833,204.833 287.5,203.5C 287.5,201.5 286.5,200.5 284.5,200.5C 285.551,199.778 286.218,198.778 286.5,197.5C 287.5,197.167 288.167,196.5 288.5,195.5C 289.833,194.833 290.833,193.833 291.5,192.5C 294.78,190.168 296.28,186.834 296,182.5C 296.414,182.043 296.914,181.709 297.5,181.5C 298.825,168.673 298.825,156.006 297.5,143.5C 296.935,141.048 296.268,138.715 295.5,136.5C 294.791,135.596 293.791,135.263 292.5,135.5C 292.737,134.209 292.404,133.209 291.5,132.5C 290.833,131.167 289.833,130.167 288.5,129.5C 286.706,128.767 285.039,127.767 283.5,126.5C 281.744,125.448 281.077,123.781 281.5,121.5C 282.922,121.25 283.922,120.417 284.5,119C 286.81,118.503 289.143,118.337 291.5,118.5 Z"/></g>
<g><path style="opacity:1" fill="#c9c8c9" d="M 291.5,118.5 C 291.5,118.167 291.5,117.833 291.5,117.5C 293.544,118.522 295.544,119.522 297.5,120.5C 295.833,120.5 294.167,120.5 292.5,120.5C 292.672,119.508 292.338,118.842 291.5,118.5 Z"/></g>
<g><path style="opacity:1" fill="#717072" d="M 292.5,120.5 C 294.167,120.5 295.833,120.5 297.5,120.5C 298.338,120.842 298.672,121.508 298.5,122.5C 296.374,121.952 294.374,121.285 292.5,120.5 Z"/></g>
<g><path style="opacity:1" fill="#b1b0b1" d="M 281.5,120.5 C 281.5,120.833 281.5,121.167 281.5,121.5C 281.077,123.781 281.744,125.448 283.5,126.5C 283.5,127.167 283.5,127.833 283.5,128.5C 280.688,128.021 279.355,126.354 279.5,123.5C 279.64,121.97 280.307,120.97 281.5,120.5 Z"/></g>
<g><path style="opacity:1" fill="#aaa9aa" d="M 298.5,122.5 C 300.5,122.5 301.5,123.5 301.5,125.5C 300.167,124.833 299.167,123.833 298.5,122.5 Z"/></g>
<g><path style="opacity:1" fill="#a7a6a7" d="M 301.5,125.5 C 303.5,125.5 304.5,126.5 304.5,128.5C 303.167,127.833 302.167,126.833 301.5,125.5 Z"/></g>
<g><path style="opacity:1" fill="#4e4d4f" d="M 241.5,127.5 C 244.625,126.521 247.958,126.187 251.5,126.5C 251.5,128.167 251.5,129.833 251.5,131.5C 250.566,130.432 250.232,129.099 250.5,127.5C 247.5,127.5 244.5,127.5 241.5,127.5 Z"/></g>
<g><path style="opacity:1" fill="#060606" d="M 241.5,127.5 C 244.5,127.5 247.5,127.5 250.5,127.5C 250.232,129.099 250.566,130.432 251.5,131.5C 251.842,132.338 252.508,132.672 253.5,132.5C 254.833,137.167 254.833,141.833 253.5,146.5C 249.5,149.833 245.833,153.5 242.5,157.5C 240.5,157.5 239.5,158.5 239.5,160.5C 231.387,160.803 223.387,160.137 215.5,158.5C 214.833,158.5 214.5,158.167 214.5,157.5C 214.672,156.508 214.338,155.842 213.5,155.5C 211.014,154.424 208.681,153.091 206.5,151.5C 205.953,144.26 206.62,137.26 208.5,130.5C 208.833,130.5 209.167,130.5 209.5,130.5C 210.833,130.5 212.167,130.5 213.5,130.5C 213.5,131.5 213.5,132.5 213.5,133.5C 214.5,133.5 215.5,133.5 216.5,133.5C 216.182,138.032 216.515,142.366 217.5,146.5C 219.386,147.065 221.053,148.065 222.5,149.5C 227.652,150.814 232.652,150.814 237.5,149.5C 239.114,147.544 240.781,145.544 242.5,143.5C 243.833,140.833 243.833,138.167 242.5,135.5C 241.612,132.946 241.279,130.279 241.5,127.5 Z"/></g>
<g><path style="opacity:1" fill="#b6b4b6" d="M 213.5,129.5 C 211.901,129.232 210.568,129.566 209.5,130.5C 209.167,130.5 208.833,130.5 208.5,130.5C 208.791,129.351 209.624,128.684 211,128.5C 212.07,128.528 212.903,128.861 213.5,129.5 Z"/></g>
<g><path style="opacity:1" fill="#919092" d="M 251.5,126.5 C 252.285,128.374 252.952,130.374 253.5,132.5C 252.508,132.672 251.842,132.338 251.5,131.5C 251.5,129.833 251.5,128.167 251.5,126.5 Z"/></g>
<g><path style="opacity:1" fill="#626162" d="M 283.5,126.5 C 285.039,127.767 286.706,128.767 288.5,129.5C 286.585,129.784 284.919,129.451 283.5,128.5C 283.5,127.833 283.5,127.167 283.5,126.5 Z"/></g>
<g><path style="opacity:1" fill="#a9a8aa" d="M 251.5,126.5 C 247.958,126.187 244.625,126.521 241.5,127.5C 240.532,129.607 240.198,131.941 240.5,134.5C 239.183,131.77 239.183,128.937 240.5,126C 244.358,125.19 248.024,125.357 251.5,126.5 Z"/></g>
<g><path style="opacity:1" fill="#403f41" d="M 241.5,127.5 C 241.279,130.279 241.612,132.946 242.5,135.5C 241.508,135.672 240.842,135.338 240.5,134.5C 240.198,131.941 240.532,129.607 241.5,127.5 Z"/></g>
<g><path style="opacity:1" fill="#807f80" d="M 288.5,129.5 C 289.833,130.167 290.833,131.167 291.5,132.5C 289.5,132.5 288.5,131.5 288.5,129.5 Z"/></g>
<g><path style="opacity:1" fill="#939294" d="M 304.5,128.5 C 305.496,128.414 306.329,128.748 307,129.5C 307.259,132.587 307.759,135.587 308.5,138.5C 306.993,135.372 305.66,132.038 304.5,128.5 Z"/></g>
<g><path style="opacity:1" fill="#545254" d="M 209.5,130.5 C 210.568,129.566 211.901,129.232 213.5,129.5C 214.404,130.209 214.737,131.209 214.5,132.5C 215.5,132.5 216.5,132.5 217.5,132.5C 217.5,137.167 217.5,141.833 217.5,146.5C 216.515,142.366 216.182,138.032 216.5,133.5C 215.5,133.5 214.5,133.5 213.5,133.5C 213.5,132.5 213.5,131.5 213.5,130.5C 212.167,130.5 210.833,130.5 209.5,130.5 Z"/></g>
<g><path style="opacity:1" fill="#555455" d="M 208.5,130.5 C 206.62,137.26 205.953,144.26 206.5,151.5C 205.51,145.355 205.177,139.022 205.5,132.5C 206.5,131.833 207.5,131.167 208.5,130.5 Z"/></g>
<g><path style="opacity:1" fill="#080808" d="M 161.5,135.5 C 161.34,137.199 161.506,138.866 162,140.5C 162.671,141.252 163.504,141.586 164.5,141.5C 164.828,146.875 164.495,152.208 163.5,157.5C 161.717,159.023 161.051,161.023 161.5,163.5C 159.5,163.5 158.5,164.5 158.5,166.5C 156.5,166.5 155.5,167.5 155.5,169.5C 147.167,169.5 138.833,169.5 130.5,169.5C 130.5,169.167 130.5,168.833 130.5,168.5C 128.437,166.918 126.104,165.585 123.5,164.5C 123.068,163.29 122.401,162.29 121.5,161.5C 120.508,161.672 119.842,161.338 119.5,160.5C 119.172,155.125 119.505,149.792 120.5,144.5C 122.834,140.986 125.5,140.652 128.5,143.5C 129.267,147.415 129.767,151.415 130,155.5C 130.671,156.252 131.504,156.586 132.5,156.5C 133.167,156.5 133.5,156.833 133.5,157.5C 139.013,158.816 144.68,158.816 150.5,157.5C 151.005,156.081 152.005,155.415 153.5,155.5C 154.483,151.702 154.817,147.702 154.5,143.5C 153.5,143.5 152.5,143.5 151.5,143.5C 151.5,141.167 151.5,138.833 151.5,136.5C 154.625,135.521 157.958,135.187 161.5,135.5 Z"/></g>
<g><path style="opacity:1" fill="#b7b6b7" d="M 205.5,132.5 C 205.177,139.022 205.51,145.355 206.5,151.5C 206.833,152.167 207.167,152.833 207.5,153.5C 206.504,153.586 205.671,153.252 205,152.5C 204.179,145.654 204.346,138.987 205.5,132.5 Z"/></g>
<g><path style="opacity:1" fill="#323132" d="M 295.5,136.5 C 296.268,138.715 296.935,141.048 297.5,143.5C 296.833,143.5 296.167,143.5 295.5,143.5C 295.5,141.167 295.5,138.833 295.5,136.5 Z"/></g>
<g><path style="opacity:1" fill="#b5b3b5" d="M 161.5,135.5 C 157.958,135.187 154.625,135.521 151.5,136.5C 150.532,138.607 150.198,140.941 150.5,143.5C 149.183,140.77 149.183,137.937 150.5,135C 154.358,134.19 158.024,134.357 161.5,135.5 Z"/></g>
<g><path style="opacity:1" fill="#dbd9db" d="M 217.5,132.5 C 218.485,136.634 218.818,140.968 218.5,145.5C 220.099,145.232 221.432,145.566 222.5,146.5C 220.833,146.5 219.167,146.5 217.5,146.5C 217.5,141.833 217.5,137.167 217.5,132.5 Z"/></g>
<g><path style="opacity:1" fill="#c9c7c9" d="M 161.5,135.5 C 163.256,136.552 163.923,138.219 163.5,140.5C 164.5,140.5 165.5,140.5 166.5,140.5C 166.822,146.358 166.489,152.025 165.5,157.5C 165.821,151.974 165.488,146.64 164.5,141.5C 163.504,141.586 162.671,141.252 162,140.5C 161.506,138.866 161.34,137.199 161.5,135.5 Z"/></g>
<g><path style="opacity:1" fill="#070707" d="M 74.5,144.5 C 75.5,145.5 76.5,146.5 77.5,147.5C 77.634,149.292 77.3007,150.958 76.5,152.5C 75.1667,152.5 74.5,153.167 74.5,154.5C 73.5041,154.414 72.6708,154.748 72,155.5C 71.5026,158.146 71.3359,160.813 71.5,163.5C 70.5041,163.414 69.6708,163.748 69,164.5C 68.5065,166.134 68.3398,167.801 68.5,169.5C 67.1709,174.96 66.5042,180.793 66.5,187C 66.6667,192.833 66.8333,198.667 67,204.5C 67.6708,205.252 68.5041,205.586 69.5,205.5C 69.2852,207.179 69.9519,208.179 71.5,208.5C 72.4884,209.795 73.4884,211.128 74.5,212.5C 74.8212,214.048 75.8212,214.715 77.5,214.5C 77.5,215.5 77.5,216.5 77.5,217.5C 78.5,217.5 79.5,217.5 80.5,217.5C 80.5,218.5 80.5,219.5 80.5,220.5C 81.9587,220.433 83.2921,220.766 84.5,221.5C 89.0984,222.103 93.4317,223.437 97.5,225.5C 97.5,227.833 97.5,230.167 97.5,232.5C 90.2605,233.047 83.2605,232.38 76.5,230.5C 75.578,228.184 73.9113,226.517 71.5,225.5C 70.8333,224.167 69.8333,223.167 68.5,222.5C 68.0679,221.29 67.4013,220.29 66.5,219.5C 64.4265,218.7 62.7598,217.367 61.5,215.5C 61.1788,213.952 60.1788,213.285 58.5,213.5C 58.7373,212.209 58.404,211.209 57.5,210.5C 56.517,195.578 56.1836,180.578 56.5,165.5C 57.8317,163.142 59.165,160.809 60.5,158.5C 61.2504,149.749 65.917,145.083 74.5,144.5 Z"/></g>
<g><path style="opacity:1" fill="#757476" d="M 128.5,143.5 C 125.5,140.652 122.834,140.986 120.5,144.5C 119.505,149.792 119.172,155.125 119.5,160.5C 118.184,154.987 118.184,149.32 119.5,143.5C 121.594,140.969 124.261,140.136 127.5,141C 128.252,141.671 128.586,142.504 128.5,143.5 Z"/></g>
<g><path style="opacity:1" fill="#7a797b" d="M 164.5,141.5 C 165.488,146.64 165.821,151.974 165.5,157.5C 163.31,158.929 161.976,160.929 161.5,163.5C 161.051,161.023 161.717,159.023 163.5,157.5C 164.495,152.208 164.828,146.875 164.5,141.5 Z"/></g>
<g><path style="opacity:1" fill="#616061" d="M 128.5,143.5 C 129.965,147.656 131.299,151.99 132.5,156.5C 131.504,156.586 130.671,156.252 130,155.5C 129.767,151.415 129.267,147.415 128.5,143.5 Z"/></g>
<g><path style="opacity:1" fill="#767476" d="M 217.5,146.5 C 219.167,146.5 220.833,146.5 222.5,146.5C 223.167,147.167 223.833,147.833 224.5,148.5C 228.634,149.485 232.968,149.818 237.5,149.5C 232.652,150.814 227.652,150.814 222.5,149.5C 221.053,148.065 219.386,147.065 217.5,146.5 Z"/></g>
<g><path style="opacity:1" fill="#a3a1a3" d="M 242.5,143.5 C 240.781,145.544 239.114,147.544 237.5,149.5C 232.968,149.818 228.634,149.485 224.5,148.5C 228.555,148.824 232.555,148.491 236.5,147.5C 238.264,145.722 240.264,144.389 242.5,143.5 Z"/></g>
<g><path style="opacity:1" fill="#828082" d="M 74.5,144.5 C 65.917,145.083 61.2504,149.749 60.5,158.5C 59.165,160.809 57.8317,163.142 56.5,165.5C 55.504,179.99 55.1707,194.657 55.5,209.5C 55.1667,209.5 54.8333,209.5 54.5,209.5C 54.3334,194.496 54.5001,179.496 55,164.5C 56.7746,162.292 58.2746,159.958 59.5,157.5C 60.1667,154.833 60.8333,152.167 61.5,149.5C 63.1667,147.833 64.8333,146.167 66.5,144.5C 69.3092,143.2 71.9759,143.2 74.5,144.5 Z"/></g>
<g><path style="opacity:1" fill="#6b6a6c" d="M 77.5,147.5 C 78.1386,148.097 78.472,148.93 78.5,150C 78.3158,151.376 77.6491,152.209 76.5,152.5C 77.6491,152.209 78.3158,151.376 78.5,150C 78.472,148.93 78.1386,148.097 77.5,147.5 Z"/></g>
<g><path style="opacity:1" fill="#504f50" d="M 151.5,136.5 C 151.5,138.833 151.5,141.167 151.5,143.5C 152.5,143.5 153.5,143.5 154.5,143.5C 154.817,147.702 154.483,151.702 153.5,155.5C 153.815,151.629 153.482,147.962 152.5,144.5C 151.508,144.672 150.842,144.338 150.5,143.5C 150.198,140.941 150.532,138.607 151.5,136.5 Z"/></g>
<g><path style="opacity:1" fill="#8b8a8b" d="M 253.5,146.5 C 250.833,151.167 247.167,154.833 242.5,157.5C 245.833,153.5 249.5,149.833 253.5,146.5 Z"/></g>
<g><path style="opacity:1" fill="#565557" d="M 76.5,152.5 C 76.1667,153.5 75.5,154.167 74.5,154.5C 74.5,153.167 75.1667,152.5 76.5,152.5 Z"/></g>
<g><path style="opacity:1" fill="#4d4c4d" d="M 206.5,151.5 C 208.681,153.091 211.014,154.424 213.5,155.5C 211.833,155.5 210.167,155.5 208.5,155.5C 208.672,154.508 208.338,153.842 207.5,153.5C 207.167,152.833 206.833,152.167 206.5,151.5 Z"/></g>
<g><path style="opacity:1" fill="#aeacae" d="M 208.5,155.5 C 210.167,155.5 211.833,155.5 213.5,155.5C 214.338,155.842 214.672,156.508 214.5,157.5C 212.374,156.952 210.374,156.285 208.5,155.5 Z"/></g>
<g><path style="opacity:1" fill="#a4a2a4" d="M 152.5,144.5 C 153.482,147.962 153.815,151.629 153.5,155.5C 152.005,155.415 151.005,156.081 150.5,157.5C 144.68,158.816 139.013,158.816 133.5,157.5C 138.875,157.828 144.208,157.495 149.5,156.5C 152.131,153.041 153.131,149.041 152.5,144.5 Z"/></g>
<g><path style="opacity:1" fill="#8a898a" d="M 295.5,143.5 C 296.167,143.5 296.833,143.5 297.5,143.5C 298.825,156.006 298.825,168.673 297.5,181.5C 296.914,181.709 296.414,182.043 296,182.5C 296.28,186.834 294.78,190.168 291.5,192.5C 293.722,189.316 294.888,185.649 295,181.5C 295.414,181.043 295.914,180.709 296.5,180.5C 296.833,174.5 297.167,168.5 297.5,162.5C 297.458,155.927 296.792,149.594 295.5,143.5 Z"/></g>
<g><path style="opacity:1" fill="#4e4d4e" d="M 74.5,154.5 C 74.1667,155.167 73.8333,155.833 73.5,156.5C 72.8333,158.833 72.1667,161.167 71.5,163.5C 71.3359,160.813 71.5026,158.146 72,155.5C 72.6708,154.748 73.5041,154.414 74.5,154.5 Z"/></g>
<g><path style="opacity:1" fill="#b9b7b9" d="M 73.5,156.5 C 74.0356,159.698 73.369,162.365 71.5,164.5C 71.5,164.167 71.5,163.833 71.5,163.5C 72.1667,161.167 72.8333,158.833 73.5,156.5 Z"/></g>
<g><path style="opacity:1" fill="#646364" d="M 242.5,157.5 C 242.167,158.167 241.833,158.833 241.5,159.5C 240.833,159.833 240.167,160.167 239.5,160.5C 239.5,158.5 240.5,157.5 242.5,157.5 Z"/></g>
<g><path style="opacity:1" fill="#acaaac" d="M 215.5,158.5 C 223.387,160.137 231.387,160.803 239.5,160.5C 240.167,160.167 240.833,159.833 241.5,159.5C 241.586,160.496 241.252,161.329 240.5,162C 233.508,162.5 226.508,162.666 219.5,162.5C 219.5,161.5 219.5,160.5 219.5,159.5C 217.901,159.768 216.568,159.434 215.5,158.5 Z"/></g>
<g><path style="opacity:1" fill="#7b797b" d="M 121.5,161.5 C 122.401,162.29 123.068,163.29 123.5,164.5C 121.952,164.179 121.285,163.179 121.5,161.5 Z"/></g>
<g><path style="opacity:1" fill="#a9a7a9" d="M 309.5,138.5 C 310.166,146.493 310.5,154.66 310.5,163C 310.498,171.528 309.831,179.695 308.5,187.5C 308.5,187.167 308.5,186.833 308.5,186.5C 309.496,170.675 309.83,154.675 309.5,138.5 Z"/></g>
<g><path style="opacity:1" fill="#2f2d2f" d="M 56.5,165.5 C 56.1836,180.578 56.517,195.578 57.5,210.5C 56.5084,210.672 55.8417,210.338 55.5,209.5C 55.1707,194.657 55.504,179.99 56.5,165.5 Z"/></g>
<g><path style="opacity:1" fill="#4a494a" d="M 71.5,163.5 C 71.5,163.833 71.5,164.167 71.5,164.5C 70.8333,164.5 70.5,164.833 70.5,165.5C 69.8333,166.833 69.1667,168.167 68.5,169.5C 68.3398,167.801 68.5065,166.134 69,164.5C 69.6708,163.748 70.5041,163.414 71.5,163.5 Z"/></g>
<g><path style="opacity:1" fill="#6c6a6c" d="M 161.5,163.5 C 160.833,164.833 159.833,165.833 158.5,166.5C 158.5,164.5 159.5,163.5 161.5,163.5 Z"/></g>
<g><path style="opacity:1" fill="#818081" d="M 123.5,164.5 C 126.104,165.585 128.437,166.918 130.5,168.5C 128.586,167.815 126.586,167.315 124.5,167C 123.748,166.329 123.414,165.496 123.5,164.5 Z"/></g>
<g><path style="opacity:1" fill="#696869" d="M 158.5,166.5 C 158.167,167.167 157.833,167.833 157.5,168.5C 156.833,168.833 156.167,169.167 155.5,169.5C 155.5,167.5 156.5,166.5 158.5,166.5 Z"/></g>
<g><path style="opacity:1" fill="#cdcccd" d="M 70.5,165.5 C 70.6602,167.199 70.4935,168.866 70,170.5C 69.3292,171.252 68.4959,171.586 67.5,171.5C 67.8333,170.833 68.1667,170.167 68.5,169.5C 69.1667,168.167 69.8333,166.833 70.5,165.5 Z"/></g>
<g><path style="opacity:1" fill="#c0bfc0" d="M 157.5,168.5 C 157.586,169.496 157.252,170.329 156.5,171C 152.167,171.167 147.833,171.333 143.5,171.5C 138.778,171.492 134.445,170.825 130.5,169.5C 138.833,169.5 147.167,169.5 155.5,169.5C 156.167,169.167 156.833,168.833 157.5,168.5 Z"/></g>
<g><path style="opacity:1" fill="#070707" d="M 236.5,179.5 C 237.338,179.842 237.672,180.508 237.5,181.5C 239.075,183.114 239.741,185.114 239.5,187.5C 240.5,187.5 241.5,187.5 242.5,187.5C 242.5,192.167 242.5,196.833 242.5,201.5C 242.167,201.5 241.833,201.5 241.5,201.5C 239.631,203.635 238.964,206.302 239.5,209.5C 237.5,209.5 236.5,210.5 236.5,212.5C 234.5,212.5 233.5,213.5 233.5,215.5C 226.549,216.066 219.882,215.399 213.5,213.5C 211.706,212.767 210.039,211.767 208.5,210.5C 206.801,210.527 205.467,211.194 204.5,212.5C 202.5,212.5 201.5,213.5 201.5,215.5C 200.167,215.5 199.5,216.167 199.5,217.5C 197.81,217.856 196.81,218.856 196.5,220.5C 196.5,220.833 196.5,221.167 196.5,221.5C 190.132,221.83 183.798,221.496 177.5,220.5C 177.291,219.914 176.957,219.414 176.5,219C 173.854,218.503 171.187,218.336 168.5,218.5C 168.586,217.504 168.252,216.671 167.5,216C 166.1,214.562 164.433,213.729 162.5,213.5C 162.737,212.209 162.404,211.209 161.5,210.5C 160.542,204.256 160.209,197.923 160.5,191.5C 162.063,190.055 163.396,188.389 164.5,186.5C 165.833,185.167 167.167,185.167 168.5,186.5C 168.5,187.167 168.833,187.5 169.5,187.5C 170.209,188.404 171.209,188.737 172.5,188.5C 172.5,190.833 172.5,193.167 172.5,195.5C 170.598,198.337 169.931,201.671 170.5,205.5C 171.5,205.5 172.5,205.5 173.5,205.5C 173.5,206.5 173.5,207.5 173.5,208.5C 175.167,208.5 176.833,208.5 178.5,208.5C 179.338,208.842 179.672,209.508 179.5,210.5C 181.304,211.162 183.304,211.495 185.5,211.5C 187.952,211.461 189.952,210.794 191.5,209.5C 193.531,208.461 194.864,206.795 195.5,204.5C 197.414,201.316 198.08,197.649 197.5,193.5C 200.552,191.822 203.885,191.155 207.5,191.5C 207.232,193.099 207.566,194.432 208.5,195.5C 208.842,196.338 209.508,196.672 210.5,196.5C 212.367,197.76 213.7,199.427 214.5,201.5C 215.091,202.151 215.757,202.818 216.5,203.5C 220.445,204.491 224.445,204.824 228.5,204.5C 228.194,201.615 228.527,198.948 229.5,196.5C 231.912,196.306 232.912,194.973 232.5,192.5C 231.5,192.5 230.5,192.5 229.5,192.5C 229.784,190.585 229.451,188.919 228.5,187.5C 228.167,187.5 227.833,187.5 227.5,187.5C 226.833,186.167 225.833,185.167 224.5,184.5C 223.738,182.738 222.404,181.738 220.5,181.5C 222.415,178.577 224.749,175.91 227.5,173.5C 229.071,176.093 231.404,177.093 234.5,176.5C 234.285,178.179 234.952,179.179 236.5,179.5 Z"/></g>
<g><path style="opacity:1" fill="#8a898a" d="M 236.5,178.5 C 236.5,178.833 236.5,179.167 236.5,179.5C 234.952,179.179 234.285,178.179 234.5,176.5C 231.404,177.093 229.071,176.093 227.5,173.5C 224.749,175.91 222.415,178.577 220.5,181.5C 219.224,180.614 219.224,179.614 220.5,178.5C 222.647,176.263 224.98,174.263 227.5,172.5C 229.722,173.778 232.056,174.778 234.5,175.5C 235.425,176.357 236.092,177.357 236.5,178.5 Z"/></g>
<g><path style="opacity:1" fill="#b3b1b3" d="M 236.5,179.5 C 236.5,179.167 236.5,178.833 236.5,178.5C 238.144,178.81 239.144,179.81 239.5,181.5C 238.833,181.5 238.167,181.5 237.5,181.5C 237.672,180.508 237.338,179.842 236.5,179.5 Z"/></g>
<g><path style="opacity:1" fill="#9a999a" d="M 68.5,169.5 C 68.1667,170.167 67.8333,170.833 67.5,171.5C 67.3335,182.172 67.5002,192.839 68,203.5C 68.7172,204.044 69.2172,204.711 69.5,205.5C 68.5041,205.586 67.6708,205.252 67,204.5C 66.8333,198.667 66.6667,192.833 66.5,187C 66.5042,180.793 67.1709,174.96 68.5,169.5 Z"/></g>
<g><path style="opacity:1" fill="#bdbbbd" d="M 220.5,181.5 C 222.404,181.738 223.738,182.738 224.5,184.5C 222.381,184.532 221.048,183.532 220.5,181.5 Z"/></g>
<g><path style="opacity:1" fill="#868486" d="M 168.5,186.5 C 167.167,185.167 165.833,185.167 164.5,186.5C 164.62,185.414 165.287,184.747 166.5,184.5C 167.713,184.747 168.38,185.414 168.5,186.5 Z"/></g>
<g><path style="opacity:1" fill="#9d9c9d" d="M 224.5,184.5 C 225.833,185.167 226.833,186.167 227.5,187.5C 225.5,187.5 224.5,186.5 224.5,184.5 Z"/></g>
<g><path style="opacity:1" fill="#3d3c3d" d="M 169.5,187.5 C 170.833,187.5 172.167,187.5 173.5,187.5C 173.806,190.385 173.473,193.052 172.5,195.5C 172.5,193.167 172.5,190.833 172.5,188.5C 171.209,188.737 170.209,188.404 169.5,187.5 Z"/></g>
<g><path style="opacity:1" fill="#9e9d9e" d="M 307.5,188.5 C 307.5,191.167 307.5,193.833 307.5,196.5C 306.5,196.5 305.5,196.5 304.5,196.5C 304.784,198.415 304.451,200.081 303.5,201.5C 303.025,198.918 303.692,196.918 305.5,195.5C 306.167,193.167 306.833,190.833 307.5,188.5 Z"/></g>
<g><path style="opacity:1" fill="#747375" d="M 237.5,181.5 C 238.167,181.5 238.833,181.5 239.5,181.5C 240.451,182.919 240.784,184.585 240.5,186.5C 241.5,186.5 242.5,186.5 243.5,186.5C 243.821,191.695 243.487,196.695 242.5,201.5C 242.5,196.833 242.5,192.167 242.5,187.5C 241.5,187.5 240.5,187.5 239.5,187.5C 239.741,185.114 239.075,183.114 237.5,181.5 Z"/></g>
<g><path style="opacity:1" fill="#3c3b3c" d="M 308.5,186.5 C 308.5,186.833 308.5,187.167 308.5,187.5C 307.833,187.5 307.5,187.833 307.5,188.5C 306.833,190.833 306.167,193.167 305.5,195.5C 305.336,192.813 305.503,190.146 306,187.5C 306.671,186.748 307.504,186.414 308.5,186.5 Z"/></g>
<g><path style="opacity:1" fill="#999899" d="M 164.5,186.5 C 163.396,188.389 162.063,190.055 160.5,191.5C 159.51,197.31 159.177,203.31 159.5,209.5C 159.167,209.5 158.833,209.5 158.5,209.5C 158.334,203.158 158.5,196.825 159,190.5C 160.651,188.79 162.484,187.456 164.5,186.5 Z"/></g>
<g><path style="opacity:1" fill="#3c3b3c" d="M 160.5,191.5 C 160.209,197.923 160.542,204.256 161.5,210.5C 160.508,210.672 159.842,210.338 159.5,209.5C 159.177,203.31 159.51,197.31 160.5,191.5 Z"/></g>
<g><path style="opacity:1" fill="#636263" d="M 208.5,190.5 C 208.5,192.167 208.5,193.833 208.5,195.5C 207.566,194.432 207.232,193.099 207.5,191.5C 203.885,191.155 200.552,191.822 197.5,193.5C 200.239,189.48 203.905,188.48 208.5,190.5 Z"/></g>
<g><path style="opacity:1" fill="#abaaac" d="M 208.5,190.5 C 209.285,192.374 209.952,194.374 210.5,196.5C 209.508,196.672 208.842,196.338 208.5,195.5C 208.5,193.833 208.5,192.167 208.5,190.5 Z"/></g>
<g><path style="opacity:1" fill="#535253" d="M 228.5,187.5 C 229.451,188.919 229.784,190.585 229.5,192.5C 230.5,192.5 231.5,192.5 232.5,192.5C 232.912,194.973 231.912,196.306 229.5,196.5C 229.5,196.167 229.5,195.833 229.5,195.5C 230.043,195.44 230.376,195.107 230.5,194.5C 228.827,192.477 228.16,190.144 228.5,187.5 Z"/></g>
<g><path style="opacity:1" fill="#929192" d="M 291.5,192.5 C 290.833,193.833 289.833,194.833 288.5,195.5C 288.5,193.5 289.5,192.5 291.5,192.5 Z"/></g>
<g><path style="opacity:1" fill="#858485" d="M 288.5,195.5 C 288.167,196.5 287.5,197.167 286.5,197.5C 286.5,196.167 287.167,195.5 288.5,195.5 Z"/></g>
<g><path style="opacity:1" fill="#797879" d="M 172.5,195.5 C 170.482,200.139 171.482,203.806 175.5,206.5C 176.5,207.167 177.5,207.833 178.5,208.5C 176.833,208.5 175.167,208.5 173.5,208.5C 173.5,207.5 173.5,206.5 173.5,205.5C 172.5,205.5 171.5,205.5 170.5,205.5C 169.931,201.671 170.598,198.337 172.5,195.5 Z"/></g>
<g><path style="opacity:1" fill="#848384" d="M 286.5,197.5 C 286.218,198.778 285.551,199.778 284.5,200.5C 284.833,201.167 285.167,201.833 285.5,202.5C 282.916,200.581 283.25,198.914 286.5,197.5 Z"/></g>
<g><path style="opacity:1" fill="#3b393b" d="M 284.5,200.5 C 286.5,200.5 287.5,201.5 287.5,203.5C 286.833,203.167 286.167,202.833 285.5,202.5C 285.167,201.833 284.833,201.167 284.5,200.5 Z"/></g>
<g><path style="opacity:1" fill="#acabad" d="M 197.5,193.5 C 198.08,197.649 197.414,201.316 195.5,204.5C 194.92,200.351 195.586,196.684 197.5,193.5 Z"/></g>
<g><path style="opacity:1" fill="#6e6d6e" d="M 302.5,201.5 C 302.167,202.167 301.833,202.833 301.5,203.5C 301.167,203.5 300.833,203.5 300.5,203.5C 300.5,202.167 301.167,201.5 302.5,201.5 Z"/></g>
<g><path style="opacity:1" fill="#aeadae" d="M 229.5,195.5 C 229.5,195.833 229.5,196.167 229.5,196.5C 228.527,198.948 228.194,201.615 228.5,204.5C 224.445,204.824 220.445,204.491 216.5,203.5C 215.757,202.818 215.091,202.151 214.5,201.5C 218.698,202.875 223.031,203.542 227.5,203.5C 226.964,200.302 227.631,197.635 229.5,195.5 Z"/></g>
<g><path style="opacity:1" fill="#646365" d="M 241.5,201.5 C 240.922,204.28 240.255,206.947 239.5,209.5C 238.964,206.302 239.631,203.635 241.5,201.5 Z"/></g>
<g><path style="opacity:1" fill="#acaaac" d="M 285.5,202.5 C 286.167,202.833 286.833,203.167 287.5,203.5C 291.833,204.833 296.167,204.833 300.5,203.5C 300.833,203.5 301.167,203.5 301.5,203.5C 299.429,204.809 296.929,205.475 294,205.5C 291.5,205.333 289,205.167 286.5,205C 285.748,204.329 285.414,203.496 285.5,202.5 Z"/></g>
<g><path style="opacity:1" fill="#747375" d="M 195.5,204.5 C 194.864,206.795 193.531,208.461 191.5,209.5C 191.167,209.5 190.833,209.5 190.5,209.5C 191.833,207.5 193.5,205.833 195.5,204.5 Z"/></g>
<g><path style="opacity:1" fill="#575657" d="M 69.5,205.5 C 70.1667,205.5 70.5,205.833 70.5,206.5C 70.8333,207.167 71.1667,207.833 71.5,208.5C 69.9519,208.179 69.2852,207.179 69.5,205.5 Z"/></g>
<g><path style="opacity:1" fill="#a5a4a6" d="M 175.5,206.5 C 180.079,208.75 185.079,209.75 190.5,209.5C 187.038,210.482 183.371,210.815 179.5,210.5C 179.672,209.508 179.338,208.842 178.5,208.5C 177.5,207.833 176.5,207.167 175.5,206.5 Z"/></g>
<g><path style="opacity:1" fill="#3d3c3e" d="M 190.5,209.5 C 190.833,209.5 191.167,209.5 191.5,209.5C 189.952,210.794 187.952,211.461 185.5,211.5C 183.304,211.495 181.304,211.162 179.5,210.5C 183.371,210.815 187.038,210.482 190.5,209.5 Z"/></g>
<g><path style="opacity:1" fill="#5e5c5e" d="M 239.5,209.5 C 238.833,210.833 237.833,211.833 236.5,212.5C 236.5,210.5 237.5,209.5 239.5,209.5 Z"/></g>
<g><path style="opacity:1" fill="#b6b4b6" d="M 70.5,206.5 C 72.3284,207.794 74.3284,208.794 76.5,209.5C 76.5,210.5 76.5,211.5 76.5,212.5C 77.5,212.5 78.5,212.5 79.5,212.5C 79.5,213.5 79.5,214.5 79.5,215.5C 80.5,215.5 81.5,215.5 82.5,215.5C 82.4326,216.959 82.7659,218.292 83.5,219.5C 81.9519,219.179 81.2852,218.179 81.5,216.5C 80.5,216.5 79.5,216.5 78.5,216.5C 78.5,215.5 78.5,214.5 78.5,213.5C 77.0413,213.567 75.7079,213.234 74.5,212.5C 73.4884,211.128 72.4884,209.795 71.5,208.5C 71.1667,207.833 70.8333,207.167 70.5,206.5 Z"/></g>
<g><path style="opacity:1" fill="#5a595a" d="M 208.5,210.5 C 210.039,211.767 211.706,212.767 213.5,213.5C 212.167,213.5 210.833,213.5 209.5,213.5C 208.833,213.5 208.5,213.167 208.5,212.5C 208.5,211.833 208.5,211.167 208.5,210.5 Z"/></g>
<g><path style="opacity:1" fill="#c1c0c1" d="M 54.5,209.5 C 54.8333,209.5 55.1667,209.5 55.5,209.5C 55.8417,210.338 56.5084,210.672 57.5,210.5C 58.404,211.209 58.7373,212.209 58.5,213.5C 60.1788,213.285 61.1788,213.952 61.5,215.5C 58.3157,214.434 55.9824,212.434 54.5,209.5 Z"/></g>
<g><path style="opacity:1" fill="#bcbabc" d="M 158.5,209.5 C 158.833,209.5 159.167,209.5 159.5,209.5C 159.842,210.338 160.508,210.672 161.5,210.5C 162.404,211.209 162.737,212.209 162.5,213.5C 164.433,213.729 166.1,214.562 167.5,216C 168.252,216.671 168.586,217.504 168.5,218.5C 167.417,218.461 166.417,218.127 165.5,217.5C 163.497,215.867 162.164,213.867 161.5,211.5C 159.821,211.715 158.821,211.048 158.5,209.5 Z"/></g>
<g><path style="opacity:1" fill="#b8b7b8" d="M 208.5,210.5 C 208.5,211.167 208.5,211.833 208.5,212.5C 207.883,212.389 207.383,212.056 207,211.5C 206.578,213.426 205.411,214.426 203.5,214.5C 203.833,213.833 204.167,213.167 204.5,212.5C 205.467,211.194 206.801,210.527 208.5,210.5 Z"/></g>
<g><path style="opacity:1" fill="#4f4e4f" d="M 204.5,212.5 C 204.167,213.167 203.833,213.833 203.5,214.5C 202.833,214.833 202.167,215.167 201.5,215.5C 201.5,213.5 202.5,212.5 204.5,212.5 Z"/></g>
<g><path style="opacity:1" fill="#575657" d="M 236.5,212.5 C 236.167,213.167 235.833,213.833 235.5,214.5C 234.833,214.833 234.167,215.167 233.5,215.5C 233.5,213.5 234.5,212.5 236.5,212.5 Z"/></g>
<g><path style="opacity:1" fill="#5b5a5b" d="M 201.5,215.5 C 201.167,216.5 200.5,217.167 199.5,217.5C 199.5,216.167 200.167,215.5 201.5,215.5 Z"/></g>
<g><path style="opacity:1" fill="#343234" d="M 74.5,212.5 C 75.7079,213.234 77.0413,213.567 78.5,213.5C 78.5,214.5 78.5,215.5 78.5,216.5C 79.5,216.5 80.5,216.5 81.5,216.5C 81.2852,218.179 81.9519,219.179 83.5,219.5C 84.3382,219.842 84.6716,220.508 84.5,221.5C 83.2921,220.766 81.9587,220.433 80.5,220.5C 80.5,219.5 80.5,218.5 80.5,217.5C 79.5,217.5 78.5,217.5 77.5,217.5C 77.5,216.5 77.5,215.5 77.5,214.5C 75.8212,214.715 74.8212,214.048 74.5,212.5 Z"/></g>
<g><path style="opacity:1" fill="#adabad" d="M 209.5,213.5 C 210.833,213.5 212.167,213.5 213.5,213.5C 219.882,215.399 226.549,216.066 233.5,215.5C 234.167,215.167 234.833,214.833 235.5,214.5C 235.5,215.5 235.5,216.5 235.5,217.5C 228.167,217.5 220.833,217.5 213.5,217.5C 213.5,216.5 213.5,215.5 213.5,214.5C 211.901,214.768 210.568,214.434 209.5,213.5 Z"/></g>
<g><path style="opacity:1" fill="#727072" d="M 199.5,217.5 C 199.19,219.144 198.19,220.144 196.5,220.5C 196.81,218.856 197.81,217.856 199.5,217.5 Z"/></g>
<g><path style="opacity:1" fill="#8d8c8d" d="M 66.5,219.5 C 67.4013,220.29 68.0679,221.29 68.5,222.5C 66.9519,222.179 66.2852,221.179 66.5,219.5 Z"/></g>
<g><path style="opacity:1" fill="#898889" d="M 84.5,221.5 C 87.1873,221.336 89.854,221.503 92.5,222C 94.3025,224.103 96.6359,224.936 99.5,224.5C 99.81,227.713 99.4767,230.713 98.5,233.5C 98.8064,230.615 98.4731,227.948 97.5,225.5C 93.4317,223.437 89.0984,222.103 84.5,221.5 Z"/></g>
<g><path style="opacity:1" fill="#7e7d7e" d="M 168.5,218.5 C 171.187,218.336 173.854,218.503 176.5,219C 176.957,219.414 177.291,219.914 177.5,220.5C 183.798,221.496 190.132,221.83 196.5,221.5C 189.989,222.818 183.322,222.818 176.5,221.5C 176.291,220.914 175.957,220.414 175.5,220C 172.964,219.814 170.631,219.314 168.5,218.5 Z"/></g>
<g><path style="opacity:1" fill="#aeadae" d="M 68.5,222.5 C 69.8333,223.167 70.8333,224.167 71.5,225.5C 69.5,225.5 68.5,224.5 68.5,222.5 Z"/></g>
<g><path style="opacity:1" fill="#888688" d="M 71.5,225.5 C 73.9113,226.517 75.578,228.184 76.5,230.5C 74.0887,229.483 72.422,227.816 71.5,225.5 Z"/></g>
<g><path style="opacity:1" fill="#515051" d="M 97.5,225.5 C 98.4731,227.948 98.8064,230.615 98.5,233.5C 91.825,233.666 85.1583,233.5 78.5,233C 77.6195,232.292 76.9528,231.458 76.5,230.5C 83.2605,232.38 90.2605,233.047 97.5,232.5C 97.5,230.167 97.5,227.833 97.5,225.5 Z"/></g>
</svg>
