<?xml version="1.0" encoding="UTF-8"?>
<!DOCTYPE svg PUBLIC "-//W3C//DTD SVG 1.1//EN" "http://www.w3.org/Graphics/SVG/1.1/DTD/svg11.dtd">
<svg xmlns="http://www.w3.org/2000/svg" version="1.1" width="256px" height="256px" style="shape-rendering:geometricPrecision; text-rendering:geometricPrecision; image-rendering:optimizeQuality; fill-rule:evenodd; clip-rule:evenodd" xmlns:xlink="http://www.w3.org/1999/xlink">
<g><path style="opacity:1" fill="#fdfdfd" d="M -0.5,-0.5 C 84.8333,-0.5 170.167,-0.5 255.5,-0.5C 255.5,84.8333 255.5,170.167 255.5,255.5C 170.167,255.5 84.8333,255.5 -0.5,255.5C -0.5,170.167 -0.5,84.8333 -0.5,-0.5 Z"/></g>
<g><path style="opacity:1" fill="#080808" d="M 181.5,57.5 C 201.77,55.5901 208.936,64.2568 203,83.5C 186.5,100 170,116.5 153.5,133C 144.077,139.105 133.744,141.605 122.5,140.5C 121.491,135.204 121.324,129.871 122,124.5C 124.139,118.888 126.806,113.554 130,108.5C 147.062,91.2711 164.228,74.2711 181.5,57.5 Z"/></g>
<g><path style="opacity:1" fill="#eeeeee" d="M 184.5,68.5 C 193.401,66.8931 196.234,70.2264 193,78.5C 177.833,93.6667 162.667,108.833 147.5,124C 143.266,126.912 138.6,128.745 133.5,129.5C 133.649,123.886 135.482,118.886 139,114.5C 154.368,99.2985 169.535,83.9652 184.5,68.5 Z"/></g>
<g><path style="opacity:1" fill="#101010" d="M 78.5,72.5 C 98.1695,72.3334 117.836,72.5 137.5,73C 141.085,75.5281 141.418,78.5281 138.5,82C 119.168,82.7111 99.8349,83.3777 80.5,84C 75.6667,86.1667 72.1667,89.6667 70,94.5C 69.3333,121.167 69.3333,147.833 70,174.5C 72.4973,176.478 75.3307,176.978 78.5,176C 82.4658,173.036 86.1325,169.703 89.5,166C 113.178,165.7 136.845,165.034 160.5,164C 164.612,162.221 167.778,159.388 170,155.5C 171.263,147.538 172.263,139.538 173,131.5C 175.925,128.941 178.925,128.941 182,131.5C 183.843,143.393 182.176,154.727 177,165.5C 172.842,170.327 167.675,173.494 161.5,175C 138.842,175.946 116.175,176.612 93.5,177C 85.6838,186.833 76.0171,189.5 64.5,185C 61.7692,182.374 59.9358,179.207 59,175.5C 58.3333,148.167 58.3333,120.833 59,93.5C 62.5998,83.736 69.0998,76.736 78.5,72.5 Z"/></g>
<g><path style="opacity:1" fill="#0b0b0b" d="M 83.5,107.5 C 90.8409,107.334 98.1742,107.5 105.5,108C 108.207,109.864 109.041,112.364 108,115.5C 104.091,116.796 99.9246,117.463 95.5,117.5C 91.5,117.333 87.5,117.167 83.5,117C 80.8881,113.836 80.8881,110.669 83.5,107.5 Z"/></g>
<g><path style="opacity:1" fill="#040404" d="M 82.5,131.5 C 90.84,131.334 99.1733,131.5 107.5,132C 108.602,134.401 108.769,136.901 108,139.5C 99.5592,140.815 91.0592,140.815 82.5,139.5C 81.2974,136.84 81.2974,134.173 82.5,131.5 Z"/></g>
</svg>
