<?xml version="1.0" encoding="UTF-8"?>
<!DOCTYPE svg PUBLIC "-//W3C//DTD SVG 1.1//EN" "http://www.w3.org/Graphics/SVG/1.1/DTD/svg11.dtd">
<svg xmlns="http://www.w3.org/2000/svg" version="1.1" width="192px" height="192px" style="shape-rendering:geometricPrecision; text-rendering:geometricPrecision; image-rendering:optimizeQuality; fill-rule:evenodd; clip-rule:evenodd" xmlns:xlink="http://www.w3.org/1999/xlink">
<g><path style="opacity:0.004" fill="#f2f9fe" d="M 26.5,-0.5 C 26.8333,-0.5 27.1667,-0.5 27.5,-0.5C 27.5,-0.166667 27.5,0.166667 27.5,0.5C 27.1667,0.166667 26.8333,-0.166667 26.5,-0.5 Z"/></g>
<g><path style="opacity:0.997" fill="#fcfcfc" d="M 30.5,-0.5 C 73.8333,-0.5 117.167,-0.5 160.5,-0.5C 161.932,1.64685 163.765,1.98018 166,0.5C 166.422,2.4257 167.589,3.4257 169.5,3.5C 171.355,4.6896 173.188,6.02294 175,7.5C 176.84,6.16686 177.34,6.33353 176.5,8C 179.732,11.0623 182.732,14.229 185.5,17.5C 186.326,20.4848 187.659,23.1515 189.5,25.5C 189.402,27.5529 190.069,29.2196 191.5,30.5C 191.5,73.8333 191.5,117.167 191.5,160.5C 189.545,162.668 188.879,165.002 189.5,167.5C 189.167,166.167 188.833,166.167 188.5,167.5C 187.662,167.842 187.328,168.508 187.5,169.5C 186.662,169.842 186.328,170.508 186.5,171.5C 185.662,171.842 185.328,172.508 185.5,173.5C 184.833,173.5 184.5,173.833 184.5,174.5C 183.833,174.5 183.5,174.833 183.5,175.5C 182.662,175.842 182.328,176.508 182.5,177.5C 181.833,177.5 181.5,177.833 181.5,178.5C 180.833,178.5 180.5,178.833 180.5,179.5C 179.833,179.5 179.5,179.833 179.5,180.5C 178.833,180.5 178.5,180.833 178.5,181.5C 177.833,181.5 177.5,181.833 177.5,182.5C 176.167,182.833 176.167,183.167 177.5,183.5C 177.158,184.338 176.492,184.672 175.5,184.5C 175.167,183.167 174.833,183.167 174.5,184.5C 173.833,184.5 173.5,184.833 173.5,185.5C 171.847,185.66 170.514,186.326 169.5,187.5C 168.508,187.328 167.842,187.662 167.5,188.5C 166.833,188.5 166.5,188.833 166.5,189.5C 165.209,189.263 164.209,189.596 163.5,190.5C 162.209,190.263 161.209,190.596 160.5,191.5C 116.833,191.5 73.1667,191.5 29.5,191.5C 28.3646,189.787 26.698,189.12 24.5,189.5C 22.6644,187.412 20.3311,186.079 17.5,185.5C 14.5624,183.066 11.7291,180.399 9,177.5C 7.33353,178.34 7.16686,177.84 8.5,176C 6.92975,174.603 5.59641,173.103 4.5,171.5C 4.67158,170.508 4.33825,169.842 3.5,169.5C 3.67158,168.508 3.33825,167.842 2.5,167.5C 2.16667,166.167 1.83333,166.167 1.5,167.5C 2.1212,165.002 1.45453,162.668 -0.5,160.5C -0.5,117.833 -0.5,75.1667 -0.5,32.5C 0.833333,32.1667 0.833333,31.8333 -0.5,31.5C -0.5,31.1667 -0.5,30.8333 -0.5,30.5C 0.338246,30.1583 0.67158,29.4916 0.5,28.5C 2.84865,21.8951 7.18198,15.3951 13.5,9C 12.6598,7.33353 13.1598,7.16686 15,8.5C 19.0101,5.42211 23.1768,2.75545 27.5,0.5C 28.791,0.737305 29.791,0.403972 30.5,-0.5 Z"/></g>
<g><path style="opacity:0.004" fill="#c4e3ff" d="M 162.5,-0.5 C 163.167,-0.5 163.833,-0.5 164.5,-0.5C 163.833,0.833333 163.167,0.833333 162.5,-0.5 Z"/></g>
<g><path style="opacity:0.004" fill="#caebff" d="M 169.5,3.5 C 169.897,2.47498 170.563,2.30831 171.5,3C 170.906,3.46434 170.239,3.63101 169.5,3.5 Z"/></g>
<g><path style="opacity:0.004" fill="#f5fefe" d="M 185.5,16.5 C 186.833,17.1667 186.833,17.1667 185.5,16.5 Z"/></g>
<g><path style="opacity:0.008" fill="#d7f0fe" d="M 189.5,25.5 C 189.369,24.7611 189.536,24.0944 190,23.5C 190.692,24.4368 190.525,25.1034 189.5,25.5 Z"/></g>
<g><path style="opacity:0.999" fill="#020202" d="M 151.5,25.5 C 170.501,24.6615 177.334,33.3281 172,51.5C 155.5,68 139,84.5 122.5,101C 113.184,107.579 102.851,110.246 91.5,109C 89.5044,104.729 89.0044,100.229 90,95.5C 91.8432,88.6464 94.8432,82.3131 99,76.5C 116.091,58.9065 133.591,41.9065 151.5,25.5 Z"/></g>
<g><path style="opacity:0.004" fill="#f1fcfe" d="M 191.5,26.5 C 191.5,26.8333 191.5,27.1667 191.5,27.5C 190.83,27.0187 190.83,26.6853 191.5,26.5 Z"/></g>
<g><path style="opacity:0.004" fill="#e7f5ff" d="M -0.5,26.5 C 0.338246,26.8417 0.67158,27.5084 0.5,28.5C 0.166667,28.5 -0.166667,28.5 -0.5,28.5C -0.5,27.8333 -0.5,27.1667 -0.5,26.5 Z"/></g>
<g><path style="opacity:1" fill="#f4f4f4" d="M 154.5,36.5 C 162.242,36.0629 164.742,39.3962 162,46.5C 147.167,61.3333 132.333,76.1667 117.5,91C 112.798,94.8509 107.465,97.3509 101.5,98.5C 102.348,92.1341 104.848,86.4674 109,81.5C 124.062,66.271 139.228,51.271 154.5,36.5 Z"/></g>
<g><path style="opacity:1" fill="#090909" d="M 50.5,40.5 C 68.8364,40.3334 87.1697,40.5001 105.5,41C 110.48,43.7964 110.814,47.1297 106.5,51C 88.1667,51.3333 69.8333,51.6667 51.5,52C 44.738,53.7633 40.238,57.9299 38,64.5C 37.3333,90.5 37.3333,116.5 38,142.5C 40.2103,145.29 43.0437,146.123 46.5,145C 50.7998,141.702 54.7998,138.035 58.5,134C 81.8333,133.667 105.167,133.333 128.5,133C 132.948,130.886 136.448,127.719 139,123.5C 140.231,115.911 140.897,108.244 141,100.5C 144.193,96.8679 147.527,96.8679 151,100.5C 152.499,111.242 151.165,121.575 147,131.5C 142.847,137.996 137.013,142.162 129.5,144C 107.167,144.333 84.8333,144.667 62.5,145C 57.5395,151.559 51.0395,155.393 43,156.5C 34.3553,156.185 29.0219,151.851 27,143.5C 26.3333,116.833 26.3333,90.1667 27,63.5C 30.7529,51.5796 38.5862,43.913 50.5,40.5 Z"/></g>
<g><path style="opacity:1" fill="#0a0a0a" d="M 52.5,75.5 C 59.5079,75.3337 66.5079,75.5004 73.5,76C 77.9255,78.5488 78.5921,81.8821 75.5,86C 67.8333,86.6667 60.1667,86.6667 52.5,86C 48.5519,82.4223 48.5519,78.9223 52.5,75.5 Z"/></g>
<g><path style="opacity:1" fill="#020202" d="M 52.5,99.5 C 60.1739,99.3336 67.8406,99.5003 75.5,100C 78.1667,103 78.1667,106 75.5,109C 67.5,109.667 59.5,109.667 51.5,109C 48.6749,105.476 49.0082,102.31 52.5,99.5 Z"/></g>
<g><path style="opacity:0.004" fill="#eaf2fd" d="M -0.5,163.5 C 0.833333,164.167 0.833333,164.167 -0.5,163.5 Z"/></g>
<g><path style="opacity:0.004" fill="#e8f1fc" d="M 191.5,163.5 C 191.5,163.833 191.5,164.167 191.5,164.5C 190.83,164.019 190.83,163.685 191.5,163.5 Z"/></g>
<g><path style="opacity:0.004" fill="#87a3ee" d="M 1.5,167.5 C 1.83333,167.5 2.16667,167.5 2.5,167.5C 2.5,168.167 2.5,168.833 2.5,169.5C 1.66175,169.158 1.32842,168.492 1.5,167.5 Z"/></g>
<g><path style="opacity:0.004" fill="#868aee" d="M 188.5,167.5 C 188.833,167.5 189.167,167.5 189.5,167.5C 189.672,168.492 189.338,169.158 188.5,169.5C 188.5,168.833 188.5,168.167 188.5,167.5 Z"/></g>
<g><path style="opacity:0.004" fill="#c2cff6" d="M 2.5,169.5 C 2.83333,169.5 3.16667,169.5 3.5,169.5C 3.5,170.167 3.5,170.833 3.5,171.5C 2.66175,171.158 2.32842,170.492 2.5,169.5 Z"/></g>
<g><path style="opacity:0.004" fill="#c1cef7" d="M 187.5,169.5 C 187.833,169.5 188.167,169.5 188.5,169.5C 188.672,170.492 188.338,171.158 187.5,171.5C 187.5,170.833 187.5,170.167 187.5,169.5 Z"/></g>
<g><path style="opacity:0.004" fill="#cce5f9" d="M 3.5,171.5 C 3.83333,171.5 4.16667,171.5 4.5,171.5C 4.31468,172.17 3.98135,172.17 3.5,171.5 Z"/></g>
<g><path style="opacity:0.004" fill="#c8e6f9" d="M 186.5,171.5 C 186.833,171.5 187.167,171.5 187.5,171.5C 187.315,172.17 186.981,172.17 186.5,171.5 Z"/></g>
<g><path style="opacity:0.004" fill="#d4e9fc" d="M 185.5,173.5 C 186.833,174.167 186.833,174.167 185.5,173.5 Z"/></g>
<g><path style="opacity:0.004" fill="#8fa7ec" d="M 184.5,174.5 C 184.833,174.5 185.167,174.5 185.5,174.5C 185.315,175.17 184.981,175.17 184.5,174.5 Z"/></g>
<g><path style="opacity:0.004" fill="#bad5f8" d="M 183.5,175.5 C 183.833,175.5 184.167,175.5 184.5,175.5C 184.672,176.492 184.338,177.158 183.5,177.5C 183.5,176.833 183.5,176.167 183.5,175.5 Z"/></g>
<g><path style="opacity:0.008" fill="#eff5fc" d="M 182.5,177.5 C 182.833,177.5 183.167,177.5 183.5,177.5C 183.315,178.17 182.981,178.17 182.5,177.5 Z"/></g>
<g><path style="opacity:0.008" fill="#eef6fd" d="M 181.5,178.5 C 181.833,178.5 182.167,178.5 182.5,178.5C 182.315,179.17 181.981,179.17 181.5,178.5 Z"/></g>
<g><path style="opacity:0.004" fill="#e3effb" d="M 180.5,179.5 C 180.833,179.5 181.167,179.5 181.5,179.5C 181.315,180.17 180.981,180.17 180.5,179.5 Z"/></g>
<g><path style="opacity:0.004" fill="#e4f0fc" d="M 179.5,180.5 C 179.833,180.5 180.167,180.5 180.5,180.5C 180.315,181.17 179.981,181.17 179.5,180.5 Z"/></g>
<g><path style="opacity:0.008" fill="#eff6fd" d="M 178.5,181.5 C 178.833,181.5 179.167,181.5 179.5,181.5C 179.315,182.17 178.981,182.17 178.5,181.5 Z"/></g>
<g><path style="opacity:0.008" fill="#eaf0fb" d="M 177.5,182.5 C 177.833,182.5 178.167,182.5 178.5,182.5C 178.315,183.17 177.981,183.17 177.5,182.5 Z"/></g>
<g><path style="opacity:0.004" fill="#8ba3eb" d="M 174.5,184.5 C 174.833,184.5 175.167,184.5 175.5,184.5C 175.315,185.17 174.981,185.17 174.5,184.5 Z"/></g>
<g><path style="opacity:0.004" fill="#dbeefd" d="M 17.5,185.5 C 16.8333,186.167 16.8333,186.167 17.5,185.5 Z"/></g>
<g><path style="opacity:0.004" fill="#d8e4f7" d="M 173.5,185.5 C 173.833,185.5 174.167,185.5 174.5,185.5C 174.315,186.17 173.981,186.17 173.5,185.5 Z"/></g>
<g><path style="opacity:0.004" fill="#dae7fa" d="M 173.5,186.5 C 172.833,187.167 172.833,187.167 173.5,186.5 Z"/></g>
<g><path style="opacity:0.004" fill="#9eb3f1" d="M 169.5,188.5 C 169.5,188.167 169.5,187.833 169.5,187.5C 172.167,187.833 172.167,188.167 169.5,188.5 Z"/></g>
<g><path style="opacity:0.004" fill="#8484f6" d="M 167.5,189.5 C 167.5,189.167 167.5,188.833 167.5,188.5C 168.167,188.5 168.833,188.5 169.5,188.5C 169.158,189.338 168.492,189.672 167.5,189.5 Z"/></g>
<g><path style="opacity:0.004" fill="#849eed" d="M 24.5,189.5 C 23.8333,190.167 23.8333,190.167 24.5,189.5 Z"/></g>
<g><path style="opacity:0.004" fill="#7c9dee" d="M 166.5,189.5 C 166.833,189.5 167.167,189.5 167.5,189.5C 167.315,190.17 166.981,190.17 166.5,189.5 Z"/></g>
<g><path style="opacity:0.004" fill="#f3f8fc" d="M 27.5,191.5 C 26.8333,190.167 26.8333,190.167 27.5,191.5 Z"/></g>
<g><path style="opacity:0.004" fill="#ebf2fd" d="M 163.5,190.5 C 164.167,190.5 164.5,190.833 164.5,191.5C 164.167,191.167 163.833,190.833 163.5,190.5 Z"/></g>
</svg>
