<?xml version="1.0" encoding="UTF-8"?>
<!DOCTYPE svg PUBLIC "-//W3C//DTD SVG 1.1//EN" "http://www.w3.org/Graphics/SVG/1.1/DTD/svg11.dtd">
<svg xmlns="http://www.w3.org/2000/svg" version="1.1" width="240px" height="324px" style="shape-rendering:geometricPrecision; text-rendering:geometricPrecision; image-rendering:optimizeQuality; fill-rule:evenodd; clip-rule:evenodd" xmlns:xlink="http://www.w3.org/1999/xlink">
<g><path style="opacity:0.557" fill="#59453e" d="M 178.5,61.5 C 182.379,66.7887 184.713,72.7887 185.5,79.5C 184.883,79.3893 184.383,79.056 184,78.5C 182.459,72.7117 180.626,67.045 178.5,61.5 Z"/></g>
<g><path style="opacity:1" fill="#626262" d="M 153.5,175.5 C 152.833,175.5 152.167,175.5 151.5,175.5C 148.543,174.345 145.543,173.345 142.5,172.5C 141.295,171.314 139.961,171.314 138.5,172.5C 135.983,170.265 132.983,168.765 129.5,168C 127.285,166.621 125.619,164.787 124.5,162.5C 124.334,154.493 124.5,146.493 125,138.5C 127.109,134.064 128.276,129.397 128.5,124.5C 129.648,119.57 130.315,114.57 130.5,109.5C 131.9,108.9 132.9,107.9 133.5,106.5C 136.802,97.6696 139.969,88.6696 143,79.5C 143.615,77.8839 144.615,76.5505 146,75.5C 152.541,84.1176 157.374,93.6176 160.5,104C 170.165,103.169 179.832,103.335 189.5,104.5C 192.531,95.2681 196.531,86.4347 201.5,78C 202.332,77.3123 202.998,77.479 203.5,78.5C 206.248,84.9121 208.082,91.5788 209,98.5C 210.723,111.126 212.056,123.792 213,136.5C 214.725,143.553 217.391,150.22 221,156.5C 222.165,160.684 220.665,163.517 216.5,165C 205.833,169 195.167,173 184.5,177C 174.079,177.741 163.745,177.241 153.5,175.5 Z"/></g>
<g><path style="opacity:1" fill="#d77b75" d="M 95.5,56.5 C 108.152,66.8195 120.152,77.8195 131.5,89.5C 132.965,92.2636 134.298,95.097 135.5,98C 134.383,100.731 133.717,103.565 133.5,106.5C 132.9,107.9 131.9,108.9 130.5,109.5C 130.315,114.57 129.648,119.57 128.5,124.5C 127.312,125.684 126.145,125.684 125,124.5C 119.939,115.711 115.439,106.711 111.5,97.5C 111.167,97.8333 110.833,98.1667 110.5,98.5C 114.66,109.655 119.994,120.155 126.5,130C 126.077,132.633 124.91,134.799 123,136.5C 110.495,127.506 103.662,115.172 102.5,99.5C 101.937,116.373 108.77,129.373 123,138.5C 123.667,141.833 123.667,145.167 123,148.5C 121.89,150.037 120.39,150.703 118.5,150.5C 111.408,143.846 104.575,136.846 98,129.5C 95.7694,123.725 94.6027,117.725 94.5,111.5C 94.1698,92.9924 94.5032,74.6591 95.5,56.5 Z"/></g>
<g><path style="opacity:1" fill="#9b5452" d="M 104.5,74.5 C 107.404,78.7479 110.737,82.7479 114.5,86.5C 112.804,86.3146 111.471,85.4813 110.5,84C 109.5,83.3333 108.5,83.3333 107.5,84C 106.718,86.7405 106.218,89.5738 106,92.5C 105.667,92.1667 105.333,91.8333 105,91.5C 103.905,85.9317 102.072,80.765 99.5,76C 99.2606,73.741 100.261,72.5743 102.5,72.5C 103.713,72.7472 104.38,73.4138 104.5,74.5 Z"/></g>
<g><path style="opacity:1" fill="#b2736f" d="M 95.5,56.5 C 94.5032,74.6591 94.1698,92.9924 94.5,111.5C 93.1724,92.9957 93.1724,74.329 94.5,55.5C 95.1067,55.6236 95.44,55.9569 95.5,56.5 Z"/></g>
<g><path style="opacity:1" fill="#d67a75" d="M 178.5,61.5 C 180.626,67.045 182.459,72.7117 184,78.5C 184.383,79.056 184.883,79.3893 185.5,79.5C 185.691,87.2011 185.358,94.8678 184.5,102.5C 176.833,102.5 169.167,102.5 161.5,102.5C 162.259,95.5411 164.092,88.8744 167,82.5C 169.081,81.6669 171.248,81.6669 173.5,82.5C 173.5,79.8333 173.5,77.1667 173.5,74.5C 170.003,75.0597 167.503,77.0597 166,80.5C 163.851,85.125 162.018,89.7917 160.5,94.5C 158.073,92.4924 157.073,89.8257 157.5,86.5C 158.262,80.9909 159.596,75.6576 161.5,70.5C 164.145,64.6754 167.812,59.5088 172.5,55C 173.784,54.3162 174.951,54.4829 176,55.5C 176.566,57.7226 177.4,59.7226 178.5,61.5 Z"/></g>
<g><path style="opacity:1" fill="#b77672" d="M 161.5,70.5 C 159.596,75.6576 158.262,80.9909 157.5,86.5C 157.073,89.8257 158.073,92.4924 160.5,94.5C 160.5,95.5 160.5,96.5 160.5,97.5C 157.519,94.5311 155.852,90.8645 155.5,86.5C 156.54,80.7022 158.54,75.3689 161.5,70.5 Z"/></g>
<g><path style="opacity:1" fill="#754746" d="M 104.5,74.5 C 107.056,75.5434 109.223,77.2101 111,79.5C 114.955,85.1233 119.288,90.4566 124,95.5C 126.982,99.7975 129.149,104.464 130.5,109.5C 125.919,101.347 120.585,93.6805 114.5,86.5C 110.737,82.7479 107.404,78.7479 104.5,74.5 Z"/></g>
<g><path style="opacity:0.404" fill="#504d47" d="M 178.5,61.5 C 177.4,59.7226 176.566,57.7226 176,55.5C 174.951,54.4829 173.784,54.3162 172.5,55C 167.812,59.5088 164.145,64.6754 161.5,70.5C 158.54,75.3689 156.54,80.7022 155.5,86.5C 155.852,90.8645 157.519,94.5311 160.5,97.5C 160.216,99.4147 160.549,101.081 161.5,102.5C 169.167,102.5 176.833,102.5 184.5,102.5C 185.167,102.5 185.833,102.5 186.5,102.5C 187.376,102.631 188.043,102.298 188.5,101.5C 191.82,92.6798 195.82,84.1798 200.5,76C 201.76,74.887 202.927,74.7203 204,75.5C 205.307,79.0897 206.807,82.5897 208.5,86C 211.225,103.086 213.392,120.253 215,137.5C 218.034,144.936 220.867,152.436 223.5,160C 223.355,161.226 223.022,162.393 222.5,163.5C 217.369,167.05 211.703,169.55 205.5,171C 204.868,173.415 203.868,175.582 202.5,177.5C 202.421,176.07 202.754,174.736 203.5,173.5C 202.667,173.167 201.833,172.833 201,172.5C 195.551,174.034 190.384,176.034 185.5,178.5C 178.833,178.5 172.167,178.5 165.5,178.5C 161.239,178.102 157.239,177.102 153.5,175.5C 163.745,177.241 174.079,177.741 184.5,177C 195.167,173 205.833,169 216.5,165C 220.665,163.517 222.165,160.684 221,156.5C 217.391,150.22 214.725,143.553 213,136.5C 212.056,123.792 210.723,111.126 209,98.5C 208.082,91.5788 206.248,84.9121 203.5,78.5C 202.998,77.479 202.332,77.3123 201.5,78C 196.531,86.4347 192.531,95.2681 189.5,104.5C 179.832,103.335 170.165,103.169 160.5,104C 157.374,93.6176 152.541,84.1176 146,75.5C 144.615,76.5505 143.615,77.8839 143,79.5C 139.969,88.6696 136.802,97.6696 133.5,106.5C 133.717,103.565 134.383,100.731 135.5,98C 134.298,95.097 132.965,92.2636 131.5,89.5C 133.453,90.6258 134.953,92.2925 136,94.5C 137.498,86.5084 140.831,79.5084 146,73.5C 149.748,76.2669 152.414,79.9336 154,84.5C 157.809,71.708 164.475,60.708 174,51.5C 177.114,53.9729 178.614,57.3063 178.5,61.5 Z"/></g>
<g><path style="opacity:0.969" fill="#6d4844" d="M 185.5,79.5 C 186.719,82.4212 187.386,85.5879 187.5,89C 186.836,93.4786 186.502,97.9786 186.5,102.5C 185.833,102.5 185.167,102.5 184.5,102.5C 185.358,94.8678 185.691,87.2011 185.5,79.5 Z"/></g>
<g><path style="opacity:1" fill="#804c4b" d="M 161.5,102.5 C 160.549,101.081 160.216,99.4147 160.5,97.5C 160.5,96.5 160.5,95.5 160.5,94.5C 162.018,89.7917 163.851,85.125 166,80.5C 167.503,77.0597 170.003,75.0597 173.5,74.5C 173.5,77.1667 173.5,79.8333 173.5,82.5C 171.248,81.6669 169.081,81.6669 167,82.5C 164.092,88.8744 162.259,95.5411 161.5,102.5 Z"/></g>
<g><path style="opacity:1" fill="#83514e" d="M 128.5,124.5 C 128.276,129.397 127.109,134.064 125,138.5C 124.5,146.493 124.334,154.493 124.5,162.5C 123.834,159.642 123.167,156.642 122.5,153.5C 120.918,155.015 119.584,156.681 118.5,158.5C 118.5,157.833 118.5,157.167 118.5,156.5C 119.641,154.451 119.641,152.451 118.5,150.5C 120.39,150.703 121.89,150.037 123,148.5C 123.667,145.167 123.667,141.833 123,138.5C 108.77,129.373 101.937,116.373 102.5,99.5C 103.662,115.172 110.495,127.506 123,136.5C 124.91,134.799 126.077,132.633 126.5,130C 119.994,120.155 114.66,109.655 110.5,98.5C 110.833,98.1667 111.167,97.8333 111.5,97.5C 115.439,106.711 119.939,115.711 125,124.5C 126.145,125.684 127.312,125.684 128.5,124.5 Z"/></g>
<g><path style="opacity:0.655" fill="#615043" d="M 131.5,89.5 C 120.152,77.8195 108.152,66.8195 95.5,56.5C 95.44,55.9569 95.1067,55.6236 94.5,55.5C 93.1724,74.329 93.1724,92.9957 94.5,111.5C 94.6027,117.725 95.7694,123.725 98,129.5C 104.575,136.846 111.408,143.846 118.5,150.5C 110.965,145.476 104.132,139.476 98,132.5C 94.4509,126.305 92.4509,119.638 92,112.5C 91.4915,92.6347 91.6581,72.9681 92.5,53.5C 105.909,62.7142 118.409,73.3809 130,85.5C 130.791,86.745 131.291,88.0783 131.5,89.5 Z"/></g>
<g><path style="opacity:1" fill="#626262" d="M 127.5,180.5 C 129.262,181.262 130.262,182.596 130.5,184.5C 140.434,200.279 152.767,214.112 167.5,226C 169.167,226.667 170.833,226.667 172.5,226C 175.562,222.031 178.229,217.864 180.5,213.5C 183.588,208.32 186.922,203.32 190.5,198.5C 192.451,197.718 193.951,196.384 195,194.5C 195.921,191.664 197.088,188.998 198.5,186.5C 199.524,227.344 200.691,268.344 202,309.5C 203.667,311.833 205.333,314.167 207,316.5C 207.497,318.81 207.663,321.143 207.5,323.5C 170.167,323.5 132.833,323.5 95.5,323.5C 92.9137,315.75 91.9137,307.75 92.5,299.5C 96.1337,259.194 103.8,219.694 115.5,181C 117.082,177.149 118.582,173.316 120,169.5C 122.029,173.58 124.529,177.246 127.5,180.5 Z"/></g>
<g><path style="opacity:1" fill="#5c4240" d="M 202.5,177.5 C 201.841,180.455 201.508,183.455 201.5,186.5C 200.528,183.902 199.528,183.902 198.5,186.5C 197.088,188.998 195.921,191.664 195,194.5C 193.951,196.384 192.451,197.718 190.5,198.5C 194.573,191.455 198.573,184.455 202.5,177.5 Z"/></g>
<g><path style="opacity:1" fill="#7e4f4d" d="M 142.5,172.5 C 141.761,172.369 141.094,172.536 140.5,173C 146.622,183.786 154.789,192.619 165,199.5C 175.006,195.184 183.673,188.851 191,180.5C 191.667,181.167 191.667,181.833 191,182.5C 183.616,190.562 175.116,197.062 165.5,202C 167.272,203.487 169.272,203.82 171.5,203C 174.311,201.356 176.644,199.19 178.5,196.5C 178.833,196.667 179.167,196.833 179.5,197C 177.182,201.161 173.848,203.994 169.5,205.5C 163.394,202.915 158.227,198.915 154,193.5C 148.23,186.904 143.063,179.904 138.5,172.5C 139.961,171.314 141.295,171.314 142.5,172.5 Z"/></g>
<g><path style="opacity:1" fill="#d67b75" d="M 124.5,162.5 C 125.619,164.787 127.285,166.621 129.5,168C 132.983,168.765 135.983,170.265 138.5,172.5C 143.063,179.904 148.23,186.904 154,193.5C 158.227,198.915 163.394,202.915 169.5,205.5C 173.848,203.994 177.182,201.161 179.5,197C 179.167,196.833 178.833,196.667 178.5,196.5C 176.644,199.19 174.311,201.356 171.5,203C 169.272,203.82 167.272,203.487 165.5,202C 175.116,197.062 183.616,190.562 191,182.5C 191.667,181.833 191.667,181.167 191,180.5C 183.673,188.851 175.006,195.184 165,199.5C 154.789,192.619 146.622,183.786 140.5,173C 141.094,172.536 141.761,172.369 142.5,172.5C 145.543,173.345 148.543,174.345 151.5,175.5C 155.944,182.612 161.944,187.945 169.5,191.5C 172.034,190.727 174.368,189.727 176.5,188.5C 180.212,185.789 183.212,182.456 185.5,178.5C 190.384,176.034 195.551,174.034 201,172.5C 201.833,172.833 202.667,173.167 203.5,173.5C 202.754,174.736 202.421,176.07 202.5,177.5C 198.573,184.455 194.573,191.455 190.5,198.5C 186.922,203.32 183.588,208.32 180.5,213.5C 177.399,216.835 174.399,220.335 171.5,224C 169.365,224.635 167.365,224.301 165.5,223C 153.229,210.57 141.562,197.736 130.5,184.5C 130.262,182.596 129.262,181.262 127.5,180.5C 125.28,175.728 122.78,171.062 120,166.5C 118.921,163.937 118.421,161.271 118.5,158.5C 119.584,156.681 120.918,155.015 122.5,153.5C 123.167,156.642 123.834,159.642 124.5,162.5 Z"/></g>
<g><path style="opacity:1" fill="#694442" d="M 165.5,178.5 C 172.167,178.5 178.833,178.5 185.5,178.5C 183.212,182.456 180.212,185.789 176.5,188.5C 175.761,188.631 175.094,188.464 174.5,188C 177.167,185.333 179.833,182.667 182.5,180C 176.652,179.827 170.985,179.327 165.5,178.5 Z"/></g>
<g><path style="opacity:1" fill="#a05454" d="M 151.5,175.5 C 152.167,175.5 152.833,175.5 153.5,175.5C 157.239,177.102 161.239,178.102 165.5,178.5C 170.985,179.327 176.652,179.827 182.5,180C 179.833,182.667 177.167,185.333 174.5,188C 175.094,188.464 175.761,188.631 176.5,188.5C 174.368,189.727 172.034,190.727 169.5,191.5C 161.944,187.945 155.944,182.612 151.5,175.5 Z"/></g>
<g><path style="opacity:0.812" fill="#544847" d="M 130.5,184.5 C 141.562,197.736 153.229,210.57 165.5,223C 167.365,224.301 169.365,224.635 171.5,224C 174.399,220.335 177.399,216.835 180.5,213.5C 178.229,217.864 175.562,222.031 172.5,226C 170.833,226.667 169.167,226.667 167.5,226C 152.767,214.112 140.434,200.279 130.5,184.5 Z"/></g>
<g><path style="opacity:1" fill="#544d41" d="M 118.5,156.5 C 118.5,157.167 118.5,157.833 118.5,158.5C 118.421,161.271 118.921,163.937 120,166.5C 122.78,171.062 125.28,175.728 127.5,180.5C 124.529,177.246 122.029,173.58 120,169.5C 118.582,173.316 117.082,177.149 115.5,181C 103.8,219.694 96.1337,259.194 92.5,299.5C 91.5206,302.625 91.1872,305.958 91.5,309.5C 87.8333,309.5 84.1667,309.5 80.5,309.5C 83.6248,308.521 86.9581,308.187 90.5,308.5C 90.69,290.336 92.5233,272.336 96,254.5C 100.646,224.569 108.146,195.402 118.5,167C 117.833,165.333 117.167,163.667 116.5,162C 117.615,160.765 117.615,159.598 116.5,158.5C 116.855,157.478 117.522,156.811 118.5,156.5 Z"/></g>
<g><path style="opacity:0.938" fill="#4d4b45" d="M 201.5,186.5 C 201.292,224.843 201.792,263.176 203,301.5C 203.333,304.167 203.667,306.833 204,309.5C 208.336,313.173 210.169,317.84 209.5,323.5C 208.833,323.5 208.167,323.5 207.5,323.5C 207.663,321.143 207.497,318.81 207,316.5C 205.333,314.167 203.667,311.833 202,309.5C 200.691,268.344 199.524,227.344 198.5,186.5C 199.528,183.902 200.528,183.902 201.5,186.5 Z"/></g>
<g><path style="opacity:1" fill="#504d49" d="M 80.5,309.5 C 84.1667,309.5 87.8333,309.5 91.5,309.5C 91.1872,305.958 91.5206,302.625 92.5,299.5C 91.9137,307.75 92.9137,315.75 95.5,323.5C 94.8333,323.5 94.1667,323.5 93.5,323.5C 92.2697,319.386 91.2697,315.22 90.5,311C 73.5927,310.972 56.926,311.972 40.5,314C 44.7139,309.454 48.5473,304.621 52,299.5C 58.3062,287.369 54.8062,281.535 41.5,282C 37.301,286.899 33.4676,292.066 30,297.5C 25.967,301.868 21.6337,305.868 17,309.5C 15.6211,314.036 15.1211,318.703 15.5,323.5C 14.8333,323.5 14.1667,323.5 13.5,323.5C 13.2764,319.796 13.1097,316.129 13,312.5C 16.6667,307.5 21,303.167 26,299.5C 30.6233,293.087 35.1233,286.587 39.5,280C 46.7449,278.634 52.5783,280.801 57,286.5C 56.6435,295.227 53.4768,302.894 47.5,309.5C 58.4304,309.653 69.4304,309.653 80.5,309.5 Z"/></g>
<g><path style="opacity:1" fill="#626262" d="M 93.5,323.5 C 67.5,323.5 41.5,323.5 15.5,323.5C 15.1211,318.703 15.6211,314.036 17,309.5C 21.6337,305.868 25.967,301.868 30,297.5C 33.4676,292.066 37.301,286.899 41.5,282C 54.8062,281.535 58.3062,287.369 52,299.5C 48.5473,304.621 44.7139,309.454 40.5,314C 56.926,311.972 73.5927,310.972 90.5,311C 91.2697,315.22 92.2697,319.386 93.5,323.5 Z"/></g>
</svg>
