<?xml version="1.0" encoding="UTF-8"?>
<!DOCTYPE svg PUBLIC "-//W3C//DTD SVG 1.1//EN" "http://www.w3.org/Graphics/SVG/1.1/DTD/svg11.dtd">
<svg xmlns="http://www.w3.org/2000/svg" version="1.1" width="256px" height="256px" style="shape-rendering:geometricPrecision; text-rendering:geometricPrecision; image-rendering:optimizeQuality; fill-rule:evenodd; clip-rule:evenodd" xmlns:xlink="http://www.w3.org/1999/xlink">
<g><path style="opacity:0.998" fill="#fdfdfd" d="M 44.5,-0.5 C 99.8333,-0.5 155.167,-0.5 210.5,-0.5C 212.167,0.833333 213.833,0.833333 215.5,-0.5C 216.833,-0.5 218.167,-0.5 219.5,-0.5C 224.27,2.74815 228.936,6.08148 233.5,9.5C 233.5,10.1667 233.833,10.5 234.5,10.5C 234.842,11.3382 235.508,11.6716 236.5,11.5C 236.5,12.1667 236.833,12.5 237.5,12.5C 237.5,13.1667 237.833,13.5 238.5,13.5C 238.5,14.1667 238.833,14.5 239.5,14.5C 239.5,15.1667 239.833,15.5 240.5,15.5C 240.5,16.1667 240.833,16.5 241.5,16.5C 241.5,17.1667 241.833,17.5 242.5,17.5C 242.328,18.4916 242.662,19.1583 243.5,19.5C 243.5,20.1667 243.833,20.5 244.5,20.5C 244.5,21.1667 244.833,21.5 245.5,21.5C 247.847,24.8611 249.681,28.5277 251,32.5C 251.333,31.5 251.667,30.5 252,29.5C 253.663,31.1579 254.496,33.1579 254.5,35.5C 253.167,36.8333 253.167,38.1667 254.5,39.5C 254.216,41.4147 254.549,43.0813 255.5,44.5C 255.5,99.8333 255.5,155.167 255.5,210.5C 254.549,211.919 254.216,213.585 254.5,215.5C 253.566,216.568 253.232,217.901 253.5,219.5C 252.662,219.842 252.328,220.508 252.5,221.5C 251.833,221.5 251.5,221.833 251.5,222.5C 250.596,223.209 250.263,224.209 250.5,225.5C 249.662,225.842 249.328,226.508 249.5,227.5C 248.662,227.842 248.328,228.508 248.5,229.5C 247.833,229.5 247.5,229.833 247.5,230.5C 246.662,230.842 246.328,231.508 246.5,232.5C 245.833,232.5 245.5,232.833 245.5,233.5C 244.833,233.5 244.5,233.833 244.5,234.5C 243.662,234.842 243.328,235.508 243.5,236.5C 242.833,236.5 242.5,236.833 242.5,237.5C 241.833,237.5 241.5,237.833 241.5,238.5C 240.833,238.5 240.5,238.833 240.5,239.5C 239.833,239.5 239.5,239.833 239.5,240.5C 238.833,240.5 238.5,240.833 238.5,241.5C 237.833,241.5 237.5,241.833 237.5,242.5C 236.833,242.5 236.5,242.833 236.5,243.5C 235.508,243.328 234.842,243.662 234.5,244.5C 233.833,244.5 233.5,244.833 233.5,245.5C 232.833,245.5 232.5,245.833 232.5,246.5C 231.833,246.5 231.5,246.833 231.5,247.5C 230.508,247.328 229.842,247.662 229.5,248.5C 228.508,248.328 227.842,248.662 227.5,249.5C 226.508,249.328 225.842,249.662 225.5,250.5C 223.62,250.229 222.287,250.896 221.5,252.5C 220.508,252.328 219.842,252.662 219.5,253.5C 217.901,253.232 216.568,253.566 215.5,254.5C 213.585,254.216 211.919,254.549 210.5,255.5C 155.167,255.5 99.8333,255.5 44.5,255.5C 42.7354,254.539 40.7354,254.205 38.5,254.5C 37.791,253.596 36.791,253.263 35.5,253.5C 35.1583,252.662 34.4916,252.328 33.5,252.5C 32.713,250.896 31.3797,250.229 29.5,250.5C 26.8695,248.847 24.2028,247.181 21.5,245.5C 21.5,244.833 21.1667,244.5 20.5,244.5C 20.1583,243.662 19.4916,243.328 18.5,243.5C 18.5,242.833 18.1667,242.5 17.5,242.5C 17.5,241.833 17.1667,241.5 16.5,241.5C 16.5,240.833 16.1667,240.5 15.5,240.5C 15.5,239.833 15.1667,239.5 14.5,239.5C 14.5,238.833 14.1667,238.5 13.5,238.5C 13.5,237.833 13.1667,237.5 12.5,237.5C 12.6716,236.508 12.3382,235.842 11.5,235.5C 11.5,234.833 11.1667,234.5 10.5,234.5C 10.5,233.833 10.1667,233.5 9.5,233.5C 9.06795,232.29 8.40128,231.29 7.5,230.5C 6.24305,227.904 5.07638,225.237 4,222.5C 3.66667,223.5 3.33333,224.5 3,225.5C 1.33747,223.842 0.504141,221.842 0.5,219.5C 1.83333,218.167 1.83333,216.833 0.5,215.5C 0.784479,213.585 0.451145,211.919 -0.5,210.5C -0.5,155.167 -0.5,99.8333 -0.5,44.5C 0.451145,43.0813 0.784479,41.4147 0.5,39.5C 1.40397,38.791 1.73731,37.791 1.5,36.5C 2.40397,35.791 2.73731,34.791 2.5,33.5C 3.16667,33.5 3.5,33.1667 3.5,32.5C 5.21553,28.7399 7.21553,25.0732 9.5,21.5C 10.1667,21.5 10.5,21.1667 10.5,20.5C 11.3382,20.1583 11.6716,19.4916 11.5,18.5C 12.1667,18.5 12.5,18.1667 12.5,17.5C 13.1667,17.5 13.5,17.1667 13.5,16.5C 14.1667,16.5 14.5,16.1667 14.5,15.5C 15.1667,15.5 15.5,15.1667 15.5,14.5C 16.1667,14.5 16.5,14.1667 16.5,13.5C 17.1667,13.5 17.5,13.1667 17.5,12.5C 18.4916,12.6716 19.1583,12.3382 19.5,11.5C 20.1667,11.5 20.5,11.1667 20.5,10.5C 21.1667,10.5 21.5,10.1667 21.5,9.5C 24.3013,8.26535 26.9679,6.76535 29.5,5C 28.8333,4.66667 28.1667,4.33333 27.5,4C 30.3788,1.04555 33.7121,0.212219 37.5,1.5C 40.0288,1.07113 42.3621,0.404459 44.5,-0.5 Z"/></g>
<g><path style="opacity:0.008" fill="#ebf7fe" d="M 21.5,9.5 C 20.8333,9.5 20.5,9.83333 20.5,10.5C 19.8333,10.5 19.5,10.8333 19.5,11.5C 18.5084,11.3284 17.8417,11.6618 17.5,12.5C 16.8333,12.5 16.5,12.8333 16.5,13.5C 15.8333,13.5 15.5,13.8333 15.5,14.5C 14.8333,14.5 14.5,14.8333 14.5,15.5C 14.1667,15.5 13.8333,15.5 13.5,15.5C 15.049,11.4426 17.7157,9.4426 21.5,9.5 Z"/></g>
<g><path style="opacity:0.006" fill="#e5f6fe" d="M 233.5,9.5 C 234.251,8.42654 235.251,8.25988 236.5,9C 240.393,12.39 243.727,16.2233 246.5,20.5C 246.376,21.1067 246.043,21.44 245.5,21.5C 244.833,21.5 244.5,21.1667 244.5,20.5C 243.833,20.5 243.5,20.1667 243.5,19.5C 243.672,18.5084 243.338,17.8417 242.5,17.5C 241.833,17.5 241.5,17.1667 241.5,16.5C 240.833,16.5 240.5,16.1667 240.5,15.5C 239.833,15.5 239.5,15.1667 239.5,14.5C 238.833,14.5 238.5,14.1667 238.5,13.5C 237.833,13.5 237.5,13.1667 237.5,12.5C 236.833,12.5 236.5,12.1667 236.5,11.5C 236.158,10.6618 235.492,10.3284 234.5,10.5C 233.833,10.5 233.5,10.1667 233.5,9.5 Z"/></g>
<g><path style="opacity:0.012" fill="#e9f7fe" d="M 13.5,15.5 C 13.5,15.8333 13.5,16.1667 13.5,16.5C 12.8333,16.5 12.5,16.8333 12.5,17.5C 11.8333,17.5 11.5,17.8333 11.5,18.5C 10.6618,18.8417 10.3284,19.5084 10.5,20.5C 9.83333,20.5 9.5,20.8333 9.5,21.5C 8.55333,18.3803 9.88666,16.3803 13.5,15.5 Z"/></g>
<g><path style="opacity:0.008" fill="#d7effe" d="M 3.5,32.5 C 2.83333,32.5 2.5,32.8333 2.5,33.5C 1.59603,34.209 1.26269,35.209 1.5,36.5C 0.596028,37.209 0.262695,38.209 0.5,39.5C 0.166667,39.5 -0.166667,39.5 -0.5,39.5C -0.5,38.1667 -0.5,36.8333 -0.5,35.5C 0.374833,33.4319 1.5415,31.4319 3,29.5C 3.48278,30.448 3.64945,31.448 3.5,32.5 Z"/></g>
<g><path style="opacity:1" fill="#050505" d="M 228.5,70.5 C 207.5,90.8333 186.833,111.5 166.5,132.5C 154.101,142.91 139.767,147.41 123.5,146C 120.171,144.154 118.837,141.321 119.5,137.5C 120.196,121.561 126.029,107.895 137,96.5C 155.833,77.6667 174.667,58.8333 193.5,40C 206.43,30.5631 218.264,31.7297 229,43.5C 233.767,52.6149 233.6,61.6149 228.5,70.5 Z"/></g>
<g><path style="opacity:0.004" fill="#edf6fe" d="M 254.5,35.5 C 254.833,35.5 255.167,35.5 255.5,35.5C 255.5,36.8333 255.5,38.1667 255.5,39.5C 255.167,39.5 254.833,39.5 254.5,39.5C 254.5,38.1667 254.5,36.8333 254.5,35.5 Z"/></g>
<g><path style="opacity:1" fill="#f7f7f7" d="M 206.5,48.5 C 218.197,48.5644 221.031,53.5644 215,63.5C 196.833,81.6667 178.667,99.8333 160.5,118C 153.453,124.88 145.12,129.38 135.5,131.5C 136.316,124.53 138.816,118.197 143,112.5C 164.368,91.2986 185.535,69.9653 206.5,48.5 Z"/></g>
<g><path style="opacity:0.999" fill="#030303" d="M 67.5,54.5 C 91.5023,54.3334 115.502,54.5 139.5,55C 148.499,59.0177 148.832,63.6843 140.5,69C 116.167,69.3333 91.8333,69.6667 67.5,70C 58.1568,73.3435 52.3235,79.8435 50,89.5C 49.0143,123.252 49.3477,156.919 51,190.5C 53.4119,193.792 56.5786,194.959 60.5,194C 66.7921,189.377 72.7921,184.377 78.5,179C 109.881,178.97 141.214,178.304 172.5,177C 178.667,174.167 183.167,169.667 186,163.5C 187.193,153.883 187.859,144.216 188,134.5C 190.981,130.304 194.814,129.471 199.5,132C 200.126,132.75 200.626,133.584 201,134.5C 201.667,144.167 201.667,153.833 201,163.5C 196.197,179.97 185.363,189.803 168.5,193C 140.167,193.333 111.833,193.667 83.5,194C 77.9887,199.853 71.6553,204.52 64.5,208C 50.6072,210.805 41.1072,205.638 36,192.5C 35.3333,156.5 35.3333,120.5 36,84.5C 40.8914,68.4382 51.3914,58.4382 67.5,54.5 Z"/></g>
<g><path style="opacity:0.999" fill="#020202" d="M 70.5,101.5 C 80.1724,101.334 89.8391,101.5 99.5,102C 105.839,105.735 106.172,110.069 100.5,115C 90.1667,115.667 79.8333,115.667 69.5,115C 65.3053,110.044 65.6386,105.544 70.5,101.5 Z"/></g>
<g><path style="opacity:0.988" fill="#cacaca" d="M 228.5,70.5 C 209.087,91.4153 189.087,111.915 168.5,132C 167.906,132.464 167.239,132.631 166.5,132.5C 186.833,111.5 207.5,90.8333 228.5,70.5 Z"/></g>
<g><path style="opacity:0.999" fill="#020202" d="M 70.5,132.5 C 80.1724,132.334 89.8391,132.5 99.5,133C 105.839,136.735 106.172,141.069 100.5,146C 90.1667,146.667 79.8333,146.667 69.5,146C 65.3053,141.044 65.6386,136.544 70.5,132.5 Z"/></g>
<g><path style="opacity:0.004" fill="#ebecfc" d="M -0.5,215.5 C -0.166667,215.5 0.166667,215.5 0.5,215.5C 0.5,216.833 0.5,218.167 0.5,219.5C 0.166667,219.5 -0.166667,219.5 -0.5,219.5C -0.5,218.167 -0.5,216.833 -0.5,215.5 Z"/></g>
<g><path style="opacity:0.004" fill="#eaecfc" d="M 254.5,215.5 C 254.833,215.5 255.167,215.5 255.5,215.5C 255.5,216.833 255.5,218.167 255.5,219.5C 255.167,219.5 254.833,219.5 254.5,219.5C 254.5,218.167 254.5,216.833 254.5,215.5 Z"/></g>
<g><path style="opacity:0.004" fill="#bbd0f7" d="M 253.5,219.5 C 253.833,219.5 254.167,219.5 254.5,219.5C 254.539,222.089 253.539,224.089 251.5,225.5C 251.5,224.5 251.5,223.5 251.5,222.5C 252.167,222.5 252.5,222.167 252.5,221.5C 253.338,221.158 253.672,220.492 253.5,219.5 Z"/></g>
<g><path style="opacity:0.004" fill="#adc1f4" d="M 250.5,225.5 C 250.833,225.5 251.167,225.5 251.5,225.5C 251.672,226.492 251.338,227.158 250.5,227.5C 250.5,226.833 250.5,226.167 250.5,225.5 Z"/></g>
<g><path style="opacity:0.004" fill="#cce1fa" d="M 249.5,227.5 C 249.833,227.5 250.167,227.5 250.5,227.5C 250.672,228.492 250.338,229.158 249.5,229.5C 249.5,228.833 249.5,228.167 249.5,227.5 Z"/></g>
<g><path style="opacity:0.004" fill="#aebdef" d="M 248.5,229.5 C 248.833,229.5 249.167,229.5 249.5,229.5C 249.315,230.17 248.981,230.17 248.5,229.5 Z"/></g>
<g><path style="opacity:0.004" fill="#cfe4fc" d="M 7.5,230.5 C 7.63101,231.239 7.46434,231.906 7,232.5C 6.30831,231.563 6.47498,230.897 7.5,230.5 Z"/></g>
<g><path style="opacity:0.004" fill="#c3defa" d="M 247.5,230.5 C 247.833,230.5 248.167,230.5 248.5,230.5C 248.672,231.492 248.338,232.158 247.5,232.5C 247.5,231.833 247.5,231.167 247.5,230.5 Z"/></g>
<g><path style="opacity:0.008" fill="#869ced" d="M 246.5,232.5 C 246.833,232.5 247.167,232.5 247.5,232.5C 247.315,233.17 246.981,233.17 246.5,232.5 Z"/></g>
<g><path style="opacity:0.004" fill="#dfe8fa" d="M 245.5,233.5 C 245.833,233.5 246.167,233.5 246.5,233.5C 245.946,237.055 243.946,239.388 240.5,240.5C 240.5,240.167 240.5,239.833 240.5,239.5C 241.167,239.5 241.5,239.167 241.5,238.5C 242.167,238.5 242.5,238.167 242.5,237.5C 243.167,237.5 243.5,237.167 243.5,236.5C 244.338,236.158 244.672,235.492 244.5,234.5C 245.167,234.5 245.5,234.167 245.5,233.5 Z"/></g>
<g><path style="opacity:0.004" fill="#d7e1fa" d="M 9.5,233.5 C 10.1667,233.5 10.5,233.833 10.5,234.5C 11.1667,234.5 11.5,234.833 11.5,235.5C 11.3284,236.492 11.6618,237.158 12.5,237.5C 13.1667,237.5 13.5,237.833 13.5,238.5C 14.1667,238.5 14.5,238.833 14.5,239.5C 14.5,239.833 14.5,240.167 14.5,240.5C 11.6296,239.472 9.62956,237.472 8.5,234.5C 8.62358,233.893 8.95691,233.56 9.5,233.5 Z"/></g>
<g><path style="opacity:0.004" fill="#dbe9fb" d="M 14.5,240.5 C 14.8333,240.5 15.1667,240.5 15.5,240.5C 16.1667,240.5 16.5,240.833 16.5,241.5C 17.1667,241.5 17.5,241.833 17.5,242.5C 18.1667,242.5 18.5,242.833 18.5,243.5C 18.8417,244.338 19.5084,244.672 20.5,244.5C 21.1667,244.5 21.5,244.833 21.5,245.5C 18.0105,246.079 15.6772,244.413 14.5,240.5 Z"/></g>
<g><path style="opacity:0.004" fill="#cad9f8" d="M 239.5,240.5 C 239.833,240.5 240.167,240.5 240.5,240.5C 239.388,243.946 237.055,245.946 233.5,246.5C 233.5,246.167 233.5,245.833 233.5,245.5C 234.167,245.5 234.5,245.167 234.5,244.5C 235.492,244.672 236.158,244.338 236.5,243.5C 237.167,243.5 237.5,243.167 237.5,242.5C 238.167,242.5 238.5,242.167 238.5,241.5C 239.167,241.5 239.5,241.167 239.5,240.5 Z"/></g>
<g><path style="opacity:0.008" fill="#a2aceb" d="M 232.5,246.5 C 232.833,246.5 233.167,246.5 233.5,246.5C 233.315,247.17 232.981,247.17 232.5,246.5 Z"/></g>
<g><path style="opacity:0.004" fill="#d7e6f8" d="M 231.5,247.5 C 231.833,247.5 232.167,247.5 232.5,247.5C 232.315,248.17 231.981,248.17 231.5,247.5 Z"/></g>
<g><path style="opacity:0.004" fill="#d0e0f9" d="M 229.5,249.5 C 229.5,249.167 229.5,248.833 229.5,248.5C 230.167,248.5 230.833,248.5 231.5,248.5C 231.158,249.338 230.492,249.672 229.5,249.5 Z"/></g>
<g><path style="opacity:0.004" fill="#bbd1f6" d="M 227.5,250.5 C 227.5,250.167 227.5,249.833 227.5,249.5C 228.167,249.5 228.833,249.5 229.5,249.5C 229.158,250.338 228.492,250.672 227.5,250.5 Z"/></g>
<g><path style="opacity:0.008" fill="#a8c1f6" d="M 29.5,250.5 C 30.5137,251.674 31.847,252.34 33.5,252.5C 33.8417,253.338 34.5084,253.672 35.5,253.5C 35.5,253.833 35.5,254.167 35.5,254.5C 32.4842,254.159 29.8175,252.993 27.5,251C 28.0944,250.536 28.7611,250.369 29.5,250.5 Z"/></g>
<g><path style="opacity:0.004" fill="#a1bcf4" d="M 225.5,250.5 C 226.167,250.5 226.833,250.5 227.5,250.5C 225.421,252.873 222.754,254.206 219.5,254.5C 219.5,254.167 219.5,253.833 219.5,253.5C 220.492,253.672 221.158,253.338 221.5,252.5C 223.153,252.34 224.486,251.674 225.5,250.5 Z"/></g>
<g><path style="opacity:0.004" fill="#f2fbfd" d="M 35.5,255.5 C 35.5,255.167 35.5,254.833 35.5,254.5C 36.5,254.5 37.5,254.5 38.5,254.5C 38.5,254.833 38.5,255.167 38.5,255.5C 37.5,255.5 36.5,255.5 35.5,255.5 Z"/></g>
<g><path style="opacity:0.008" fill="#dee0f8" d="M 215.5,255.5 C 215.5,255.167 215.5,254.833 215.5,254.5C 216.833,254.5 218.167,254.5 219.5,254.5C 219.5,254.833 219.5,255.167 219.5,255.5C 218.167,255.5 216.833,255.5 215.5,255.5 Z"/></g>
</svg>
