<?xml version="1.0" encoding="UTF-8"?>
<!DOCTYPE svg PUBLIC "-//W3C//DTD SVG 1.1//EN" "http://www.w3.org/Graphics/SVG/1.1/DTD/svg11.dtd">
<svg xmlns="http://www.w3.org/2000/svg" version="1.1" width="1280px" height="1280px" style="shape-rendering:geometricPrecision; text-rendering:geometricPrecision; image-rendering:optimizeQuality; fill-rule:evenodd; clip-rule:evenodd" xmlns:xlink="http://www.w3.org/1999/xlink">
<g><path style="opacity:0.008" fill="#f1faff" d="M 201.5,-0.5 C 205.5,-0.5 209.5,-0.5 213.5,-0.5C 212.878,1.33501 211.544,2.50167 209.5,3C 206.518,3.49796 203.518,3.66463 200.5,3.5C 200.833,2.16667 201.167,0.833333 201.5,-0.5 Z"/></g>
<g><path style="opacity:1" fill="#fefefe" d="M 253.5,-0.5 C 514.167,-0.5 774.833,-0.5 1035.5,-0.5C 1040.65,0.326691 1045.98,0.826691 1051.5,1C 1053,2.11453 1054.67,2.94787 1056.5,3.5C 1057.39,4.32496 1057.72,5.32496 1057.5,6.5C 1063.51,6.33385 1069.51,6.50051 1075.5,7C 1076.38,7.7083 1077.05,8.54163 1077.5,9.5C 1079.62,12.5172 1082.28,13.1839 1085.5,11.5C 1088.13,12.0916 1090.79,12.4249 1093.5,12.5C 1093.97,13.9063 1094.97,14.573 1096.5,14.5C 1096.41,15.4959 1096.75,16.3292 1097.5,17C 1101.82,17.499 1106.15,17.6657 1110.5,17.5C 1110.5,17.8333 1110.5,18.1667 1110.5,18.5C 1108.15,19.1103 1108.48,19.4437 1111.5,19.5C 1111.5,19.8333 1111.5,20.1667 1111.5,20.5C 1111.5,21.1667 1111.83,21.5 1112.5,21.5C 1112.5,22.1667 1112.83,22.5 1113.5,22.5C 1113.84,23.3382 1114.51,23.6716 1115.5,23.5C 1115.5,23.8333 1115.5,24.1667 1115.5,24.5C 1117.61,25.4682 1119.94,25.8016 1122.5,25.5C 1123.12,27.1216 1124.12,28.4549 1125.5,29.5C 1128.01,29.8046 1130.67,29.9713 1133.5,30C 1136.21,30.8747 1137.55,32.7081 1137.5,35.5C 1140.5,35.5 1143.5,35.5 1146.5,35.5C 1144.85,38.8594 1145.85,40.8594 1149.5,41.5C 1152.42,43.0725 1155.08,45.0725 1157.5,47.5C 1157.37,48.3764 1157.7,49.0431 1158.5,49.5C 1159.42,48.8728 1160.42,48.5394 1161.5,48.5C 1161.83,48.5 1162.17,48.5 1162.5,48.5C 1162.98,50.9171 1163.98,53.0838 1165.5,55C 1167.07,55.765 1168.4,55.5983 1169.5,54.5C 1171.89,55.2925 1173.89,56.6258 1175.5,58.5C 1175.33,59.4916 1175.66,60.1583 1176.5,60.5C 1178.2,60.3398 1179.87,60.5065 1181.5,61C 1183.28,63.9447 1185.61,66.4447 1188.5,68.5C 1189.39,69.325 1189.72,70.325 1189.5,71.5C 1190.68,71.281 1191.68,71.6143 1192.5,72.5C 1196.83,77.5 1201.5,82.1667 1206.5,86.5C 1207.39,87.325 1207.72,88.325 1207.5,89.5C 1208.82,89.33 1209.99,89.6634 1211,90.5C 1212.66,93.3271 1213.83,96.3271 1214.5,99.5C 1215.93,100.341 1217.26,101.341 1218.5,102.5C 1218.5,103.5 1218.5,104.5 1218.5,105.5C 1220.14,106.473 1221.47,107.806 1222.5,109.5C 1223.3,113.301 1225.63,115.301 1229.5,115.5C 1229.03,118.082 1229.69,120.082 1231.5,121.5C 1233.79,124.452 1236.45,127.118 1239.5,129.5C 1241.94,133.153 1243.61,137.153 1244.5,141.5C 1245.43,140.359 1246.26,140.359 1247,141.5C 1249,144.5 1249.84,147.833 1249.5,151.5C 1249.5,152.833 1250.17,153.5 1251.5,153.5C 1252.82,152.15 1253.82,152.317 1254.5,154C 1253.26,157.314 1253.26,160.481 1254.5,163.5C 1254.33,164.492 1254.66,165.158 1255.5,165.5C 1255.83,165.5 1256.17,165.5 1256.5,165.5C 1256.5,166.167 1256.83,166.5 1257.5,166.5C 1257.5,167.167 1257.83,167.5 1258.5,167.5C 1258.53,171.63 1259.2,175.63 1260.5,179.5C 1262.29,179.215 1263.95,179.548 1265.5,180.5C 1264.78,185.476 1264.11,190.476 1263.5,195.5C 1264.7,198.648 1266.7,200.982 1269.5,202.5C 1270.17,202.833 1270.83,203.167 1271.5,203.5C 1272.22,207.7 1272.89,212.033 1273.5,216.5C 1273.01,217.446 1272.68,218.446 1272.5,219.5C 1274.92,221.752 1276.75,224.419 1278,227.5C 1278.17,235.011 1278.67,242.345 1279.5,249.5C 1279.5,510.167 1279.5,770.833 1279.5,1031.5C 1278.67,1037.99 1278.17,1044.65 1278,1051.5C 1277.12,1054.59 1275.29,1056.92 1272.5,1058.5C 1273.13,1064.53 1272.8,1070.53 1271.5,1076.5C 1270.83,1076.83 1270.17,1077.17 1269.5,1077.5C 1268.85,1077.8 1268.18,1078.14 1267.5,1078.5C 1266.51,1082.45 1266.18,1086.45 1266.5,1090.5C 1265.81,1094.79 1266.81,1098.46 1269.5,1101.5C 1269.5,1103.5 1269.5,1105.5 1269.5,1107.5C 1267.22,1107.08 1265.55,1107.74 1264.5,1109.5C 1263.52,1109.19 1262.86,1108.52 1262.5,1107.5C 1264.07,1106.02 1265.41,1104.35 1266.5,1102.5C 1266.04,1101.7 1265.38,1101.37 1264.5,1101.5C 1263.83,1100.17 1263.17,1100.17 1262.5,1101.5C 1261.53,1103.95 1261.19,1106.61 1261.5,1109.5C 1261.17,1109.5 1260.83,1109.5 1260.5,1109.5C 1259.83,1109.5 1259.5,1109.83 1259.5,1110.5C 1259.5,1110.83 1259.5,1111.17 1259.5,1111.5C 1259.17,1111.5 1258.83,1111.5 1258.5,1111.5C 1257.83,1111.5 1257.5,1111.83 1257.5,1112.5C 1255.5,1113.17 1254.17,1114.5 1253.5,1116.5C 1253.32,1119.4 1253.65,1122.23 1254.5,1125C 1253.82,1126.68 1252.82,1126.85 1251.5,1125.5C 1249.85,1125.66 1248.51,1126.33 1247.5,1127.5C 1246.52,1127.81 1245.86,1128.48 1245.5,1129.5C 1247.02,1132.76 1246.35,1135.43 1243.5,1137.5C 1243.5,1139.17 1243.5,1140.83 1243.5,1142.5C 1242.26,1143.66 1240.93,1144.66 1239.5,1145.5C 1238.19,1146.47 1237.53,1147.8 1237.5,1149.5C 1235.93,1152.42 1233.93,1155.08 1231.5,1157.5C 1228.51,1157.42 1227.85,1158.59 1229.5,1161C 1228.04,1164.57 1225.37,1166.4 1221.5,1166.5C 1221.55,1168.9 1221.22,1171.24 1220.5,1173.5C 1220.5,1174.17 1220.5,1174.83 1220.5,1175.5C 1219.51,1175.33 1218.84,1175.66 1218.5,1176.5C 1218.66,1178.2 1218.49,1179.87 1218,1181.5C 1215.06,1183.28 1212.56,1185.61 1210.5,1188.5C 1209.68,1189.39 1208.68,1189.72 1207.5,1189.5C 1207.72,1190.68 1207.39,1191.68 1206.5,1192.5C 1201.5,1196.83 1196.83,1201.5 1192.5,1206.5C 1191.68,1207.39 1190.68,1207.72 1189.5,1207.5C 1189.72,1208.68 1189.39,1209.68 1188.5,1210.5C 1185.61,1212.56 1183.28,1215.06 1181.5,1218C 1179.87,1218.49 1178.2,1218.66 1176.5,1218.5C 1175.66,1218.84 1175.33,1219.51 1175.5,1220.5C 1174.83,1220.5 1174.17,1220.5 1173.5,1220.5C 1172.66,1220.84 1172.33,1221.51 1172.5,1222.5C 1171.5,1222.5 1170.5,1222.5 1169.5,1222.5C 1166.94,1224.64 1164.61,1226.97 1162.5,1229.5C 1161.5,1229.5 1160.5,1229.5 1159.5,1229.5C 1158.96,1232.04 1157.96,1234.37 1156.5,1236.5C 1153.87,1236.95 1151.54,1237.95 1149.5,1239.5C 1147.07,1239.27 1145.4,1240.27 1144.5,1242.5C 1142.62,1243.34 1140.62,1243.67 1138.5,1243.5C 1137.17,1243.5 1136.5,1244.17 1136.5,1245.5C 1133.78,1245.4 1131.11,1245.73 1128.5,1246.5C 1126.82,1246.87 1125.82,1247.87 1125.5,1249.5C 1125.42,1250.75 1124.76,1251.58 1123.5,1252C 1124.79,1252.49 1126.13,1252.66 1127.5,1252.5C 1127.13,1253.69 1126.3,1254.36 1125,1254.5C 1122.68,1253.31 1120.51,1253.31 1118.5,1254.5C 1115.57,1253.3 1113.57,1254.3 1112.5,1257.5C 1111.83,1257.5 1111.5,1257.83 1111.5,1258.5C 1111.5,1259.83 1112.17,1260.5 1113.5,1260.5C 1112.05,1262.99 1110.88,1262.65 1110,1259.5C 1108.25,1261.25 1106.08,1261.92 1103.5,1261.5C 1100.67,1259.97 1099.34,1260.97 1099.5,1264.5C 1092.75,1263.88 1086.41,1264.54 1080.5,1266.5C 1078.86,1266.81 1077.86,1267.81 1077.5,1269.5C 1076.83,1270.17 1076.17,1270.83 1075.5,1271.5C 1070.02,1272.49 1064.36,1272.82 1058.5,1272.5C 1058.44,1271.96 1058.11,1271.62 1057.5,1271.5C 1055.48,1273.17 1053.14,1273.84 1050.5,1273.5C 1050.17,1275.32 1049.5,1276.99 1048.5,1278.5C 1043.64,1278.18 1038.97,1278.51 1034.5,1279.5C 771.167,1279.5 507.833,1279.5 244.5,1279.5C 239.36,1278.51 234.026,1278.18 228.5,1278.5C 228.5,1277.17 228.5,1275.83 228.5,1274.5C 226.167,1274.5 223.833,1274.5 221.5,1274.5C 219.012,1272.61 216.012,1271.95 212.5,1272.5C 207.125,1272.83 201.792,1272.49 196.5,1271.5C 192.595,1267.16 187.595,1265.49 181.5,1266.5C 179.925,1264.89 179.259,1262.89 179.5,1260.5C 177.901,1260.23 176.568,1260.57 175.5,1261.5C 172.921,1261.92 170.754,1261.25 169,1259.5C 168.623,1260.94 167.79,1261.94 166.5,1262.5C 166.167,1261.83 165.833,1261.17 165.5,1260.5C 166.833,1260.5 167.5,1259.83 167.5,1258.5C 167.5,1257.83 167.167,1257.5 166.5,1257.5C 165.655,1254.59 163.988,1253.59 161.5,1254.5C 159.153,1253.28 156.653,1253.28 154,1254.5C 152.699,1254.36 151.866,1253.69 151.5,1252.5C 153.548,1252.84 154.548,1252.51 154.5,1251.5C 154.321,1249.39 153.321,1247.73 151.5,1246.5C 147.88,1246.1 144.547,1245.1 141.5,1243.5C 139.833,1243.5 138.167,1243.5 136.5,1243.5C 135.341,1242.26 134.341,1240.93 133.5,1239.5C 132.533,1238.19 131.199,1237.53 129.5,1237.5C 126.583,1235.93 123.916,1233.93 121.5,1231.5C 117.634,1229.97 114.301,1227.64 111.5,1224.5C 109.525,1220.44 106.525,1218.77 102.5,1219.5C 101.048,1218.7 99.3817,1218.2 97.5,1218C 95.0585,1214.72 92.3919,1211.55 89.5,1208.5C 84.8067,1203.81 79.8067,1199.47 74.5,1195.5C 73.2055,1193.67 72.2055,1191.67 71.5,1189.5C 70.1779,1189.67 69.0113,1189.34 68,1188.5C 66.7286,1185.52 65.562,1182.52 64.5,1179.5C 63.4549,1178.12 62.1216,1177.12 60.5,1176.5C 60.5,1175.5 60.5,1174.5 60.5,1173.5C 58.471,1170.47 55.8044,1168.14 52.5,1166.5C 51.8933,1166.62 51.56,1166.96 51.5,1167.5C 50.391,1167.44 49.391,1167.11 48.5,1166.5C 47.1667,1166.5 45.8333,1166.5 44.5,1166.5C 44.5,1165.5 44.5,1164.5 44.5,1163.5C 45.6521,1162.17 46.6521,1160.67 47.5,1159C 45.6061,1155.64 43.6061,1152.47 41.5,1149.5C 40.8594,1145.85 38.8594,1144.85 35.5,1146.5C 35.5,1143.5 35.5,1140.5 35.5,1137.5C 31.8997,1136.68 29.8997,1134.35 29.5,1130.5C 32.1667,1129.5 32.1667,1128.5 29.5,1127.5C 29.5299,1126.5 29.0299,1125.84 28,1125.5C 26.6996,1126.45 25.533,1126.45 24.5,1125.5C 25.7883,1122.03 25.7883,1118.7 24.5,1115.5C 23.5,1114.5 22.5,1113.5 21.5,1112.5C 21.5,1111.83 21.1667,1111.5 20.5,1111.5C 20.1667,1111.5 19.8333,1111.5 19.5,1111.5C 19.1667,1107.5 18.8333,1107.5 18.5,1111.5C 18.1667,1111.5 17.8333,1111.5 17.5,1111.5C 17.5,1107.83 17.5,1104.17 17.5,1100.5C 16.209,1100.26 15.209,1100.6 14.5,1101.5C 13.6236,1101.37 12.9569,1101.7 12.5,1102.5C 13.3636,1104.2 14.6969,1105.36 16.5,1106C 14.7408,1107.76 14.5742,1109.93 16,1112.5C 16.7083,1113.38 17.5416,1114.05 18.5,1114.5C 18.8333,1115.5 19.5,1116.17 20.5,1116.5C 20.5,1117.83 20.5,1119.17 20.5,1120.5C 18.5328,1120.74 16.6995,1120.41 15,1119.5C 16.5219,1112.2 13.6886,1108.87 6.5,1109.5C 7.07145,1108.03 7.07145,1106.36 6.5,1104.5C 7.40397,1103.79 7.73731,1102.79 7.5,1101.5C 6.16667,1101.5 4.83333,1101.5 3.5,1101.5C 2.88258,1101.39 2.38258,1101.06 2,1100.5C 0.978038,1095.1 1.47804,1089.93 3.5,1085C 3.16389,1083.97 2.49722,1083.47 1.5,1083.5C 1.6596,1081.85 2.32627,1080.51 3.5,1079.5C 5.1004,1081.41 6.43373,1083.58 7.5,1086C 6.77409,1088.69 7.44076,1091.19 9.5,1093.5C 7.55364,1095.58 7.55364,1097.91 9.5,1100.5C 10.4776,1100.02 11.3109,1099.36 12,1098.5C 12.4974,1095.85 12.6641,1093.19 12.5,1090.5C 12.6653,1086.82 12.4986,1083.15 12,1079.5C 10.6004,1077.26 8.76703,1075.6 6.5,1074.5C 6.25933,1069.51 6.25933,1064.68 6.5,1060C 6.13821,1058.57 5.47154,1057.4 4.5,1056.5C 4.41912,1053.49 3.08578,1051.49 0.5,1050.5C 0.5,1047.17 0.5,1043.83 0.5,1040.5C 3.16667,1039.83 3.16667,1039.17 0.5,1038.5C 0.816751,1034.3 0.483418,1030.3 -0.5,1026.5C -0.5,768.167 -0.5,509.833 -0.5,251.5C 0.32923,243.677 0.82923,235.677 1,227.5C 2.11815,225.242 3.61815,223.242 5.5,221.5C 6.16677,215.346 6.83343,209.346 7.5,203.5C 11.9577,200.374 13.6244,196.041 12.5,190.5C 12.5,188.5 12.5,186.5 12.5,184.5C 13.1667,184.167 13.8333,183.833 14.5,183.5C 15.9063,183.027 16.573,182.027 16.5,180.5C 17.0842,176.137 18.0842,171.804 19.5,167.5C 19.8333,167.5 20.1667,167.5 20.5,167.5C 21.1667,167.5 21.5,167.167 21.5,166.5C 22.1667,166.5 22.5,166.167 22.5,165.5C 22.8333,165.5 23.1667,165.5 23.5,165.5C 24.3382,165.158 24.6716,164.492 24.5,163.5C 25.7445,160.481 25.7445,157.314 24.5,154C 24.8333,153.5 25.1667,153 25.5,152.5C 26.891,153.645 28.2243,153.645 29.5,152.5C 29.6759,150.328 29.8425,147.995 30,145.5C 30.8747,142.785 32.7081,141.452 35.5,141.5C 35.5,138.833 35.5,136.167 35.5,133.5C 38.9694,134.113 40.9694,132.779 41.5,129.5C 43.3957,126.572 45.3957,123.572 47.5,120.5C 46.8586,118.185 45.5253,116.519 43.5,115.5C 43.5,114.5 43.5,113.5 43.5,112.5C 44.8333,112.5 46.1667,112.5 47.5,112.5C 47.56,113.043 47.8933,113.376 48.5,113.5C 50.0147,111.918 51.6814,110.584 53.5,109.5C 53.9567,111.557 54.9567,111.557 56.5,109.5C 57.1667,107.5 57.8333,105.5 58.5,103.5C 59.4916,103.672 60.1583,103.338 60.5,102.5C 60.2978,100.011 60.7978,97.6775 62,95.5C 62.414,95.9574 62.914,96.2907 63.5,96.5C 65.4133,94.7089 67.08,92.7089 68.5,90.5C 69.325,89.6143 70.325,89.281 71.5,89.5C 71.281,88.325 71.6143,87.325 72.5,86.5C 77.5,82.1667 82.1667,77.5 86.5,72.5C 87.325,71.6143 88.325,71.281 89.5,71.5C 89.33,70.1779 89.6634,69.0113 90.5,68C 93.4844,66.7286 96.4844,65.562 99.5,64.5C 100.674,63.4863 101.34,62.153 101.5,60.5C 103.415,60.7845 105.081,60.4511 106.5,59.5C 107.401,58.7095 108.068,57.7095 108.5,56.5C 109.627,55.8783 110.627,55.045 111.5,54C 110.464,52.2245 110.464,50.3911 111.5,48.5C 113.219,47.9779 114.552,46.9779 115.5,45.5C 120.242,48.7304 123.908,47.7304 126.5,42.5C 127.689,41.5713 129.022,41.238 130.5,41.5C 132.969,40.3933 133.969,38.3933 133.5,35.5C 136.024,35.957 138.691,35.957 141.5,35.5C 141.452,32.7081 142.785,30.8747 145.5,30C 147.441,29.2571 149.274,29.4238 151,30.5C 154.333,28.2933 154,26.6266 150,25.5C 147.676,26.6932 145.51,26.6932 143.5,25.5C 143.5,23.5 143.5,21.5 143.5,19.5C 145.772,18.6814 148.106,18.0147 150.5,17.5C 151.241,19.3542 152.241,21.0209 153.5,22.5C 153.062,22.4346 152.728,22.6012 152.5,23C 155.447,25.1642 158.781,25.9975 162.5,25.5C 164.5,24.8333 165.833,23.5 166.5,21.5C 167.167,21.5 167.5,21.1667 167.5,20.5C 167.5,19.8333 167.833,19.5 168.5,19.5C 169.167,19.5 169.5,19.1667 169.5,18.5C 169.5,18.1667 169.5,17.8333 169.5,17.5C 171.5,17.5 173.5,17.5 175.5,17.5C 176.568,18.4345 177.901,18.7678 179.5,18.5C 179.5,17.1667 179.5,15.8333 179.5,14.5C 186.159,14.9538 192.826,15.2871 199.5,15.5C 199.433,14.0413 199.766,12.7079 200.5,11.5C 201.5,10.1667 202.5,8.83333 203.5,7.5C 209.346,6.83343 215.346,6.16677 221.5,5.5C 223.021,3.37863 225.021,1.87863 227.5,1C 236.343,0.829591 245.01,0.329591 253.5,-0.5 Z M 164.5,18.5 C 163.19,20.1477 161.857,21.8144 160.5,23.5C 161.243,24.1818 161.909,24.8485 162.5,25.5C 158.781,25.9975 155.447,25.1642 152.5,23C 152.728,22.6012 153.062,22.4346 153.5,22.5C 155.38,22.7709 156.713,22.1042 157.5,20.5C 159.772,19.6814 162.106,19.0147 164.5,18.5 Z M 17.5,1111.5 C 18.1098,1112.39 18.4431,1113.39 18.5,1114.5C 17.5416,1114.05 16.7083,1113.38 16,1112.5C 14.5742,1109.93 14.7408,1107.76 16.5,1106C 14.6969,1105.36 13.3636,1104.2 12.5,1102.5C 12.9569,1101.7 13.6236,1101.37 14.5,1101.5C 15.209,1100.6 16.209,1100.26 17.5,1100.5C 17.5,1104.17 17.5,1107.83 17.5,1111.5 Z M 18.5,1114.5 C 19.8333,1114.5 20.5,1115.17 20.5,1116.5C 19.5,1116.17 18.8333,1115.5 18.5,1114.5 Z"/></g>
<g><path style="opacity:0.012" fill="#e3f2fe" d="M 191.5,1.5 C 192.287,3.10422 193.62,3.77089 195.5,3.5C 194.71,4.79423 193.71,5.9609 192.5,7C 189.964,7.33921 187.464,7.83921 185,8.5C 182.398,7.76848 179.898,8.26848 177.5,10C 181.498,12.7954 185.831,13.2954 190.5,11.5C 193.698,12.7 197.031,12.7 200.5,11.5C 199.766,12.7079 199.433,14.0413 199.5,15.5C 192.826,15.2871 186.159,14.9538 179.5,14.5C 179.5,15.8333 179.5,17.1667 179.5,18.5C 177.901,18.7678 176.568,18.4345 175.5,17.5C 176.492,17.6716 177.158,17.3382 177.5,16.5C 175.451,16.2942 175.117,15.4609 176.5,14C 172.882,13.034 169.549,13.534 166.5,15.5C 167.005,16.9185 168.005,17.5852 169.5,17.5C 169.5,17.8333 169.5,18.1667 169.5,18.5C 169.167,18.5 168.833,18.5 168.5,18.5C 167.391,18.4431 166.391,18.1098 165.5,17.5C 164.794,16.4427 164.461,16.7761 164.5,18.5C 162.106,19.0147 159.772,19.6814 157.5,20.5C 155.615,18.9468 154.615,16.9468 154.5,14.5C 155.866,12.6495 157.533,12.3162 159.5,13.5C 164.224,8.90102 169.891,6.56769 176.5,6.5C 176.297,4.60963 176.963,3.10963 178.5,2C 182.821,1.50098 187.154,1.33432 191.5,1.5 Z M 177.5,16.5 C 177.158,17.3382 176.492,17.6716 175.5,17.5C 173.5,17.5 171.5,17.5 169.5,17.5C 168.005,17.5852 167.005,16.9185 166.5,15.5C 169.549,13.534 172.882,13.034 176.5,14C 175.117,15.4609 175.451,16.2942 177.5,16.5 Z"/></g>
<g><path style="opacity:0.004" fill="#55acff" d="M 191.5,-0.5 C 194.833,-0.5 198.167,-0.5 201.5,-0.5C 201.167,0.833333 200.833,2.16667 200.5,3.5C 198.833,3.5 197.167,3.5 195.5,3.5C 193.62,3.77089 192.287,3.10422 191.5,1.5C 191.5,0.833333 191.5,0.166667 191.5,-0.5 Z"/></g>
<g><path style="opacity:0.004" fill="#248cfc" d="M 1097.5,3.5 C 1099.97,3.08824 1101.31,4.08824 1101.5,6.5C 1100.17,6.5 1098.83,6.5 1097.5,6.5C 1097.5,5.5 1097.5,4.5 1097.5,3.5 Z"/></g>
<g><path style="opacity:0.045" fill="#1b18fd" d="M 203.5,7.5 C 202.5,8.83333 201.5,10.1667 200.5,11.5C 197.031,12.7 193.698,12.7 190.5,11.5C 194.516,8.48974 198.849,7.1564 203.5,7.5 Z"/></g>
<g><path style="opacity:0.037" fill="#2a1ef9" d="M 1085.5,11.5 C 1082.28,13.1839 1079.62,12.5172 1077.5,9.5C 1078.16,8.72225 1078.99,8.05558 1080,7.5C 1081.25,9.70576 1083.08,11.0391 1085.5,11.5 Z"/></g>
<g><path style="opacity:0.009" fill="#e4f4fe" d="M 1065.5,-0.5 C 1070.17,-0.5 1074.83,-0.5 1079.5,-0.5C 1084.75,1.2923 1090.41,2.12563 1096.5,2C 1097.06,2.38258 1097.39,2.88258 1097.5,3.5C 1097.5,4.5 1097.5,5.5 1097.5,6.5C 1098.83,6.5 1100.17,6.5 1101.5,6.5C 1104.97,6.41833 1108.63,6.91833 1112.5,8C 1116.52,11.1913 1121.19,13.0246 1126.5,13.5C 1126.5,14.8333 1126.5,16.1667 1126.5,17.5C 1129.63,17.6997 1132.63,18.3664 1135.5,19.5C 1135.22,21.4147 1135.55,23.0813 1136.5,24.5C 1135.87,25.9468 1134.7,26.6134 1133,26.5C 1129.09,24.517 1126.59,25.517 1125.5,29.5C 1124.12,28.4549 1123.12,27.1216 1122.5,25.5C 1126.1,24.0949 1126.26,22.4283 1123,20.5C 1120.16,20.1447 1117.32,20.1447 1114.5,20.5C 1113.5,20.5 1112.5,20.5 1111.5,20.5C 1111.5,20.1667 1111.5,19.8333 1111.5,19.5C 1111.5,18.8333 1111.17,18.5 1110.5,18.5C 1110.5,18.1667 1110.5,17.8333 1110.5,17.5C 1112.24,15.3943 1111.74,14.061 1109,13.5C 1104.79,13.5629 1100.63,13.5629 1096.5,13.5C 1096.5,12.8333 1096.17,12.5 1095.5,12.5C 1095.95,11.5416 1096.62,10.7083 1097.5,10C 1095.46,8.25885 1093.29,8.09218 1091,9.5C 1088.49,7.84471 1085.66,7.01138 1082.5,7C 1081.5,6 1080.5,5 1079.5,4C 1076.17,3.66667 1072.83,3.33333 1069.5,3C 1067.46,2.50167 1066.12,1.33501 1065.5,-0.5 Z"/></g>
<g><path style="opacity:0.012" fill="#0117dd" d="M 1093.5,12.5 C 1094.17,12.5 1094.83,12.5 1095.5,12.5C 1096.17,12.5 1096.5,12.8333 1096.5,13.5C 1096.5,13.8333 1096.5,14.1667 1096.5,14.5C 1094.97,14.573 1093.97,13.9063 1093.5,12.5 Z"/></g>
<g><path style="opacity:0.012" fill="#74cafe" d="M 154.5,14.5 C 154.615,16.9468 155.615,18.9468 157.5,20.5C 156.713,22.1042 155.38,22.7709 153.5,22.5C 152.241,21.0209 151.241,19.3542 150.5,17.5C 151.795,16.5116 153.128,15.5116 154.5,14.5 Z"/></g>
<g><path style="opacity:0.012" fill="#528afd" d="M 165.5,17.5 C 166.391,18.1098 167.391,18.4431 168.5,18.5C 168.5,18.8333 168.5,19.1667 168.5,19.5C 167.833,19.5 167.5,19.8333 167.5,20.5C 165.776,20.4607 165.443,20.794 166.5,21.5C 165.833,23.5 164.5,24.8333 162.5,25.5C 161.909,24.8485 161.243,24.1818 160.5,23.5C 161.857,21.8144 163.19,20.1477 164.5,18.5C 165.167,18.5 165.5,18.1667 165.5,17.5 Z"/></g>
<g><path style="opacity:0.008" fill="#695efa" d="M 1114.5,20.5 C 1118.85,21.7155 1119.18,23.0488 1115.5,24.5C 1115.5,24.1667 1115.5,23.8333 1115.5,23.5C 1115.16,22.6618 1114.49,22.3284 1113.5,22.5C 1112.83,22.5 1112.5,22.1667 1112.5,21.5C 1113.49,21.6716 1114.16,21.3382 1114.5,20.5 Z"/></g>
<g><path style="opacity:0.004" fill="#72cafe" d="M 143.5,19.5 C 143.5,21.5 143.5,23.5 143.5,25.5C 142.5,24.1667 141.5,24.1667 140.5,25.5C 138.273,24.5994 137.273,22.9328 137.5,20.5C 139.5,20.1667 141.5,19.8333 143.5,19.5 Z"/></g>
<g><path style="opacity:0.004" fill="#75cffe" d="M 1135.5,19.5 C 1137.5,19.8333 1139.5,20.1667 1141.5,20.5C 1142.08,23.285 1141.08,24.9517 1138.5,25.5C 1137.83,25.1667 1137.17,24.8333 1136.5,24.5C 1135.55,23.0813 1135.22,21.4147 1135.5,19.5 Z"/></g>
<g><path style="opacity:0.013" fill="#e1f5fe" d="M 1141.5,20.5 C 1146.23,23.2125 1148.9,27.2125 1149.5,32.5C 1145.77,32.8226 1142.11,32.4892 1138.5,31.5C 1137.18,29.4684 1137.18,27.4684 1138.5,25.5C 1141.08,24.9517 1142.08,23.285 1141.5,20.5 Z"/></g>
<g><path style="opacity:0.006" fill="#daf1fe" d="M 137.5,20.5 C 137.273,22.9328 138.273,24.5994 140.5,25.5C 141.819,27.4684 141.819,29.4684 140.5,31.5C 137.572,32.4841 134.572,32.8174 131.5,32.5C 131.5,33.5 131.5,34.5 131.5,35.5C 130.449,36.2223 129.782,37.2223 129.5,38.5C 126.45,37.9232 124.45,39.0899 123.5,42C 120.854,42.4974 118.187,42.6641 115.5,42.5C 115.5,43.5 115.5,44.5 115.5,45.5C 114.552,46.9779 113.219,47.9779 111.5,48.5C 106.408,51.2556 102.742,55.2556 100.5,60.5C 99.8333,60.5 99.5,60.8333 99.5,61.5C 96.3915,61.2641 93.3915,61.5975 90.5,62.5C 89.8676,60.2574 88.5342,58.5907 86.5,57.5C 88.4605,54.6138 91.1271,52.6138 94.5,51.5C 95.451,52.3256 96.451,52.4922 97.5,52C 98.1466,50.3905 98.98,48.8905 100,47.5C 100.333,47.8333 100.667,48.1667 101,48.5C 104.039,47.4686 106.539,45.6353 108.5,43C 110.345,41.872 112.345,41.372 114.5,41.5C 114.297,39.6096 114.963,38.1096 116.5,37C 118.81,36.5034 121.143,36.3367 123.5,36.5C 123.238,35.0222 123.571,33.6888 124.5,32.5C 126.833,31 129.167,29.5 131.5,28C 132.866,26.4002 133.866,24.5668 134.5,22.5C 135.265,21.3881 136.265,20.7214 137.5,20.5 Z"/></g>
<g><path style="opacity:0.024" fill="#5db3fe" d="M 131.5,35.5 C 132.167,35.5 132.833,35.5 133.5,35.5C 133.969,38.3933 132.969,40.3933 130.5,41.5C 131.815,40.1054 131.481,39.1054 129.5,38.5C 129.782,37.2223 130.449,36.2223 131.5,35.5 Z"/></g>
<g><path style="opacity:0.055" fill="#4396fc" d="M 1146.5,35.5 C 1146.83,35.5 1147.17,35.5 1147.5,35.5C 1148.17,36.5 1148.83,37.5 1149.5,38.5C 1148.17,39.5 1148.17,40.5 1149.5,41.5C 1145.85,40.8594 1144.85,38.8594 1146.5,35.5 Z"/></g>
<g><path style="opacity:0.009" fill="#d6effe" d="M 1187.5,52.5 C 1186.47,54.5168 1185.47,56.5168 1184.5,58.5C 1181.77,57.0167 1178.93,55.6833 1176,54.5C 1175.23,54.6448 1174.56,54.9781 1174,55.5C 1172.39,51.5565 1169.72,48.5565 1166,46.5C 1165.76,48.9769 1166.59,51.1435 1168.5,53C 1167.29,54.1068 1167.62,54.6068 1169.5,54.5C 1168.4,55.5983 1167.07,55.765 1165.5,55C 1163.98,53.0838 1162.98,50.9171 1162.5,48.5C 1162.17,47.1667 1161.83,47.1667 1161.5,48.5C 1160.42,48.5394 1159.42,48.8728 1158.5,49.5C 1157.7,49.0431 1157.37,48.3764 1157.5,47.5C 1166.44,45.531 1166.11,43.6976 1156.5,42C 1155.66,40.9887 1155.33,39.8221 1155.5,38.5C 1153.5,38.5 1151.5,38.5 1149.5,38.5C 1148.83,37.5 1148.17,36.5 1147.5,35.5C 1148.91,35.0269 1149.57,34.0269 1149.5,32.5C 1150.73,32.2786 1151.73,31.6119 1152.5,30.5C 1153.57,32.9824 1154.91,35.3157 1156.5,37.5C 1158.43,36.4798 1160.43,36.3131 1162.5,37C 1166.85,40.0297 1171.19,43.0297 1175.5,46C 1177.76,46.6419 1179.93,47.4752 1182,48.5C 1182.33,48.1667 1182.67,47.8333 1183,47.5C 1184.71,49.0375 1186.21,50.7041 1187.5,52.5 Z"/></g>
<g><path style="opacity:0.055" fill="#4355f5" d="M 108.5,56.5 C 108.068,57.7095 107.401,58.7095 106.5,59.5C 106.062,59.5654 105.728,59.3988 105.5,59C 106.078,57.583 107.078,56.7496 108.5,56.5 Z"/></g>
<g><path style="opacity:0.027" fill="#567aff" d="M 1176.5,60.5 C 1175.66,60.1583 1175.33,59.4916 1175.5,58.5C 1176.6,57.4017 1177.93,57.235 1179.5,58C 1178.06,58.3768 1177.06,59.2101 1176.5,60.5 Z"/></g>
<g><path style="opacity:0.012" fill="#2426e8" d="M 100.5,60.5 C 100.833,60.5 101.167,60.5 101.5,60.5C 101.34,62.153 100.674,63.4863 99.5,64.5C 99.5,63.5 99.5,62.5 99.5,61.5C 99.5,60.8333 99.8333,60.5 100.5,60.5 Z"/></g>
<g><path style="opacity:0.012" fill="#eef9fe" d="M 86.5,57.5 C 88.5342,58.5907 89.8676,60.2574 90.5,62.5C 90.269,65.9002 88.4357,67.9002 85,68.5C 84.6667,69.8333 84.3333,71.1667 84,72.5C 74.5762,80.2249 65.7429,88.5583 57.5,97.5C 56.0357,100.003 54.869,102.67 54,105.5C 50.9487,107.05 48.782,109.383 47.5,112.5C 46.1667,112.5 44.8333,112.5 43.5,112.5C 43.5,113.5 43.5,114.5 43.5,115.5C 42.6862,117.631 42.1862,119.964 42,122.5C 40.9887,123.337 39.8221,123.67 38.5,123.5C 38.5,125.5 38.5,127.5 38.5,129.5C 37.609,130.11 36.609,130.443 35.5,130.5C 34.8501,130.804 34.1835,131.137 33.5,131.5C 32.6786,134.447 32.1786,137.447 32,140.5C 30.2041,141.767 28.3707,141.767 26.5,140.5C 24.1992,141.269 24.0325,142.269 26,143.5C 27.2223,147.246 26.0557,149.913 22.5,151.5C 20.9891,150.498 19.3224,149.831 17.5,149.5C 18.8281,144.858 20.1614,140.191 21.5,135.5C 28.1235,133.202 31.1235,128.536 30.5,121.5C 34.8306,122.549 36.9973,120.882 37,116.5C 38.1096,114.963 39.6096,114.297 41.5,114.5C 41.3398,112.801 41.5065,111.134 42,109.5C 45.0071,105.811 47.1738,101.644 48.5,97C 48.1667,96.6667 47.8333,96.3333 47.5,96C 49.0821,93.9146 51.0821,92.4146 53.5,91.5C 52.9747,90.8076 52.3081,90.3076 51.5,90C 54.0789,88.533 56.7456,87.3664 59.5,86.5C 59.33,85.1779 59.6634,84.0113 60.5,83C 63.6459,80.7409 66.9793,78.7409 70.5,77C 71.0998,73.5643 73.0998,71.731 76.5,71.5C 75.5,66.5 77.5,64.5 82.5,65.5C 81.7736,61.7396 83.1069,59.073 86.5,57.5 Z"/></g>
<g><path style="opacity:0.012" fill="#4468f2" d="M 1218.5,102.5 C 1217.26,101.341 1215.93,100.341 1214.5,99.5C 1216.12,98.962 1217.78,98.6287 1219.5,98.5C 1219.57,99.9587 1219.23,101.292 1218.5,102.5 Z"/></g>
<g><path style="opacity:0.02" fill="#6d6efe" d="M 60.5,102.5 C 60.1583,103.338 59.4916,103.672 58.5,103.5C 57.4265,102.749 57.2599,101.749 58,100.5C 58.4169,101.756 59.2502,102.423 60.5,102.5 Z"/></g>
<g><path style="opacity:0.008" fill="#0112fd" d="M 1221.5,102.5 C 1221.5,102.833 1221.5,103.167 1221.5,103.5C 1220.83,104.167 1220.17,104.833 1219.5,105.5C 1219.29,103.821 1219.95,102.821 1221.5,102.5 Z"/></g>
<g><path style="opacity:0.02" fill="#2c85fb" d="M 1221.5,103.5 C 1222.83,105.5 1224.17,107.5 1225.5,109.5C 1224.65,110.625 1223.65,110.625 1222.5,109.5C 1221.47,107.806 1220.14,106.473 1218.5,105.5C 1218.83,105.5 1219.17,105.5 1219.5,105.5C 1220.17,104.833 1220.83,104.167 1221.5,103.5 Z"/></g>
<g><path style="opacity:0.014" fill="#2b3dfd" d="M 56.5,109.5 C 54.9567,111.557 53.9567,111.557 53.5,109.5C 53.3691,108.624 53.7025,107.957 54.5,107.5C 55.1818,108.243 55.8485,108.909 56.5,109.5 Z"/></g>
<g><path style="opacity:0.011" fill="#e4f5fe" d="M 1187.5,52.5 C 1189.62,55.8162 1192.45,58.4829 1196,60.5C 1196.44,63.7723 1198.27,65.439 1201.5,65.5C 1200.64,69.1616 1201.97,71.3282 1205.5,72C 1206.77,73.3068 1207.77,74.8068 1208.5,76.5C 1210.07,77.3094 1211.74,77.6427 1213.5,77.5C 1213.5,79.1667 1213.5,80.8333 1213.5,82.5C 1215.2,82.3398 1216.87,82.5065 1218.5,83C 1220.83,85.3333 1223.17,87.6667 1225.5,90C 1224.94,91.5655 1225.61,92.8989 1227.5,94C 1227.17,94.3333 1226.83,94.6667 1226.5,95C 1232.17,100.472 1235.84,106.972 1237.5,114.5C 1241.8,114.815 1243.47,117.149 1242.5,121.5C 1241.33,122.514 1240.66,123.847 1240.5,125.5C 1237.08,123.199 1235.75,119.866 1236.5,115.5C 1233.43,116.243 1231.76,118.243 1231.5,121.5C 1229.69,120.082 1229.03,118.082 1229.5,115.5C 1225.63,115.301 1223.3,113.301 1222.5,109.5C 1223.65,110.625 1224.65,110.625 1225.5,109.5C 1227.15,110.81 1228.81,112.143 1230.5,113.5C 1231.41,112.21 1231.24,110.877 1230,109.5C 1227.56,106.553 1224.73,104.22 1221.5,102.5C 1221.66,100.801 1221.49,99.1341 1221,97.5C 1217.14,93.6111 1213.64,89.4444 1210.5,85C 1208.9,84.7266 1207.4,84.2266 1206,83.5C 1202.99,79.326 1199.49,75.6593 1195.5,72.5C 1195.21,69.0443 1193.38,67.0443 1190,66.5C 1187.78,64.0917 1185.95,61.4251 1184.5,58.5C 1185.47,56.5168 1186.47,54.5168 1187.5,52.5 Z"/></g>
<g><path style="opacity:0.005" fill="#83c7fc" d="M 1242.5,121.5 C 1244.5,121.5 1246.5,121.5 1248.5,121.5C 1248.5,123.167 1248.5,124.833 1248.5,126.5C 1246.21,126.595 1244.21,127.262 1242.5,128.5C 1241.09,128.027 1240.43,127.027 1240.5,125.5C 1240.66,123.847 1241.33,122.514 1242.5,121.5 Z"/></g>
<g><path style="opacity:0.051" fill="#74b8fc" d="M 38.5,129.5 C 39.3478,130.625 40.3478,130.625 41.5,129.5C 40.9694,132.779 38.9694,134.113 35.5,133.5C 35.5,132.5 35.5,131.5 35.5,130.5C 36.609,130.443 37.609,130.11 38.5,129.5 Z"/></g>
<g><path style="opacity:0.005" fill="#dff2fe" d="M 1248.5,126.5 C 1248.11,129.523 1249.11,130.523 1251.5,129.5C 1253.17,131.833 1255.17,133.833 1257.5,135.5C 1258.84,140.191 1260.17,144.858 1261.5,149.5C 1259.78,149.629 1258.12,149.962 1256.5,150.5C 1252.28,148.451 1251.61,145.618 1254.5,142C 1251.88,141.816 1249.38,140.983 1247,139.5C 1246.5,136.183 1246.33,132.85 1246.5,129.5C 1244.9,129.768 1243.57,129.434 1242.5,128.5C 1244.21,127.262 1246.21,126.595 1248.5,126.5 Z"/></g>
<g><path style="opacity:0.004" fill="#0000f6" d="M 1249.5,151.5 C 1250.83,151.5 1251.5,152.167 1251.5,153.5C 1251.5,152.167 1250.83,151.5 1249.5,151.5 Z"/></g>
<g><path style="opacity:0.007" fill="#6cc7fd" d="M 1261.5,149.5 C 1262.43,150.315 1263.43,151.148 1264.5,152C 1263.94,152.383 1263.61,152.883 1263.5,153.5C 1262.5,153.5 1261.5,153.5 1260.5,153.5C 1260.71,155.179 1260.05,156.179 1258.5,156.5C 1256.93,154.898 1256.26,152.898 1256.5,150.5C 1258.12,149.962 1259.78,149.629 1261.5,149.5 Z"/></g>
<g><path style="opacity:0.008" fill="#79cafd" d="M 17.5,149.5 C 19.3224,149.831 20.9891,150.498 22.5,151.5C 22.5979,153.553 21.9313,155.22 20.5,156.5C 18.5,155.833 16.5,155.167 14.5,154.5C 15.5981,153.603 15.5981,152.77 14.5,152C 15.5707,151.148 16.5707,150.315 17.5,149.5 Z"/></g>
<g><path style="opacity:0.004" fill="#4d34f8" d="M 20.5,162.5 C 20.8333,162.5 21.1667,162.5 21.5,162.5C 22.1667,163.167 22.8333,163.833 23.5,164.5C 22.8333,164.5 22.5,164.833 22.5,165.5C 22.5,166.167 22.1667,166.5 21.5,166.5C 21.5,165.833 21.1667,165.5 20.5,165.5C 20.5,165.167 20.5,164.833 20.5,164.5C 20.5,163.833 20.5,163.167 20.5,162.5 Z"/></g>
<g><path style="opacity:0.086" fill="#4ca8fc" d="M 24.5,163.5 C 24.6716,164.492 24.3382,165.158 23.5,165.5C 23.5,165.167 23.5,164.833 23.5,164.5C 22.8333,163.833 22.1667,163.167 21.5,162.5C 23.3059,159.662 24.3059,159.995 24.5,163.5 Z"/></g>
<g><path style="opacity:0.012" fill="#45a7fb" d="M 1258.5,162.5 C 1258.33,163.492 1258.66,164.158 1259.5,164.5C 1259.5,165.167 1259.17,165.5 1258.5,165.5C 1257.83,165.5 1257.5,165.833 1257.5,166.5C 1256.83,166.5 1256.5,166.167 1256.5,165.5C 1256.17,164.167 1255.83,164.167 1255.5,165.5C 1254.66,165.158 1254.33,164.492 1254.5,163.5C 1254.28,162.325 1254.61,161.325 1255.5,160.5C 1256.52,161.193 1257.52,161.859 1258.5,162.5 Z"/></g>
<g><path style="opacity:0.008" fill="#81b0fd" d="M 18.5,164.5 C 18.8333,164.5 19.1667,164.5 19.5,164.5C 19.8333,164.5 20.1667,164.5 20.5,164.5C 20.5,164.833 20.5,165.167 20.5,165.5C 20.5,166.167 20.5,166.833 20.5,167.5C 20.1667,167.5 19.8333,167.5 19.5,167.5C 18.6365,168.463 17.9698,168.463 17.5,167.5C 18.1272,166.583 18.4606,165.583 18.5,164.5 Z"/></g>
<g><path style="opacity:0.008" fill="#e5f4fe" d="M 14.5,154.5 C 16.5,155.167 18.5,155.833 20.5,156.5C 20.5,158.5 20.5,160.5 20.5,162.5C 19.6618,162.842 19.3284,163.508 19.5,164.5C 19.1667,164.5 18.8333,164.5 18.5,164.5C 14.7828,166.556 14.1162,169.222 16.5,172.5C 16.3333,173.167 16.1667,173.833 16,174.5C 15.6924,173.692 15.1924,173.025 14.5,172.5C 13.2503,175.272 12.917,177.939 13.5,180.5C 13.4431,181.609 13.1098,182.609 12.5,183.5C 8.83876,183.35 7.83876,184.85 9.5,188C 7.84471,190.507 7.01138,193.341 7,196.5C 6,197.5 5,198.5 4,199.5C 3.66667,202.833 3.33333,206.167 3,209.5C 2.50167,211.544 1.33501,212.878 -0.5,213.5C -0.5,207.5 -0.5,201.5 -0.5,195.5C 0.988956,189.357 2.48896,183.024 4,176.5C 4.66667,175.167 5.33333,175.167 6,176.5C 7.50817,168.511 10.3415,161.178 14.5,154.5 Z"/></g>
<g><path style="opacity:0.998" fill="#010101" d="M 597.5,698.5 C 599.477,687.884 600.144,676.884 599.5,665.5C 602.358,650.736 605.358,635.736 608.5,620.5C 615.217,597.255 624.217,574.922 635.5,553.5C 636.325,552.614 637.325,552.281 638.5,552.5C 638.602,549.027 639.602,545.861 641.5,543C 649.657,530.491 658.157,518.324 667,506.5C 677.687,495.147 688.354,483.814 699,472.5C 785.086,386.414 871.252,300.248 957.5,214C 965.693,205.64 974.359,197.807 983.5,190.5C 1024.34,163.784 1066.68,161.451 1110.5,183.5C 1117.59,188.318 1124.59,193.318 1131.5,198.5C 1163.55,231.929 1174.38,271.262 1164,316.5C 1160.61,324.495 1157.11,332.495 1153.5,340.5C 1150.27,346.518 1146.6,352.184 1142.5,357.5C 1040.89,459.779 938.887,561.779 836.5,663.5C 824.59,673.245 812.256,682.411 799.5,691C 752.943,720.366 701.943,735.866 646.5,737.5C 637.025,737.561 627.691,736.561 618.5,734.5C 615.921,731.755 612.921,729.589 609.5,728C 605.939,723.245 602.939,718.079 600.5,712.5C 599.978,707.629 598.978,702.963 597.5,698.5 Z"/></g>
<g><path style="opacity:0.015" fill="#e6f3fd" d="M 1263.5,153.5 C 1265.64,155.765 1267.31,158.432 1268.5,161.5C 1268.29,162.086 1267.96,162.586 1267.5,163C 1270.79,164.919 1272.13,167.585 1271.5,171C 1272.53,174.039 1274.36,176.539 1277,178.5C 1277.95,184.393 1277.45,190.06 1275.5,195.5C 1276.83,195.5 1278.17,195.5 1279.5,195.5C 1279.5,201.167 1279.5,206.833 1279.5,212.5C 1277.72,211.426 1276.55,209.76 1276,207.5C 1275.67,204.833 1275.33,202.167 1275,199.5C 1273.83,197.333 1272.67,195.167 1271.5,193C 1272.23,190.311 1271.56,187.811 1269.5,185.5C 1271.45,183.419 1271.45,181.086 1269.5,178.5C 1268.52,178.977 1267.69,179.643 1267,180.5C 1266.42,184.203 1266.59,187.869 1267.5,191.5C 1265.93,195.465 1266.59,199.132 1269.5,202.5C 1266.7,200.982 1264.7,198.648 1263.5,195.5C 1264.11,190.476 1264.78,185.476 1265.5,180.5C 1263.95,179.548 1262.29,179.215 1260.5,179.5C 1259.2,175.63 1258.53,171.63 1258.5,167.5C 1258.5,166.833 1258.5,166.167 1258.5,165.5C 1259.17,165.5 1259.5,165.167 1259.5,164.5C 1259.83,164.5 1260.17,164.5 1260.5,164.5C 1260.17,163.5 1259.5,162.833 1258.5,162.5C 1258.5,160.5 1258.5,158.5 1258.5,156.5C 1260.05,156.179 1260.71,155.179 1260.5,153.5C 1261.5,153.5 1262.5,153.5 1263.5,153.5 Z M 1260.5,164.5 C 1261.46,164.953 1262.29,165.619 1263,166.5C 1263.56,170.095 1264.73,173.428 1266.5,176.5C 1266.04,177.298 1265.38,177.631 1264.5,177.5C 1263.79,178.404 1262.79,178.737 1261.5,178.5C 1261.72,173.77 1261.38,169.103 1260.5,164.5 Z"/></g>
<g><path style="opacity:0.012" fill="#c5cefe" d="M 1264.5,177.5 C 1262.97,177.483 1262.47,176.816 1263,175.5C 1263.72,176.044 1264.22,176.711 1264.5,177.5 Z"/></g>
<g><path style="opacity:0.012" fill="#809bf8" d="M 16.5,180.5 C 14.668,179.86 14.3347,178.86 15.5,177.5C 16.3857,178.325 16.719,179.325 16.5,180.5 Z"/></g>
<g><path style="opacity:0.008" fill="#0721fa" d="M 13.5,180.5 C 14.404,181.209 14.7373,182.209 14.5,183.5C 13.8333,183.833 13.1667,184.167 12.5,184.5C 12.5,184.167 12.5,183.833 12.5,183.5C 13.1098,182.609 13.4431,181.609 13.5,180.5 Z"/></g>
<g><path style="opacity:0.008" fill="#1c23ef" d="M 1267.5,191.5 C 1269.11,194.132 1270.78,196.798 1272.5,199.5C 1271.75,200.736 1271.42,202.07 1271.5,203.5C 1270.83,203.167 1270.17,202.833 1269.5,202.5C 1266.59,199.132 1265.93,195.465 1267.5,191.5 Z"/></g>
<g><path style="opacity:0.027" fill="#2019f4" d="M 12.5,190.5 C 13.6244,196.041 11.9577,200.374 7.5,203.5C 8.17992,201.61 8.34658,199.61 8,197.5C 9,196.833 10,196.167 11,195.5C 11.1981,193.618 11.6981,191.952 12.5,190.5 Z"/></g>
<g><path style="opacity:0.004" fill="#fcfdff" d="M -0.5,216.5 C 0.586173,216.62 1.25284,217.287 1.5,218.5C 1.25284,219.713 0.586173,220.38 -0.5,220.5C -0.5,219.167 -0.5,217.833 -0.5,216.5 Z"/></g>
<g><path style="opacity:1" fill="#fcfcfc" d="M 740.5,637.5 C 737.833,637.833 735.167,638.167 732.5,638.5C 732.5,639.5 732.5,640.5 732.5,641.5C 730.585,641.216 728.919,641.549 727.5,642.5C 712.292,649.751 696.292,654.751 679.5,657.5C 679.534,651.395 680.367,645.395 682,639.5C 688.899,619.046 697.399,599.379 707.5,580.5C 715.978,569.574 724.478,558.574 733,547.5C 831.833,449.333 930.333,350.833 1028.5,252C 1050.22,240.524 1069.38,243.691 1086,261.5C 1091.16,271.203 1092.82,281.537 1091,292.5C 1089.76,297.291 1088.26,301.958 1086.5,306.5C 990.673,402.327 894.673,498.327 798.5,594.5C 789.481,602.188 780.481,609.855 771.5,617.5C 761.374,624.652 751.041,631.319 740.5,637.5 Z"/></g>
<g><path style="opacity:0.843" fill="#c5c5c5" d="M 358.5,273.5 C 415.499,272.833 472.666,272.5 530,272.5C 587.504,272.5 644.671,273.167 701.5,274.5C 587.237,273.502 472.904,273.169 358.5,273.5 Z"/></g>
<g><path style="opacity:0.997" fill="#000000" d="M 358.5,273.5 C 472.904,273.169 587.237,273.502 701.5,274.5C 727.046,281.531 737.213,298.197 732,324.5C 729.583,328.331 727.417,332.331 725.5,336.5C 721.797,340.432 717.631,343.765 713,346.5C 710.79,348.111 708.29,348.778 705.5,348.5C 589.232,348.831 473.232,349.831 357.5,351.5C 325.979,354.706 299.979,368.373 279.5,392.5C 275.084,398.335 270.917,404.335 267,410.5C 261.659,420.365 257.826,430.698 255.5,441.5C 254.918,444.832 254.084,448.166 253,451.5C 252.167,615.168 252.333,778.834 253.5,942.5C 254.84,947.848 257.174,952.515 260.5,956.5C 266.303,963.574 273.637,968.407 282.5,971C 289.856,971.831 297.189,971.665 304.5,970.5C 308.386,968.39 312.386,966.557 316.5,965C 319.77,959.892 324.104,956.059 329.5,953.5C 340.508,943.093 351.508,932.593 362.5,922C 363.793,921.51 365.127,921.343 366.5,921.5C 372.609,913.225 379.943,906.059 388.5,900C 393.165,897.455 398.165,895.955 403.5,895.5C 548.833,894.833 694.167,894.167 839.5,893.5C 861.994,889.754 881.327,879.92 897.5,864C 898.793,863.51 900.127,863.343 901.5,863.5C 902.405,860.553 903.905,857.887 906,855.5C 915.269,847.747 921.436,838.08 924.5,826.5C 925.5,826.5 926.5,826.5 927.5,826.5C 930.4,815.375 933.067,804.375 935.5,793.5C 936.173,756.598 936.839,719.598 937.5,682.5C 942.805,663.712 955.305,653.379 975,651.5C 994.058,654.07 1006.56,664.403 1012.5,682.5C 1013.83,720.5 1013.83,758.5 1012.5,796.5C 1003.85,862.474 971.182,912.474 914.5,946.5C 891.336,957.777 867.336,965.777 842.5,970.5C 702.165,970.167 561.832,970.5 421.5,971.5C 421.137,972.183 420.804,972.85 420.5,973.5C 401.247,991.594 381.58,1009.09 361.5,1026C 355.075,1029.57 348.742,1033.41 342.5,1037.5C 315.184,1049.33 287.184,1051.5 258.5,1044C 248.419,1039.46 238.419,1034.63 228.5,1029.5C 223.211,1025.55 218.211,1021.21 213.5,1016.5C 212.311,1015.57 210.978,1015.24 209.5,1015.5C 209.762,1014.02 209.429,1012.69 208.5,1011.5C 203.42,1007.09 199.086,1002.09 195.5,996.5C 192.178,989.856 188.845,983.19 185.5,976.5C 182.153,966.59 179.153,956.924 176.5,947.5C 176.168,781.43 176.501,615.43 177.5,449.5C 187.06,374.799 225.727,321.299 293.5,289C 303.276,286.185 312.942,283.185 322.5,280C 334.701,277.359 346.701,275.193 358.5,273.5 Z"/></g>
<g><path style="opacity:1" fill="#757575" d="M 705.5,348.5 C 589.768,350.169 473.768,351.169 357.5,351.5C 473.232,349.831 589.232,348.831 705.5,348.5 Z"/></g>
<g><path style="opacity:1" fill="#b8b8b8" d="M 255.5,441.5 C 254.347,608.158 254.18,774.825 255,941.5C 257.397,946.294 259.23,951.294 260.5,956.5C 257.174,952.515 254.84,947.848 253.5,942.5C 252.333,778.834 252.167,615.168 253,451.5C 254.084,448.166 254.918,444.832 255.5,441.5 Z"/></g>
<g><path style="opacity:1" fill="#bababa" d="M 177.5,449.5 C 176.501,615.43 176.168,781.43 176.5,947.5C 175.833,864.667 175.5,781.667 175.5,698.5C 175.5,615.164 176.167,532.164 177.5,449.5 Z"/></g>
<g><path style="opacity:0.995" fill="#000000" d="M 364.5,506.5 C 406.839,506.167 449.172,506.5 491.5,507.5C 515.456,513.473 526.123,528.807 523.5,553.5C 519.455,568.177 510.122,577.51 495.5,581.5C 450.5,582.833 405.5,582.833 360.5,581.5C 339.066,574.65 329.733,559.983 332.5,537.5C 334.869,527.916 339.869,520.083 347.5,514C 353.128,510.93 358.795,508.43 364.5,506.5 Z"/></g>
<g><path style="opacity:0.988" fill="#989898" d="M 740.5,637.5 C 736.704,640.344 732.371,642.011 727.5,642.5C 728.919,641.549 730.585,641.216 732.5,641.5C 732.5,640.5 732.5,639.5 732.5,638.5C 735.167,638.167 737.833,637.833 740.5,637.5 Z"/></g>
<g><path style="opacity:0.995" fill="#000000" d="M 364.5,661.5 C 406.839,661.167 449.172,661.5 491.5,662.5C 515.485,668.496 526.152,683.829 523.5,708.5C 520.148,717.368 515.148,725.202 508.5,732C 504.172,733.497 499.838,734.997 495.5,736.5C 450.5,737.833 405.5,737.833 360.5,736.5C 339.066,729.65 329.733,714.983 332.5,692.5C 337.479,675.847 348.146,665.514 364.5,661.5 Z"/></g>
<g><path style="opacity:1" fill="#9f9f9f" d="M 599.5,665.5 C 600.144,676.884 599.477,687.884 597.5,698.5C 598.146,687.401 598.813,676.401 599.5,665.5 Z"/></g>
<g><path style="opacity:0.996" fill="#d0d0d0" d="M 1012.5,682.5 C 1013.83,701.155 1014.5,720.155 1014.5,739.5C 1014.5,758.845 1013.83,777.845 1012.5,796.5C 1013.83,758.5 1013.83,720.5 1012.5,682.5 Z"/></g>
<g><path style="opacity:1" fill="#d0d0d0" d="M 937.5,682.5 C 936.839,719.598 936.173,756.598 935.5,793.5C 934.84,756.152 935.506,719.152 937.5,682.5 Z"/></g>
<g><path style="opacity:1" fill="#acacac" d="M 842.5,970.5 C 701.859,970.84 561.192,971.84 420.5,973.5C 420.804,972.85 421.137,972.183 421.5,971.5C 561.832,970.5 702.165,970.167 842.5,970.5 Z"/></g>
<g><path style="opacity:0.031" fill="#4926fa" d="M 0.5,1038.5 C 3.16667,1039.17 3.16667,1039.83 0.5,1040.5C 0.5,1039.83 0.5,1039.17 0.5,1038.5 Z"/></g>
<g><path style="opacity:0.071" fill="#9093e2" d="M 0.5,1050.5 C 3.08578,1051.49 4.41912,1053.49 4.5,1056.5C 2.98994,1054.68 1.6566,1052.68 0.5,1050.5 Z"/></g>
<g><path style="opacity:0.004" fill="#fdfdfe" d="M -0.5,1058.5 C 0.586173,1058.62 1.25284,1059.29 1.5,1060.5C 1.25284,1061.71 0.586173,1062.38 -0.5,1062.5C -0.5,1061.17 -0.5,1059.83 -0.5,1058.5 Z"/></g>
<g><path style="opacity:0.013" fill="#e2ecfc" d="M -0.5,1066.5 C 2.41836,1069.03 3.75169,1072.36 3.5,1076.5C 2.16667,1076.5 0.833333,1076.5 -0.5,1076.5C -0.5,1073.17 -0.5,1069.83 -0.5,1066.5 Z"/></g>
<g><path style="opacity:0.013" fill="#eef3fd" d="M 1279.5,1066.5 C 1279.5,1069.17 1279.5,1071.83 1279.5,1074.5C 1278.17,1074.5 1276.83,1074.5 1275.5,1074.5C 1275.83,1071.17 1277.16,1068.51 1279.5,1066.5 Z"/></g>
<g><path style="opacity:0.004" fill="#5680e9" d="M -0.5,1076.5 C 0.833333,1076.5 2.16667,1076.5 3.5,1076.5C 3.5,1077.5 3.5,1078.5 3.5,1079.5C 2.32627,1080.51 1.6596,1081.85 1.5,1083.5C 0.833333,1083.5 0.166667,1083.5 -0.5,1083.5C -0.5,1081.17 -0.5,1078.83 -0.5,1076.5 Z"/></g>
<g><path style="opacity:0.012" fill="#8caff0" d="M 1275.5,1074.5 C 1276.83,1074.5 1278.17,1074.5 1279.5,1074.5C 1279.5,1075.83 1279.5,1077.17 1279.5,1078.5C 1278.5,1078.5 1277.5,1078.5 1276.5,1078.5C 1276.63,1080.22 1276.96,1081.88 1277.5,1083.5C 1276.83,1083.5 1276.17,1083.5 1275.5,1083.5C 1275.5,1082.17 1275.5,1080.83 1275.5,1079.5C 1275.5,1077.83 1275.5,1076.17 1275.5,1074.5 Z"/></g>
<g><path style="opacity:0.065" fill="#2217a4" d="M 6.5,1074.5 C 8.76703,1075.6 10.6004,1077.26 12,1079.5C 12.4986,1083.15 12.6653,1086.82 12.5,1090.5C 11.5489,1089.08 11.2155,1087.41 11.5,1085.5C 11.573,1083.97 10.9063,1082.97 9.5,1082.5C 8.16337,1081.69 7.16337,1080.52 6.5,1079C 7.72793,1077.51 7.72793,1076.01 6.5,1074.5 Z"/></g>
<g><path style="opacity:0.024" fill="#2a2355" d="M 1271.5,1076.5 C 1273.09,1079.31 1272.42,1081.31 1269.5,1082.5C 1269.5,1080.83 1269.5,1079.17 1269.5,1077.5C 1270.17,1077.17 1270.83,1076.83 1271.5,1076.5 Z"/></g>
<g><path style="opacity:0.008" fill="#3c5ee2" d="M 1279.5,1078.5 C 1279.5,1080.17 1279.5,1081.83 1279.5,1083.5C 1278.83,1083.5 1278.17,1083.5 1277.5,1083.5C 1276.96,1081.88 1276.63,1080.22 1276.5,1078.5C 1277.5,1078.5 1278.5,1078.5 1279.5,1078.5 Z"/></g>
<g><path style="opacity:0.007" fill="#f9fbfd" d="M 1275.5,1079.5 C 1275.5,1080.83 1275.5,1082.17 1275.5,1083.5C 1277.26,1088.6 1277.93,1093.93 1277.5,1099.5C 1274.61,1099.97 1272.61,1098.97 1271.5,1096.5C 1270.86,1095.52 1270.19,1094.52 1269.5,1093.5C 1271.72,1090.7 1272.55,1087.7 1272,1084.5C 1272.9,1082.57 1274.07,1080.9 1275.5,1079.5 Z"/></g>
<g><path style="opacity:0.008" fill="#131017" d="M 9.5,1082.5 C 10.9063,1082.97 11.573,1083.97 11.5,1085.5C 10.0937,1085.03 9.42702,1084.03 9.5,1082.5 Z"/></g>
<g><path style="opacity:0.004" fill="#1d1618" d="M 1269.5,1082.5 C 1269.57,1084.03 1268.91,1085.03 1267.5,1085.5C 1267.43,1083.97 1268.09,1082.97 1269.5,1082.5 Z"/></g>
<g><path style="opacity:0.014" fill="#0906c1" d="M 1269.5,1077.5 C 1269.5,1079.17 1269.5,1080.83 1269.5,1082.5C 1268.09,1082.97 1267.43,1083.97 1267.5,1085.5C 1267.78,1087.41 1267.45,1089.08 1266.5,1090.5C 1266.18,1086.45 1266.51,1082.45 1267.5,1078.5C 1268.18,1078.14 1268.85,1077.8 1269.5,1077.5 Z"/></g>
<g><path style="opacity:0.012" fill="#efc2e3" d="M 14.5,1101.5 C 16.0281,1101.52 16.5281,1102.18 16,1103.5C 15.2828,1102.96 14.7828,1102.29 14.5,1101.5 Z"/></g>
<g><path style="opacity:0.008" fill="#c2a0db" d="M 1262.5,1101.5 C 1263.17,1101.5 1263.83,1101.5 1264.5,1101.5C 1263.83,1104.17 1263.17,1104.17 1262.5,1101.5 Z"/></g>
<g><path style="opacity:0.004" fill="#6275eb" d="M 3.5,1101.5 C 4.83333,1101.5 6.16667,1101.5 7.5,1101.5C 7.73731,1102.79 7.40397,1103.79 6.5,1104.5C 5.16667,1103.83 4.16667,1102.83 3.5,1101.5 Z"/></g>
<g><path style="opacity:0.01" fill="#c7d8f8" d="M 1271.5,1096.5 C 1272.61,1098.97 1274.61,1099.97 1277.5,1099.5C 1276.3,1101.63 1274.46,1102.97 1272,1103.5C 1272.32,1106.47 1271.82,1109.47 1270.5,1112.5C 1269.09,1116.98 1266.75,1121.31 1263.5,1125.5C 1261.59,1124.92 1259.92,1123.92 1258.5,1122.5C 1259.17,1119.83 1259.83,1117.17 1260.5,1114.5C 1263.17,1114.17 1263.17,1113.83 1260.5,1113.5C 1260.67,1112.51 1260.34,1111.84 1259.5,1111.5C 1259.5,1111.17 1259.5,1110.83 1259.5,1110.5C 1260.17,1110.5 1260.5,1110.17 1260.5,1109.5C 1260.83,1109.5 1261.17,1109.5 1261.5,1109.5C 1262.75,1113.31 1263.75,1113.31 1264.5,1109.5C 1265.55,1107.74 1267.22,1107.08 1269.5,1107.5C 1269.5,1105.5 1269.5,1103.5 1269.5,1101.5C 1270.02,1099.69 1270.69,1098.03 1271.5,1096.5 Z"/></g>
<g><path style="opacity:0.044" fill="#392adb" d="M 17.5,1111.5 C 17.8333,1111.5 18.1667,1111.5 18.5,1111.5C 18.8333,1111.5 19.1667,1111.5 19.5,1111.5C 19.8333,1111.5 20.1667,1111.5 20.5,1111.5C 20.4607,1113.22 20.794,1113.56 21.5,1112.5C 22.5,1113.5 23.5,1114.5 24.5,1115.5C 24.719,1116.68 24.3857,1117.68 23.5,1118.5C 22.4822,1117.81 21.4822,1117.14 20.5,1116.5C 20.5,1115.17 19.8333,1114.5 18.5,1114.5C 18.4431,1113.39 18.1098,1112.39 17.5,1111.5 Z"/></g>
<g><path style="opacity:0.058" fill="#2e29d2" d="M 1258.5,1111.5 C 1258.83,1111.5 1259.17,1111.5 1259.5,1111.5C 1260.34,1111.84 1260.67,1112.51 1260.5,1113.5C 1260.5,1113.83 1260.5,1114.17 1260.5,1114.5C 1258.52,1115.81 1256.85,1117.48 1255.5,1119.5C 1254.82,1118.4 1254.16,1117.4 1253.5,1116.5C 1254.17,1114.5 1255.5,1113.17 1257.5,1112.5C 1258.21,1113.56 1258.54,1113.22 1258.5,1111.5 Z"/></g>
<g><path style="opacity:0.012" fill="#bed4f7" d="M 6.5,1109.5 C 13.6886,1108.87 16.5219,1112.2 15,1119.5C 16.6995,1120.41 18.5328,1120.74 20.5,1120.5C 20.5,1121.17 20.5,1121.83 20.5,1122.5C 18.5,1123.17 16.5,1123.83 14.5,1124.5C 12.5703,1119.17 9.90365,1114.17 6.5,1109.5 Z"/></g>
<g><path style="opacity:0.008" fill="#486ce5" d="M 20.5,1122.5 C 21.9313,1123.78 22.5979,1125.45 22.5,1127.5C 20.5853,1127.22 18.9187,1127.55 17.5,1128.5C 16.2438,1128.54 15.2438,1128.04 14.5,1127C 15.5981,1126.23 15.5981,1125.4 14.5,1124.5C 16.5,1123.83 18.5,1123.17 20.5,1122.5 Z"/></g>
<g><path style="opacity:0.008" fill="#1e232f" d="M 1251.5,1125.5 C 1251.22,1126.78 1250.55,1127.78 1249.5,1128.5C 1248.83,1128.17 1248.17,1127.83 1247.5,1127.5C 1248.51,1126.33 1249.85,1125.66 1251.5,1125.5 Z"/></g>
<g><path style="opacity:0.006" fill="#3453e1" d="M 1258.5,1122.5 C 1259.92,1123.92 1261.59,1124.92 1263.5,1125.5C 1264.67,1127.37 1264.01,1128.37 1261.5,1128.5C 1260.08,1127.55 1258.41,1127.22 1256.5,1127.5C 1256.4,1125.45 1257.07,1123.78 1258.5,1122.5 Z"/></g>
<g><path style="opacity:0.019" fill="#0000e9" d="M 29.5,1127.5 C 32.1667,1128.5 32.1667,1129.5 29.5,1130.5C 29.5,1129.5 29.5,1128.5 29.5,1127.5 Z"/></g>
<g><path style="opacity:0.012" fill="#0004ea" d="M 1247.5,1127.5 C 1248.17,1127.83 1248.83,1128.17 1249.5,1128.5C 1249.5,1129.17 1249.5,1129.83 1249.5,1130.5C 1247.95,1130.18 1247.29,1129.18 1247.5,1127.5 Z"/></g>
<g><path style="opacity:0.011" fill="#d4e0f9" d="M 22.5,1127.5 C 26.7752,1129.88 27.4418,1132.88 24.5,1136.5C 22.8333,1136.5 21.1667,1136.5 19.5,1136.5C 18.2504,1133.99 17.5838,1131.33 17.5,1128.5C 18.9187,1127.55 20.5853,1127.22 22.5,1127.5 Z"/></g>
<g><path style="opacity:0.011" fill="#cadaf8" d="M 1256.5,1127.5 C 1258.41,1127.22 1260.08,1127.55 1261.5,1128.5C 1261.42,1131.33 1260.75,1133.99 1259.5,1136.5C 1257.83,1136.5 1256.17,1136.5 1254.5,1136.5C 1253.05,1135.87 1252.39,1134.7 1252.5,1133C 1253.55,1130.97 1254.88,1129.14 1256.5,1127.5 Z"/></g>
<g><path style="opacity:0.073" fill="#90b2ec" d="M 1247.5,1127.5 C 1247.29,1129.18 1247.95,1130.18 1249.5,1130.5C 1248.83,1132.83 1248.17,1135.17 1247.5,1137.5C 1246.83,1137.5 1246.5,1137.83 1246.5,1138.5C 1245.61,1137.89 1244.61,1137.56 1243.5,1137.5C 1246.35,1135.43 1247.02,1132.76 1245.5,1129.5C 1245.86,1128.48 1246.52,1127.81 1247.5,1127.5 Z"/></g>
<g><path style="opacity:0.004" fill="#435ce7" d="M 19.5,1136.5 C 21.1667,1136.5 22.8333,1136.5 24.5,1136.5C 24.5,1136.83 24.5,1137.17 24.5,1137.5C 23.9522,1139.53 22.6188,1140.53 20.5,1140.5C 20.1667,1139.17 19.8333,1137.83 19.5,1136.5 Z"/></g>
<g><path style="opacity:0.004" fill="#4662e8" d="M 1254.5,1136.5 C 1256.17,1136.5 1257.83,1136.5 1259.5,1136.5C 1259.17,1137.83 1258.83,1139.17 1258.5,1140.5C 1256.03,1140.91 1254.69,1139.91 1254.5,1137.5C 1254.5,1137.17 1254.5,1136.83 1254.5,1136.5 Z"/></g>
<g><path style="opacity:0.014" fill="#8899f4" d="M 1243.5,1142.5 C 1243.5,1143.83 1243.5,1145.17 1243.5,1146.5C 1242.17,1146.17 1240.83,1145.83 1239.5,1145.5C 1240.93,1144.66 1242.26,1143.66 1243.5,1142.5 Z"/></g>
<g><path style="opacity:0.027" fill="#293dd1" d="M 41.5,1149.5 C 40.609,1148.89 39.609,1148.56 38.5,1148.5C 37.391,1148.44 36.391,1148.11 35.5,1147.5C 35.5,1147.17 35.5,1146.83 35.5,1146.5C 38.8594,1144.85 40.8594,1145.85 41.5,1149.5 Z"/></g>
<g><path style="opacity:0.012" fill="#1b20c4" d="M 1239.5,1145.5 C 1240.83,1145.83 1242.17,1146.17 1243.5,1146.5C 1243.05,1147.46 1242.38,1148.29 1241.5,1149C 1240.04,1148.64 1238.71,1148.81 1237.5,1149.5C 1237.53,1147.8 1238.19,1146.47 1239.5,1145.5 Z"/></g>
<g><path style="opacity:0.004" fill="#cfddf8" d="M 1247.5,1137.5 C 1249.65,1137.82 1251.98,1137.82 1254.5,1137.5C 1254.69,1139.91 1256.03,1140.91 1258.5,1140.5C 1258.72,1141.68 1258.39,1142.68 1257.5,1143.5C 1255.17,1145.17 1253.17,1147.17 1251.5,1149.5C 1249.11,1148.48 1248.11,1149.48 1248.5,1152.5C 1246.05,1152.7 1243.72,1152.37 1241.5,1151.5C 1242.64,1149.79 1244.3,1149.12 1246.5,1149.5C 1246.5,1145.83 1246.5,1142.17 1246.5,1138.5C 1246.5,1137.83 1246.83,1137.5 1247.5,1137.5 Z"/></g>
<g><path style="opacity:0.004" fill="#7990e8" d="M 1241.5,1151.5 C 1243.72,1152.37 1246.05,1152.7 1248.5,1152.5C 1248.5,1152.83 1248.5,1153.17 1248.5,1153.5C 1246.5,1153.5 1244.5,1153.5 1242.5,1153.5C 1242.5,1154.5 1242.5,1155.5 1242.5,1156.5C 1240.95,1156.18 1240.29,1155.18 1240.5,1153.5C 1240.33,1152.51 1240.66,1151.84 1241.5,1151.5 Z"/></g>
<g><path style="opacity:0.004" fill="#1d3bd4" d="M 1248.5,1153.5 C 1248.5,1154.83 1248.5,1156.17 1248.5,1157.5C 1246.5,1157.5 1244.5,1157.5 1242.5,1157.5C 1242.5,1157.17 1242.5,1156.83 1242.5,1156.5C 1242.5,1155.5 1242.5,1154.5 1242.5,1153.5C 1244.5,1153.5 1246.5,1153.5 1248.5,1153.5 Z"/></g>
<g><path style="opacity:0.004" fill="#c6daf9" d="M 24.5,1137.5 C 26.7111,1137.9 29.0444,1138.06 31.5,1138C 32.1298,1141.13 32.7964,1144.3 33.5,1147.5C 34.4288,1148.55 35.0954,1148.55 35.5,1147.5C 36.391,1148.11 37.391,1148.44 38.5,1148.5C 38.5,1150.83 38.5,1153.17 38.5,1155.5C 39.8221,1155.33 40.9887,1155.66 42,1156.5C 41.9698,1159.36 42.8031,1161.69 44.5,1163.5C 44.5,1164.5 44.5,1165.5 44.5,1166.5C 45.8333,1166.5 47.1667,1166.5 48.5,1166.5C 48.3505,1167.55 48.5172,1168.55 49,1169.5C 51.0435,1171.21 52.7101,1173.21 54,1175.5C 55.8705,1177.22 58.0372,1178.22 60.5,1178.5C 61.1667,1178.5 61.5,1178.83 61.5,1179.5C 61.2641,1182.61 61.5975,1185.61 62.5,1188.5C 60.8577,1189.8 59.1911,1191.14 57.5,1192.5C 55.4131,1191.42 54.0798,1189.75 53.5,1187.5C 54.769,1183.05 53.1023,1180.05 48.5,1178.5C 47.699,1175.19 45.8657,1172.52 43,1170.5C 41.872,1168.65 41.372,1166.65 41.5,1164.5C 36.6627,1163.76 35.3293,1161.1 37.5,1156.5C 32.5931,1155.37 29.4265,1152.37 28,1147.5C 25.8212,1146.24 23.6545,1144.91 21.5,1143.5C 20.6143,1142.68 20.281,1141.68 20.5,1140.5C 22.6188,1140.53 23.9522,1139.53 24.5,1137.5 Z"/></g>
<g><path style="opacity:0.008" fill="#afccf3" d="M 1240.5,1153.5 C 1240.29,1155.18 1240.95,1156.18 1242.5,1156.5C 1242.5,1156.83 1242.5,1157.17 1242.5,1157.5C 1242.72,1160.42 1242.05,1163.09 1240.5,1165.5C 1238.71,1165.21 1237.05,1165.55 1235.5,1166.5C 1234.88,1168.12 1233.88,1169.45 1232.5,1170.5C 1233.25,1171.74 1233.58,1173.07 1233.5,1174.5C 1233.5,1175.17 1233.17,1175.5 1232.5,1175.5C 1231.83,1173.5 1231.17,1171.5 1230.5,1169.5C 1230.51,1167.98 1231.18,1166.82 1232.5,1166C 1230.81,1166.13 1229.14,1166.63 1227.5,1167.5C 1225.49,1166.65 1223.82,1167.32 1222.5,1169.5C 1222.84,1171.48 1222.18,1172.82 1220.5,1173.5C 1221.22,1171.24 1221.55,1168.9 1221.5,1166.5C 1225.37,1166.4 1228.04,1164.57 1229.5,1161C 1227.85,1158.59 1228.51,1157.42 1231.5,1157.5C 1232.55,1160.02 1233.22,1162.35 1233.5,1164.5C 1235.4,1160.41 1237.73,1156.74 1240.5,1153.5 Z"/></g>
<g><path style="opacity:0.057" fill="#2932d6" d="M 1227.5,1167.5 C 1226.52,1168.81 1225.52,1170.15 1224.5,1171.5C 1223.82,1170.76 1223.15,1170.09 1222.5,1169.5C 1223.82,1167.32 1225.49,1166.65 1227.5,1167.5 Z"/></g>
<g><path style="opacity:0.004" fill="#5f76e7" d="M 1240.5,1165.5 C 1237.73,1168.26 1235.39,1171.26 1233.5,1174.5C 1233.58,1173.07 1233.25,1171.74 1232.5,1170.5C 1233.88,1169.45 1234.88,1168.12 1235.5,1166.5C 1237.05,1165.55 1238.71,1165.21 1240.5,1165.5 Z"/></g>
<g><path style="opacity:0.02" fill="#3128a5" d="M 60.5,1173.5 C 59.5416,1173.95 58.7083,1174.62 58,1175.5C 55.9993,1172.67 53.8327,1170 51.5,1167.5C 51.56,1166.96 51.8933,1166.62 52.5,1166.5C 55.8044,1168.14 58.471,1170.47 60.5,1173.5 Z"/></g>
<g><path style="opacity:0.004" fill="#3b2ec1" d="M 1218.5,1176.5 C 1218.84,1175.66 1219.51,1175.33 1220.5,1175.5C 1222.65,1175.7 1222.81,1176.7 1221,1178.5C 1220.29,1177.62 1219.46,1176.95 1218.5,1176.5 Z"/></g>
<g><path style="opacity:0.013" fill="#e0f0fc" d="M 1230.5,1169.5 C 1231.17,1171.5 1231.83,1173.5 1232.5,1175.5C 1232.37,1177.22 1232.04,1178.88 1231.5,1180.5C 1228.72,1180.72 1226.05,1180.39 1223.5,1179.5C 1223.49,1174.52 1225.82,1171.18 1230.5,1169.5 Z"/></g>
<g><path style="opacity:0.039" fill="#1c218a" d="M 60.5,1176.5 C 62.1216,1177.12 63.4549,1178.12 64.5,1179.5C 63.5,1179.5 62.5,1179.5 61.5,1179.5C 61.5,1178.83 61.1667,1178.5 60.5,1178.5C 60.5,1177.83 60.5,1177.17 60.5,1176.5 Z"/></g>
<g><path style="opacity:0.008" fill="#9cb8f4" d="M 1223.5,1179.5 C 1226.05,1180.39 1228.72,1180.72 1231.5,1180.5C 1231.43,1183.91 1229.43,1185.91 1225.5,1186.5C 1224.67,1184.74 1223.34,1183.4 1221.5,1182.5C 1221.78,1181.22 1222.45,1180.22 1223.5,1179.5 Z"/></g>
<g><path style="opacity:0.004" fill="#7689e9" d="M 48.5,1178.5 C 53.1023,1180.05 54.769,1183.05 53.5,1187.5C 53.0472,1186.54 52.3805,1185.71 51.5,1185C 51.8333,1184.67 52.1667,1184.33 52.5,1184C 50.8333,1182.33 49.1667,1180.67 47.5,1179C 47.7284,1178.6 48.0618,1178.43 48.5,1178.5 Z"/></g>
<g><path style="opacity:0.013" fill="#edf4fd" d="M 1221.5,1182.5 C 1223.34,1183.4 1224.67,1184.74 1225.5,1186.5C 1225.58,1187.75 1226.24,1188.58 1227.5,1189C 1224.92,1190.47 1222.25,1191.63 1219.5,1192.5C 1219.65,1193.55 1219.48,1194.55 1219,1195.5C 1215.56,1196.1 1213.73,1198.1 1213.5,1201.5C 1209.5,1201.07 1207,1202.74 1206,1206.5C 1202.5,1207.5 1201,1209.84 1201.5,1213.5C 1198.27,1213.56 1196.44,1215.23 1196,1218.5C 1192.93,1220.31 1190.43,1222.65 1188.5,1225.5C 1186.22,1224.55 1184.22,1223.22 1182.5,1221.5C 1185.29,1218.49 1187.95,1215.33 1190.5,1212C 1193.73,1211.64 1195.23,1209.81 1195,1206.5C 1199.55,1203.28 1203.39,1199.45 1206.5,1195C 1209.81,1195.23 1211.64,1193.73 1212,1190.5C 1215.03,1187.63 1218.2,1184.96 1221.5,1182.5 Z"/></g>
<g><path style="opacity:0.013" fill="#edf4fd" d="M 62.5,1188.5 C 65.9002,1188.73 67.9002,1190.56 68.5,1194C 70.5183,1194.5 72.5183,1195 74.5,1195.5C 76.3337,1200.18 79.5003,1203.84 84,1206.5C 84.3333,1207.83 84.6667,1209.17 85,1210.5C 89.6116,1213.38 93.445,1217.05 96.5,1221.5C 94.8333,1222.5 93.5,1223.83 92.5,1225.5C 91.2502,1225.58 90.4169,1226.24 90,1227.5C 88.533,1224.92 87.3664,1222.25 86.5,1219.5C 85.448,1219.65 84.448,1219.48 83.5,1219C 82.9002,1215.56 80.9002,1213.73 77.5,1213.5C 77.6427,1211.74 77.3094,1210.07 76.5,1208.5C 73.3369,1207.68 71.6702,1205.68 71.5,1202.5C 66.5,1203.5 64.5,1201.5 65.5,1196.5C 61.7396,1197.23 59.073,1195.89 57.5,1192.5C 59.1911,1191.14 60.8577,1189.8 62.5,1188.5 Z"/></g>
<g><path style="opacity:0.037" fill="#3b30d9" d="M 1176.5,1218.5 C 1176.95,1219.46 1177.62,1220.29 1178.5,1221C 1177.47,1221.51 1176.47,1222.01 1175.5,1222.5C 1175.5,1222.17 1175.5,1221.83 1175.5,1221.5C 1175.5,1221.17 1175.5,1220.83 1175.5,1220.5C 1175.33,1219.51 1175.66,1218.84 1176.5,1218.5 Z"/></g>
<g><path style="opacity:0.013" fill="#000000" d="M 1173.5,1220.5 C 1173.84,1221.34 1174.51,1221.67 1175.5,1221.5C 1175.5,1221.83 1175.5,1222.17 1175.5,1222.5C 1175.17,1222.5 1174.83,1222.5 1174.5,1222.5C 1173.83,1222.83 1173.17,1223.17 1172.5,1223.5C 1172.5,1223.17 1172.5,1222.83 1172.5,1222.5C 1172.33,1221.51 1172.66,1220.84 1173.5,1220.5 Z"/></g>
<g><path style="opacity:0.043" fill="#2728cf" d="M 111.5,1224.5 C 112.625,1225.65 112.625,1226.65 111.5,1227.5C 108.221,1224.73 104.555,1222.56 100.5,1221C 101.044,1220.28 101.711,1219.78 102.5,1219.5C 106.525,1218.77 109.525,1220.44 111.5,1224.5 Z"/></g>
<g><path style="opacity:0.008" fill="#9fbcf4" d="M 1182.5,1221.5 C 1184.22,1223.22 1186.22,1224.55 1188.5,1225.5C 1186.45,1228.96 1183.78,1230.96 1180.5,1231.5C 1180.72,1228.72 1180.39,1226.05 1179.5,1223.5C 1180.22,1222.45 1181.22,1221.78 1182.5,1221.5 Z"/></g>
<g><path style="opacity:0.031" fill="#362ed0" d="M 1169.5,1222.5 C 1170.21,1223.4 1171.21,1223.74 1172.5,1223.5C 1172.5,1224.17 1172.5,1224.83 1172.5,1225.5C 1168.95,1227.55 1165.61,1229.22 1162.5,1230.5C 1162.5,1230.17 1162.5,1229.83 1162.5,1229.5C 1164.61,1226.97 1166.94,1224.64 1169.5,1222.5 Z"/></g>
<g><path style="opacity:0.017" fill="#e0eef9" d="M 1174.5,1222.5 C 1174.47,1223.5 1174.97,1224.16 1176,1224.5C 1177.14,1224.01 1178.31,1223.68 1179.5,1223.5C 1180.39,1226.05 1180.72,1228.72 1180.5,1231.5C 1178.24,1232.22 1175.9,1232.55 1173.5,1232.5C 1172.82,1230.82 1171.48,1230.16 1169.5,1230.5C 1170.92,1229.08 1171.92,1227.41 1172.5,1225.5C 1172.5,1224.83 1172.5,1224.17 1172.5,1223.5C 1173.17,1223.17 1173.83,1222.83 1174.5,1222.5 Z"/></g>
<g><path style="opacity:0.004" fill="#447bec" d="M 92.5,1226.5 C 93.8333,1226.5 95.1667,1226.5 96.5,1226.5C 96.5,1227.83 96.5,1229.17 96.5,1230.5C 96.5654,1230.94 96.3988,1231.27 96,1231.5C 94.1978,1230.21 93.0312,1228.54 92.5,1226.5 Z"/></g>
<g><path style="opacity:0.02" fill="#8ca6ec" d="M 1169.5,1230.5 C 1171.48,1230.16 1172.82,1230.82 1173.5,1232.5C 1170.88,1235.45 1168.22,1238.45 1165.5,1241.5C 1165.67,1239.38 1165.34,1237.38 1164.5,1235.5C 1165.52,1233.09 1167.18,1231.42 1169.5,1230.5 Z"/></g>
<g><path style="opacity:0.004" fill="#d0e3fa" d="M 96.5,1221.5 C 99.382,1222.81 102.382,1223.98 105.5,1225C 107,1227.83 109.167,1230 112,1231.5C 112.195,1230.18 112.028,1228.85 111.5,1227.5C 112.625,1226.65 112.625,1225.65 111.5,1224.5C 114.301,1227.64 117.634,1229.97 121.5,1231.5C 118.243,1231.76 116.243,1233.43 115.5,1236.5C 117.857,1236.34 120.19,1236.5 122.5,1237C 124.243,1239.96 126.91,1241.46 130.5,1241.5C 130.833,1242.17 131.167,1242.83 131.5,1243.5C 131.5,1244.5 131.5,1245.5 131.5,1246.5C 134.5,1246.5 137.5,1246.5 140.5,1246.5C 141.833,1248.83 141.833,1251.17 140.5,1253.5C 138.241,1254.34 137.241,1256.01 137.5,1258.5C 136.265,1258.28 135.265,1257.61 134.5,1256.5C 132.59,1251.85 129.257,1248.52 124.5,1246.5C 123.833,1244.83 123.167,1243.17 122.5,1241.5C 117.904,1243.67 115.238,1242.34 114.5,1237.5C 108.926,1234.31 102.926,1231.97 96.5,1230.5C 96.5,1229.17 96.5,1227.83 96.5,1226.5C 95.1667,1226.5 93.8333,1226.5 92.5,1226.5C 92.5,1226.17 92.5,1225.83 92.5,1225.5C 93.5,1223.83 94.8333,1222.5 96.5,1221.5 Z"/></g>
<g><path style="opacity:0.014" fill="#c5d9f8" d="M 1162.5,1229.5 C 1162.5,1229.83 1162.5,1230.17 1162.5,1230.5C 1163.79,1231.47 1163.79,1232.47 1162.5,1233.5C 1162.86,1234.52 1163.52,1235.19 1164.5,1235.5C 1165.34,1237.38 1165.67,1239.38 1165.5,1241.5C 1163.62,1242.34 1161.62,1242.67 1159.5,1242.5C 1159.61,1244.9 1158.61,1246.74 1156.5,1248C 1151.29,1247.46 1148.29,1249.63 1147.5,1254.5C 1145.5,1254.5 1143.5,1254.5 1141.5,1254.5C 1140.79,1253.6 1139.79,1253.26 1138.5,1253.5C 1138.5,1253.17 1138.5,1252.83 1138.5,1252.5C 1143.93,1253.91 1146.26,1251.91 1145.5,1246.5C 1147.08,1244.77 1148.75,1242.94 1150.5,1241C 1152.81,1240.5 1155.14,1240.34 1157.5,1240.5C 1157.57,1239.04 1157.23,1237.71 1156.5,1236.5C 1157.96,1234.37 1158.96,1232.04 1159.5,1229.5C 1160.5,1229.5 1161.5,1229.5 1162.5,1229.5 Z"/></g>
<g><path style="opacity:0.031" fill="#0000c1" d="M 1149.5,1239.5 C 1148.1,1240.89 1146.43,1241.89 1144.5,1242.5C 1145.4,1240.27 1147.07,1239.27 1149.5,1239.5 Z"/></g>
<g><path style="opacity:0.008" fill="#2829e2" d="M 129.5,1237.5 C 131.199,1237.53 132.533,1238.19 133.5,1239.5C 133.167,1240.83 132.833,1242.17 132.5,1243.5C 132.167,1243.5 131.833,1243.5 131.5,1243.5C 131.167,1242.83 130.833,1242.17 130.5,1241.5C 130.414,1240.5 130.748,1239.67 131.5,1239C 130.584,1238.72 129.918,1238.22 129.5,1237.5 Z"/></g>
<g><path style="opacity:0.004" fill="#a99de9" d="M 133.5,1239.5 C 134.341,1240.93 135.341,1242.26 136.5,1243.5C 135.167,1243.5 133.833,1243.5 132.5,1243.5C 132.833,1242.17 133.167,1240.83 133.5,1239.5 Z"/></g>
<g><path style="opacity:0.086" fill="#95b0ef" d="M 141.5,1243.5 C 144.547,1245.1 147.88,1246.1 151.5,1246.5C 153.321,1247.73 154.321,1249.39 154.5,1251.5C 153.199,1250.04 151.699,1248.7 150,1247.5C 148.97,1247.84 148.47,1248.5 148.5,1249.5C 145.857,1248.55 143.19,1247.55 140.5,1246.5C 141.11,1245.61 141.443,1244.61 141.5,1243.5 Z"/></g>
<g><path style="opacity:0.071" fill="#8db5f2" d="M 1136.5,1245.5 C 1134.96,1246.67 1133.63,1248 1132.5,1249.5C 1131.83,1249.5 1131.17,1249.5 1130.5,1249.5C 1130.53,1248.5 1130.03,1247.84 1129,1247.5C 1127.92,1248.43 1126.76,1249.1 1125.5,1249.5C 1125.82,1247.87 1126.82,1246.87 1128.5,1246.5C 1131.11,1245.73 1133.78,1245.4 1136.5,1245.5 Z"/></g>
<g><path style="opacity:0.016" fill="#3c3bb4" d="M 1138.5,1243.5 C 1138.5,1244.17 1138.5,1244.83 1138.5,1245.5C 1138.44,1246.61 1138.11,1247.61 1137.5,1248.5C 1135.78,1248.63 1134.12,1248.96 1132.5,1249.5C 1133.63,1248 1134.96,1246.67 1136.5,1245.5C 1136.5,1244.17 1137.17,1243.5 1138.5,1243.5 Z"/></g>
<g><path style="opacity:0.02" fill="#1d0480" d="M 154.5,1251.5 C 154.548,1252.51 153.548,1252.84 151.5,1252.5C 150.833,1251.17 149.833,1250.17 148.5,1249.5C 148.47,1248.5 148.97,1247.84 150,1247.5C 151.699,1248.7 153.199,1250.04 154.5,1251.5 Z"/></g>
<g><path style="opacity:0.008" fill="#eaedf5" d="M 1138.5,1245.5 C 1139.31,1246.43 1140.15,1247.43 1141,1248.5C 1142.11,1246.96 1143.61,1246.3 1145.5,1246.5C 1146.26,1251.91 1143.93,1253.91 1138.5,1252.5C 1138.57,1251.04 1138.23,1249.71 1137.5,1248.5C 1138.11,1247.61 1138.44,1246.61 1138.5,1245.5 Z"/></g>
<g><path style="opacity:0.004" fill="#3a1185" d="M 1130.5,1249.5 C 1129.73,1250.69 1128.73,1251.69 1127.5,1252.5C 1126.13,1252.66 1124.79,1252.49 1123.5,1252C 1124.76,1251.58 1125.42,1250.75 1125.5,1249.5C 1126.76,1249.1 1127.92,1248.43 1129,1247.5C 1130.03,1247.84 1130.53,1248.5 1130.5,1249.5 Z"/></g>
<g><path style="opacity:0.007" fill="#c3dbfb" d="M 150.5,1256.5 C 150.34,1258.15 149.674,1259.49 148.5,1260.5C 146.158,1261.99 144.158,1261.65 142.5,1259.5C 142.5,1257.83 142.5,1256.17 142.5,1254.5C 143.99,1252.72 145.99,1252.05 148.5,1252.5C 148.229,1254.38 148.896,1255.71 150.5,1256.5 Z"/></g>
<g><path style="opacity:0.114" fill="#3329cc" d="M 1118.5,1254.5 C 1119.76,1254.46 1120.76,1254.96 1121.5,1256C 1118.68,1257.24 1116.01,1258.74 1113.5,1260.5C 1112.17,1260.5 1111.5,1259.83 1111.5,1258.5C 1112.17,1258.5 1112.5,1258.17 1112.5,1257.5C 1113.57,1254.3 1115.57,1253.3 1118.5,1254.5 Z"/></g>
<g><path style="opacity:0.008" fill="#5f78e8" d="M 140.5,1253.5 C 141.167,1253.83 141.833,1254.17 142.5,1254.5C 142.5,1256.17 142.5,1257.83 142.5,1259.5C 140.958,1258.7 139.292,1258.37 137.5,1258.5C 137.241,1256.01 138.241,1254.34 140.5,1253.5 Z"/></g>
<g><path style="opacity:0.004" fill="#2b50e1" d="M 1138.5,1253.5 C 1139.79,1253.26 1140.79,1253.6 1141.5,1254.5C 1141.5,1255.83 1141.5,1257.17 1141.5,1258.5C 1139.45,1258.37 1137.78,1259.03 1136.5,1260.5C 1136.5,1258.5 1136.5,1256.5 1136.5,1254.5C 1137.17,1254.17 1137.83,1253.83 1138.5,1253.5 Z"/></g>
<g><path style="opacity:0.008" fill="#c4dbf9" d="M 1136.5,1254.5 C 1136.5,1256.5 1136.5,1258.5 1136.5,1260.5C 1134.5,1261.83 1132.5,1261.83 1130.5,1260.5C 1129.33,1259.49 1128.66,1258.15 1128.5,1256.5C 1130.53,1255.47 1132.36,1254.14 1134,1252.5C 1135.3,1252.64 1136.13,1253.31 1136.5,1254.5 Z"/></g>
<g><path style="opacity:0.012" fill="#433ddb" d="M 166.5,1257.5 C 165.443,1258.21 165.776,1258.54 167.5,1258.5C 167.5,1259.83 166.833,1260.5 165.5,1260.5C 163.519,1258.86 161.519,1257.19 159.5,1255.5C 159.957,1254.7 160.624,1254.37 161.5,1254.5C 163.988,1253.59 165.655,1254.59 166.5,1257.5 Z"/></g>
<g><path style="opacity:0.008" fill="#4d78f2" d="M 1128.5,1256.5 C 1128.66,1258.15 1129.33,1259.49 1130.5,1260.5C 1129.38,1263.05 1127.71,1264.05 1125.5,1263.5C 1124.75,1261.67 1123.75,1260 1122.5,1258.5C 1124.1,1256.93 1126.1,1256.26 1128.5,1256.5 Z"/></g>
<g><path style="opacity:0.004" fill="#4c6eec" d="M 150.5,1256.5 C 152.284,1256.89 153.95,1257.56 155.5,1258.5C 154.559,1260.05 153.893,1261.72 153.5,1263.5C 151.288,1264.05 149.621,1263.05 148.5,1260.5C 149.674,1259.49 150.34,1258.15 150.5,1256.5 Z"/></g>
<g><path style="opacity:0.006" fill="#a4c0f4" d="M 1122.5,1258.5 C 1123.75,1260 1124.75,1261.67 1125.5,1263.5C 1123.21,1265.65 1120.54,1267.32 1117.5,1268.5C 1117.38,1267.41 1116.71,1266.75 1115.5,1266.5C 1113.23,1267.36 1112.23,1269.03 1112.5,1271.5C 1111.83,1271.5 1111.17,1271.5 1110.5,1271.5C 1110.49,1268.36 1111.49,1265.69 1113.5,1263.5C 1116.62,1262.02 1119.62,1260.35 1122.5,1258.5 Z"/></g>
<g><path style="opacity:0.012" fill="#7695ec" d="M 167.5,1270.5 C 164.088,1269.96 161.088,1268.62 158.5,1266.5C 161.062,1264.03 163.895,1264.03 167,1266.5C 167.49,1267.79 167.657,1269.13 167.5,1270.5 Z"/></g>
<g><path style="opacity:0.008" fill="#3d6de6" d="M 1117.5,1268.5 C 1116.08,1269.92 1114.41,1270.92 1112.5,1271.5C 1112.23,1269.03 1113.23,1267.36 1115.5,1266.5C 1116.71,1266.75 1117.38,1267.41 1117.5,1268.5 Z"/></g>
<g><path style="opacity:0.075" fill="#0c0ab4" d="M 1080.5,1266.5 C 1084.5,1266.5 1088.5,1266.5 1092.5,1266.5C 1091.43,1267.43 1090.1,1267.77 1088.5,1267.5C 1084.62,1267.42 1080.95,1268.09 1077.5,1269.5C 1077.86,1267.81 1078.86,1266.81 1080.5,1266.5 Z"/></g>
<g><path style="opacity:0.02" fill="#271c4a" d="M 1088.5,1267.5 C 1085.66,1269.35 1082.66,1271.01 1079.5,1272.5C 1078.26,1271.75 1076.93,1271.42 1075.5,1271.5C 1076.17,1270.83 1076.83,1270.17 1077.5,1269.5C 1080.95,1268.09 1084.62,1267.42 1088.5,1267.5 Z"/></g>
<g><path style="opacity:0.006" fill="#d9e3f9" d="M 155.5,1258.5 C 159.264,1259.55 162.931,1260.88 166.5,1262.5C 167.607,1264.93 169.607,1265.93 172.5,1265.5C 173.833,1265.33 175.167,1265.17 176.5,1265C 175.185,1263.61 175.519,1262.61 177.5,1262C 176.906,1261.54 176.239,1261.37 175.5,1261.5C 176.568,1260.57 177.901,1260.23 179.5,1260.5C 179.259,1262.89 179.925,1264.89 181.5,1266.5C 180.317,1267.5 178.984,1268.34 177.5,1269C 182.31,1270.55 187.31,1271.55 192.5,1272C 193.71,1273.04 194.71,1274.21 195.5,1275.5C 190.06,1277.45 184.393,1277.95 178.5,1277C 176.963,1275.89 176.297,1274.39 176.5,1272.5C 173.246,1272.79 170.246,1272.13 167.5,1270.5C 167.657,1269.13 167.49,1267.79 167,1266.5C 163.895,1264.03 161.062,1264.03 158.5,1266.5C 156.326,1266.25 154.659,1265.25 153.5,1263.5C 153.893,1261.72 154.559,1260.05 155.5,1258.5 Z"/></g>
<g><path style="opacity:0.005" fill="#dce3f8" d="M 1103.5,1261.5 C 1102.76,1261.37 1102.09,1261.54 1101.5,1262C 1102.5,1262.33 1103.5,1262.67 1104.5,1263C 1102.99,1263.84 1102.49,1265 1103,1266.5C 1106.63,1265.91 1110.13,1264.91 1113.5,1263.5C 1111.49,1265.69 1110.49,1268.36 1110.5,1271.5C 1107.9,1272.27 1105.24,1272.6 1102.5,1272.5C 1102.7,1274.39 1102.04,1275.89 1100.5,1277C 1095.98,1277.18 1091.65,1277.68 1087.5,1278.5C 1085.37,1278.45 1084.03,1277.45 1083.5,1275.5C 1084.82,1272.29 1086.99,1271.29 1090,1272.5C 1091.89,1271.87 1093.56,1270.87 1095,1269.5C 1097.29,1270.91 1099.46,1270.74 1101.5,1269C 1098.89,1266.9 1095.89,1266.06 1092.5,1266.5C 1088.5,1266.5 1084.5,1266.5 1080.5,1266.5C 1086.41,1264.54 1092.75,1263.88 1099.5,1264.5C 1099.34,1260.97 1100.67,1259.97 1103.5,1261.5 Z"/></g>
<g><path style="opacity:0.015" fill="#20141b" d="M 212.5,1272.5 C 216.012,1271.95 219.012,1272.61 221.5,1274.5C 222.29,1275.4 223.29,1276.07 224.5,1276.5C 223.054,1277.61 221.387,1277.78 219.5,1277C 217.062,1275.54 214.729,1274.04 212.5,1272.5 Z"/></g>
<g><path style="opacity:0.506" fill="#c7c8e9" d="M 1058.5,1272.5 C 1056.07,1275.78 1052.73,1277.78 1048.5,1278.5C 1049.5,1276.99 1050.17,1275.32 1050.5,1273.5C 1053.14,1273.84 1055.48,1273.17 1057.5,1271.5C 1058.11,1271.62 1058.44,1271.96 1058.5,1272.5 Z"/></g>
<g><path style="opacity:0.011" fill="#eaf1fc" d="M 195.5,1275.5 C 198.85,1275.33 202.183,1275.5 205.5,1276C 207.426,1276.42 208.426,1277.59 208.5,1279.5C 203.833,1279.5 199.167,1279.5 194.5,1279.5C 195.234,1278.29 195.567,1276.96 195.5,1275.5 Z"/></g>
<g><path style="opacity:0.204" fill="#9b95e6" d="M 221.5,1274.5 C 223.833,1274.5 226.167,1274.5 228.5,1274.5C 228.5,1275.83 228.5,1277.17 228.5,1278.5C 227.395,1277.4 226.062,1276.73 224.5,1276.5C 223.29,1276.07 222.29,1275.4 221.5,1274.5 Z"/></g>
<g><path style="opacity:0.008" fill="#e5edfc" d="M 1077.5,1275.5 C 1077.5,1276.83 1077.5,1278.17 1077.5,1279.5C 1073.5,1279.5 1069.5,1279.5 1065.5,1279.5C 1066.12,1277.66 1067.46,1276.5 1069.5,1276C 1072.15,1275.5 1074.81,1275.34 1077.5,1275.5 Z"/></g>
<g><path style="opacity:0.012" fill="#447de8" d="M 1077.5,1275.5 C 1078.5,1275.5 1079.5,1275.5 1080.5,1275.5C 1080.5,1276.83 1080.5,1278.17 1080.5,1279.5C 1079.5,1279.5 1078.5,1279.5 1077.5,1279.5C 1077.5,1278.17 1077.5,1276.83 1077.5,1275.5 Z"/></g>
<g><path style="opacity:0.004" fill="#1f20d3" d="M 1080.5,1275.5 C 1081.5,1275.5 1082.5,1275.5 1083.5,1275.5C 1084.03,1277.45 1085.37,1278.45 1087.5,1278.5C 1087.5,1278.83 1087.5,1279.17 1087.5,1279.5C 1085.17,1279.5 1082.83,1279.5 1080.5,1279.5C 1080.5,1278.17 1080.5,1276.83 1080.5,1275.5 Z"/></g>
</svg>
